<?xml version="1.0" encoding="UTF-8" standalone="no"?><!-- Generator: Gravit.io --><svg xmlns="http://www.w3.org/2000/svg" xmlns:xlink="http://www.w3.org/1999/xlink" style="isolation:isolate" viewBox="0 0 90 119" width="90pt" height="119pt"><defs><clipPath id="_clipPath_VlFaRpkf5uti5e4bT7zxoSFnDZcSIhY8"><rect width="90" height="119"/></clipPath></defs><g clip-path="url(#_clipPath_VlFaRpkf5uti5e4bT7zxoSFnDZcSIhY8)"><g><path d=" M 36.803 105.505 Q 40.418 64.23 38.309 60.313 C 36.2 56.396 33.79 43.441 31.38 40.729 C 28.969 38.018 24.45 30.486 21.437 28.979 Q 18.424 27.473 11.495 25.063 Q 9.687 19.037 12.7 20.845 Q 15.713 22.652 19.931 23.255 Q 19.328 18.133 17.219 14.518 Q 15.11 10.902 23.245 12.108 L 23.245 19.037 Q 26.559 17.229 27.162 21.749 C 27.764 26.268 24.149 25.364 27.764 28.678 C 31.38 31.992 32.283 36.511 33.489 34.101 C 34.694 31.691 37.707 31.088 36.501 27.172 C 35.296 23.255 32.886 20.543 34.091 17.229 C 35.296 13.915 37.405 15.422 37.707 18.434 C 38.008 21.447 36.803 26.268 40.418 25.665 C 44.034 25.063 48.252 22.351 49.155 19.338 Q 56.687 20.242 53.373 22.954 C 50.059 25.665 42.527 28.979 40.719 33.197 C 38.912 37.415 35.899 40.729 37.104 45.249 C 38.309 49.768 41.021 56.999 44.335 56.697 C 47.649 56.396 54.578 50.973 53.675 46.454 C 52.771 41.935 48.854 36.813 50.059 32.293 C 51.264 27.774 57.29 17.832 59.399 21.146 C 61.508 24.46 66.027 23.255 62.111 26.268 C 58.194 29.281 54.578 31.088 55.784 35.608 C 56.989 40.127 56.386 45.851 58.796 44.044 C 61.207 42.236 63.617 44.646 66.027 40.729 C 68.438 36.813 65.726 32.595 68.739 32.595 C 71.752 32.595 75.066 30.185 73.559 34.402 Q 72.053 38.62 71.752 41.332 L 75.668 39.223 Q 80.79 38.319 77.175 43.14 C 73.559 47.96 71.149 49.768 67.835 47.659 C 64.521 45.55 59.7 44.646 58.495 47.96 C 57.29 51.274 57.29 55.492 53.373 57.3 C 49.457 59.108 44.636 59.409 44.937 63.326 C 45.239 67.242 43.13 74.473 43.732 79.294 C 44.335 84.114 44.034 100.384 46.444 102.794 C 48.854 105.204 43.13 109.723 40.418 107.313 Q 37.707 104.903 36.803 105.505 Z " fill="rgb(62,40,12)"/><path d=" M 19.931 25.967 Q 22.341 31.088 25.053 33.499 C 27.764 35.909 31.681 42.236 32.886 45.399 C 34.091 48.563 37.707 54.137 38.912 57.903 C 40.117 61.669 39.816 69.05 39.816 73.569 C 39.816 78.089 37.104 99.329 37.857 101.438 C 38.61 103.547 41.021 101.739 41.322 100.233 C 41.623 98.726 42.678 68.598 42.678 64.983 C 42.678 61.367 42.376 58.505 40.117 55.04 C 37.857 51.576 35.598 48.111 34.694 44.646 C 33.79 41.181 33.187 39.976 34.242 38.169 C 35.296 36.361 36.2 33.197 38.912 30.486 C 41.623 27.774 49.457 26.117 46.143 25.063 C 42.828 24.008 41.473 24.309 39.062 26.569 C 36.652 28.829 36.501 34.553 33.79 35.457 C 31.078 36.361 26.71 33.348 25.505 29.431 C 24.299 25.515 25.505 19.79 22.642 22.05 Q 19.78 24.309 19.931 25.967 Z " fill="rgb(81,53,17)"/><path d=" M 73.183 36.662 Q 71.978 39.148 72.957 39.6 C 73.936 40.052 73.861 40.202 73.559 41.784 C 73.258 43.366 72.279 45.625 73.258 46.002 C 74.237 46.378 74.84 49.919 76.798 48.337 C 78.756 46.755 78.907 46.303 79.811 47.207 C 80.715 48.111 78.982 50.672 80.79 49.994 C 82.598 49.316 81.845 49.015 82.447 47.433 C 83.05 45.851 82.447 46.981 84.481 47.81 C 86.515 48.638 86.59 49.241 86.439 45.55 C 86.289 41.859 87.87 45.098 87.87 42.688 C 87.87 40.278 90.582 40.955 86.816 38.771 C 83.05 36.587 86.816 36.21 84.33 35.231 C 81.845 34.252 80.941 32.745 79.962 33.273 C 78.982 33.8 76.196 33.8 75.744 35.608 Q 75.292 37.415 73.183 36.662 Z " fill="rgb(93,96,24)"/><path d=" M 43.808 23.707 Q 45.766 22.502 46.444 23.858 C 47.122 25.213 49.909 26.117 49.909 25.213 C 49.909 24.309 50.812 26.946 51.641 25.665 C 52.469 24.385 52.921 18.886 54.127 19.941 C 55.332 20.995 56.612 20.845 56.311 22.502 C 56.01 24.159 53.072 25.665 53.976 26.193 C 54.88 26.72 55.482 25.063 56.913 25.515 C 58.345 25.967 59.022 26.795 59.324 28.979 C 59.625 31.164 60.83 31.164 58.345 33.197 C 55.859 35.231 54.654 35.005 55.181 36.511 C 55.708 38.018 55.558 37.491 52.846 38.319 C 50.135 39.148 47.272 41.483 45.389 38.319 C 43.506 35.156 40.343 35.457 41.096 33.197 C 41.849 30.938 44.26 31.917 43.732 29.808 C 43.205 27.699 40.117 29.733 40.644 27.85 Q 41.171 25.967 43.808 23.707 Z " fill="rgb(154,157,57)"/><path d=" M 46.82 12.032 Q 45.917 14.97 46.896 14.894 C 47.875 14.819 49.457 16.25 47.95 16.702 C 46.444 17.154 43.13 17.003 44.787 18.736 C 46.444 20.468 48.553 19.188 48.929 20.694 C 49.306 22.2 48.176 24.761 49.607 24.084 Q 51.038 23.406 51.114 21.899 Q 55.934 20.995 56.537 20.393 C 57.139 19.79 59.098 18.359 58.495 17.003 C 57.893 15.648 55.558 16.853 55.558 15.723 C 55.558 14.593 55.708 15.12 57.215 14.518 C 58.721 13.915 59.55 14.442 57.742 13.011 C 55.934 11.58 53.599 10.526 52.319 11.731 C 51.038 12.936 52.921 11.43 51.114 10.827 Q 49.306 10.224 46.82 12.032 Z " fill="rgb(107,111,35)"/><path d=" M 59.926 14.668 Q 62.939 15.798 62.788 14.442 C 62.638 13.087 61.809 12.409 62.864 12.108 C 63.918 11.806 64.22 13.388 64.973 13.087 C 65.726 12.785 64.22 10.978 65.877 10.676 C 67.534 10.375 67.006 13.991 67.76 13.539 C 68.513 13.087 68.061 11.656 69.266 12.032 C 70.471 12.409 72.204 13.463 71.074 14.292 C 69.944 15.12 69.341 16.853 70.622 16.627 C 71.902 16.401 74.614 15.874 72.806 17.681 C 70.998 19.489 73.71 17.003 73.032 20.317 C 72.354 23.632 71.752 25.063 70.245 23.858 C 68.739 22.652 67.986 26.117 64.747 24.084 C 61.508 22.05 64.295 24.084 62.788 24.761 C 61.282 25.439 61.659 25.439 60.378 23.782 C 59.098 22.125 57.817 21.598 58.495 21.071 C 59.173 20.543 58.043 19.64 58.721 18.208 C 59.399 16.777 56.989 16.627 58.495 14.819 Q 60.002 13.011 59.926 14.668 Z " fill="rgb(107,111,35)"/><path d=" M 62.864 29.507 Q 65.274 28.603 65.425 29.431 C 65.575 30.26 64.144 30.561 63.994 31.54 C 63.843 32.519 61.734 33.423 62.939 33.875 C 64.144 34.327 64.144 37.265 65.726 36.361 C 67.308 35.457 67.76 35.984 68.814 35.231 C 69.869 34.478 69.492 32.293 71.375 33.649 C 73.258 35.005 73.183 35.08 73.559 36.06 C 73.936 37.039 77.175 36.963 78.079 35.683 C 78.982 34.402 80.79 33.725 81.167 32.444 C 81.543 31.164 81.995 28.753 81.317 28.301 C 80.639 27.85 78.756 25.891 77.024 24.611 C 75.292 23.33 76.12 21.146 74.614 22.803 C 73.107 24.46 69.869 21.899 68.136 23.632 C 66.404 25.364 65.726 24.309 64.445 26.268 Q 63.165 28.226 62.864 29.507 Z " fill="rgb(107,111,35)"/><path d=" M 24.45 18.635 Q 26.66 29.281 28.066 28.879 C 29.472 28.477 31.078 28.779 31.58 30.084 C 32.083 31.39 36.301 30.486 35.196 28.779 C 34.091 27.071 32.685 26.77 33.388 26.167 C 34.091 25.565 35.999 24.761 34.091 23.355 C 32.183 21.949 30.275 17.028 28.166 18.133 Q 26.057 19.238 24.45 18.635 Z " fill="rgb(93,96,24)"/><path d=" M 12.399 8.793 L 11.043 10.752 Q 10.29 12.559 11.646 13.313 C 13.001 14.066 12.248 16.476 14.508 17.079 C 16.767 17.681 17.069 18.886 18.575 17.983 C 20.082 17.079 21.437 18.434 23.848 16.928 C 26.258 15.422 28.517 10.601 25.957 8.191 C 23.396 5.781 23.848 2.918 21.287 4.274 C 18.726 5.63 16.918 4.274 15.261 5.329 Q 13.604 6.383 12.399 8.793 Z " fill="rgb(154,157,57)"/><path d=" M 13.001 24.46 Q 10.29 24.761 11.495 26.268 C 12.7 27.774 13.001 29.582 10.742 28.678 C 8.482 27.774 8.934 27.322 7.428 28.527 C 5.921 29.733 4.867 32.595 3.662 29.582 C 2.456 26.569 1.101 25.967 2.758 24.761 C 4.415 23.556 0.649 24.309 1.251 22.351 C 1.854 20.393 4.565 21.297 3.812 18.434 C 3.059 15.572 4.716 13.614 6.674 15.723 C 8.633 17.832 11.194 15.723 13.152 16.627 C 15.11 17.531 15.562 18.736 15.11 21.749 Q 14.658 24.761 13.001 24.46 Z " fill="rgb(154,157,57)"/><path d=" M 29.195 13.765 Q 30.25 14.367 30.551 15.723 C 30.852 17.079 29.421 19.715 31.606 20.016 C 33.79 20.317 34.468 19.414 35.221 18.51 C 35.974 17.606 36.275 18.51 37.029 19.188 C 37.782 19.866 40.945 20.167 40.644 19.037 C 40.343 17.907 38.912 16.627 39.665 16.1 C 40.418 15.572 41.699 16.25 41.849 14.066 C 42 11.882 43.28 11.505 41.397 11.882 C 39.514 12.258 39.59 12.108 39.665 11.128 C 39.74 10.149 41.548 11.43 41.925 10.224 C 42.301 9.019 42.151 7.061 40.343 7.814 C 38.535 8.567 37.782 8.04 36.652 7.287 C 35.522 6.534 34.016 7.438 33.489 7.739 C 32.961 8.04 30.852 6.007 30.25 7.814 C 29.647 9.622 31.907 11.053 30.852 12.108" fill="rgb(133,137,38)"/></g></g></svg>