<?xml version="1.0" encoding="UTF-8" standalone="no"?><!-- Generator: Gravit.io --><svg xmlns="http://www.w3.org/2000/svg" xmlns:xlink="http://www.w3.org/1999/xlink" style="isolation:isolate" viewBox="0 0 54 78" width="54pt" height="78pt"><defs><clipPath id="_clipPath_zap3byyMW0l3ViDD2yDxo9HzxTbA5jaE"><rect width="54" height="78"/></clipPath></defs><g clip-path="url(#_clipPath_zap3byyMW0l3ViDD2yDxo9HzxTbA5jaE)"><path d=" M 31.121 28.584 Q 32.345 28.788 33.468 27.462 C 34.591 26.135 33.672 24.808 34.999 26.135 C 36.326 27.462 39.081 29.095 39.796 27.155 C 40.51 25.216 38.571 24.502 39.49 23.89 C 40.408 23.277 42.041 21.95 41.531 20.522 C 41.021 19.093 37.142 17.052 35.101 17.766 C 33.06 18.48 29.998 16.949 29.59 18.889 C 29.182 20.828 26.324 19.297 27.345 22.052 Q 28.365 24.808 31.121 28.584 Z " fill="rgb(142,139,37)"/><path d=" M 16.322 25.829 Q 17.853 25.931 18.159 24.502 C 18.465 23.073 18.976 22.971 19.69 24.298 C 20.404 25.625 21.833 23.277 22.037 22.052 C 22.242 20.828 23.67 22.359 23.568 18.889 C 23.466 15.419 22.854 18.582 23.058 16.541 C 23.262 14.5 23.466 15.929 22.548 14.5 C 21.629 13.071 23.568 14.704 21.629 12.357 C 19.69 10.009 18.465 8.581 16.628 9.295 C 14.791 10.009 13.566 9.499 12.954 11.336 C 12.342 13.173 11.627 14.296 10.403 13.888 C 9.178 13.479 8.055 13.581 8.259 15.316 C 8.463 17.052 9.178 15.419 9.382 17.358 C 9.586 19.297 7.443 19.297 9.178 20.828 C 10.913 22.359 9.994 23.481 11.627 24.4 C 13.26 25.318 12.75 23.685 13.566 23.685 Q 14.383 23.685 16.322 25.829 Z " fill="rgb(176,172,48)"/><path d=" M 26.528 12.153 C 27.651 13.071 27.549 11.744 27.651 12.663 C 27.753 13.581 26.426 13.071 26.834 14.296 C 27.242 15.521 27.651 14.704 27.957 15.725 C 28.263 16.745 28.977 15.929 28.161 17.256 C 27.345 18.582 27.549 18.684 28.467 18.787 C 29.386 18.889 31.223 19.195 33.06 19.705 C 34.897 20.215 34.591 22.359 37.346 21.44 C 40.102 20.522 38.163 18.684 39.796 18.378 C 41.429 18.072 40.204 15.521 41.429 14.908 C 42.654 14.296 43.164 11.949 41.021 10.622 C 38.877 9.295 40.918 10.928 39.694 8.07 C 38.469 5.213 38.571 3.988 36.53 4.702 C 34.489 5.417 30.713 4.192 29.182 6.641 C 27.651 9.091 27.14 8.478 27.14 9.907 C 27.14 11.336 25.405 11.234 26.528 12.153 Z " fill="rgb(160,157,42)"/><path d=" M 20.711 67.877 Q 20.098 54.303 21.017 52.772 C 21.935 51.242 22.446 52.058 22.446 48.894 C 22.446 45.73 21.425 40.423 22.344 39.403 C 23.262 38.382 23.364 39.301 23.67 36.647 C 23.977 33.993 24.793 31.748 23.67 30.319 C 22.548 28.89 19.588 26.747 19.486 24.298 C 19.384 21.848 19.69 20.113 20.609 21.236 C 21.527 22.359 21.323 23.379 23.058 25.012 C 24.793 26.645 24.793 29.605 26.12 27.768 C 27.447 25.931 29.386 20.93 31.427 19.399 C 33.468 17.868 35.611 16.439 36.122 18.889 C 36.632 21.338 35.611 24.298 34.489 24.706 C 33.366 25.114 30.202 28.788 28.977 29.809 C 27.753 30.83 27.549 29.911 27.753 32.054 C 27.957 34.198 28.875 38.79 27.753 39.096 C 26.63 39.403 26.426 37.872 26.426 41.954 C 26.426 46.036 26.732 54.303 26.528 59.304 C 26.324 64.305 27.549 69.306 26.528 69.714 C 25.507 70.123 23.977 70.939 22.956 70.021 Q 21.935 69.102 20.711 67.877 Z " fill="rgb(84,70,53)"/><path d=" M 25.507 30.983 C 27.213 31.476 25.405 32.565 25.916 34.912 C 26.426 37.259 25.916 37.821 25.201 39.76 C 24.487 41.699 24.385 41.342 24.079 42.873 C 23.772 44.404 23.16 46.343 23.875 48.18 C 24.589 50.017 25.099 50.425 24.487 52.262 C 23.875 54.099 23.466 53.997 24.283 56.14 C 25.099 58.284 26.528 58.896 25.61 61.141 C 24.691 63.387 21.017 62.672 21.017 61.448 C 21.017 60.223 20.79 57.599 21.017 55.63 C 21.323 52.977 22.548 51.905 22.548 50.476 C 22.548 49.047 22.21 43.874 22.344 42.362 C 22.497 40.627 24.181 40.372 23.875 38.739 C 23.568 37.106 23.517 37.004 23.823 34.861 C 24.13 32.718 23.431 30.382 25.507 30.983 Z " fill="rgb(142,124,93)"/><path d=" M 30.993 19.731 Q 27.549 24.808 27.753 25.625 C 27.957 26.441 28.059 26.849 29.182 26.339 C 30.304 25.829 33.978 20.317 34.285 19.501 Q 34.591 18.684 30.993 19.731 Z " fill="rgb(142,124,93)"/></g></svg>