<?xml version="1.0" encoding="UTF-8" standalone="no"?><!-- Generator: Gravit.io --><svg xmlns="http://www.w3.org/2000/svg" xmlns:xlink="http://www.w3.org/1999/xlink" style="isolation:isolate" viewBox="0 0 58 200" width="58pt" height="200pt"><defs><clipPath id="_clipPath_9li43PjirdVulIsE4UMBCNe5ZwjEJVab"><rect width="58" height="200"/></clipPath></defs><g clip-path="url(#_clipPath_9li43PjirdVulIsE4UMBCNe5ZwjEJVab)"><path d=" M 22.697 194.232 L 22.697 145.791 Q 15.507 145.034 15.885 141.628 Q 16.263 138.222 15.885 135.195 L 21.183 135.195 L 21.562 79.942 Q 15.885 83.348 13.993 79.563 C 12.101 75.779 12.479 73.13 15.885 71.616 C 19.291 70.102 20.805 71.995 20.805 67.832 Q 20.805 63.669 25.346 27.717 Q 26.86 20.148 29.509 22.04 C 32.158 23.932 32.537 27.338 32.537 32.636 Q 32.537 37.935 32.915 42.854 Q 38.97 36.421 40.484 39.07 C 41.998 41.719 47.296 42.098 42.754 45.504 Q 38.213 48.91 35.564 51.937 L 33.293 103.027 Q 38.213 100.378 38.592 104.541 C 38.97 108.704 37.078 114.38 34.807 114.38 Q 32.537 114.38 33.293 190.069 Q 33.672 198.016 22.697 194.232 Z " fill="rgb(99,44,2)"/><path d=" M 54.865 91.674 Q 56.757 95.836 51.08 94.323 Q 45.404 92.809 41.241 90.538 Q 32.158 93.944 30.644 91.295 C 29.131 88.646 30.266 82.591 27.995 85.618 C 25.725 88.646 30.266 90.16 25.725 89.781 C 21.183 89.403 19.291 93.187 16.263 93.566 C 13.236 93.944 10.965 97.729 9.073 92.43 C 7.181 87.132 5.667 81.834 7.559 76.157 C 9.452 70.481 12.857 65.939 12.857 57.614 C 12.857 49.288 8.695 46.26 12.101 43.611 C 15.507 40.962 15.507 39.827 16.263 34.15 C 17.02 28.474 22.319 20.905 23.075 13.336 C 23.832 5.767 24.968 0.847 27.995 2.739 C 31.023 4.632 32.158 11.065 35.186 19.769 C 38.213 28.474 40.862 45.125 46.539 57.614 C 52.216 70.102 56 70.859 51.08 70.859 C 46.16 70.859 38.213 67.075 42.376 70.481 C 46.539 73.887 55.622 76.914 56 84.105 L 51.837 87.132 L 54.865 91.674 Z " fill="rgb(49,130,0)"/><path d=" M 22.697 78.807 Q 18.913 84.105 15.128 81.834 Q 11.344 79.563 13.236 73.508 L 21.183 69.724 L 22.697 78.807 Z " fill="rgb(114,55,10)"/></g></svg>