<?xml version="1.0" encoding="UTF-8" standalone="no"?><!-- Generator: Gravit.io --><svg xmlns="http://www.w3.org/2000/svg" xmlns:xlink="http://www.w3.org/1999/xlink" style="isolation:isolate" viewBox="0 0 500 500" width="500pt" height="500pt"><defs><clipPath id="_clipPath_llY8xUrpsi34q0jpvodsFnzolpsGwv7s"><rect width="500" height="500"/></clipPath></defs><g clip-path="url(#_clipPath_llY8xUrpsi34q0jpvodsFnzolpsGwv7s)"><mask id="_mask_ADNDLEgg5o5MebSLaTzBAdtIi4qBfluF"><ellipse vector-effect="non-scaling-stroke" cx="262" cy="240.5" rx="195" ry="198.49999999999994" fill="white" stroke="none"/></mask><ellipse vector-effect="non-scaling-stroke" cx="262" cy="240.5" rx="195" ry="198.49999999999994" fill="rgb(79,136,198)"/><ellipse vector-effect="non-scaling-stroke" cx="262" cy="240.5" rx="195" ry="198.49999999999994" fill="rgb(79,136,198)" mask="url(#_mask_ADNDLEgg5o5MebSLaTzBAdtIi4qBfluF)" stroke-width="18" stroke="none" stroke-linejoin="miter" stroke-linecap="square" stroke-miterlimit="3"/><path d=" M 123 201.75 Q 97.125 196.5 109.5 202.125 C 121.875 207.75 126.375 205.875 114.75 213.375 C 103.125 220.875 85.5 214.5 91.125 229.875 C 96.75 245.25 94.125 239.625 105 234.75 C 115.875 229.875 124.875 227.625 119.25 238.875 C 113.625 250.125 120.75 253.125 112.5 255.375 C 104.25 257.625 107.25 268.125 109.5 271.875 C 111.75 275.625 104.25 270 120.75 277.875 C 137.25 285.75 134.625 284.25 146.625 285.375 C 158.625 286.5 162.75 276.375 168.375 289.5 C 174 302.625 172.875 311.625 195.75 300.375 C 218.625 289.125 215.25 304.875 243.375 303.375 C 271.5 301.875 285.75 333.375 285.375 305.625 C 285 277.875 282.75 281.625 274.125 247.125 C 265.5 212.625 259.875 197.25 241.5 184.5 C 223.125 171.75 183.75 166.875 156 173.25 Q 128.25 179.625 123 201.75 Z " fill="rgb(164,195,99)"/><path d=" M 310.5 260.75 Q 311.25 264 316.25 270.25 C 321.25 276.5 327.5 283 319.25 278 C 311 273 316.5 275.5 319.25 284 C 322 292.5 319 284 317.25 290.75 C 315.5 297.5 316.25 297.25 311.75 302 C 307.25 306.75 311 299 309.5 291 C 308 283 310.5 287.25 304.75 282.5 C 299 277.75 297.5 272.25 290 270 C 282.5 267.75 277.25 253.75 273 262.75 C 268.75 271.75 266.25 263 263.5 270 C 260.75 277 254.75 277.5 259.75 277.5 C 264.75 277.5 262.5 275.5 263.75 282 C 265 288.5 255 288.75 262.25 291.25 C 269.5 293.75 265.75 292.5 263.25 295.75 C 260.75 299 263 290.75 249.5 297.5 C 236 304.25 241 296.75 228.5 292.75 C 216 288.75 218 292.75 214 286.25 C 210 279.75 204.25 275.5 196.5 281.5 C 188.75 287.5 193.25 285.25 182.75 289 C 172.25 292.75 169.25 299.5 160 294.75 C 150.75 290 150 289 145.5 294.25 C 141 299.5 144.75 296.5 136.75 298.25 C 128.75 300 120.25 304.5 118.75 300.75 C 117.25 297 107.5 303.75 108.75 313.25 C 110 322.75 99.25 322.75 109 329.25 C 118.75 335.75 131.75 348.75 144.5 340.75 C 157.25 332.75 164.5 334.75 171.25 346.75 C 178 358.75 149.25 358.75 182.25 366.5 C 215.25 374.25 237.5 380.5 250.25 388.75 C 263 397 307.75 398.75 299.25 391.25 C 290.75 383.75 288.5 389.5 292.75 382.75 C 297 376 321.25 377.75 324.25 377.25 C 327.25 376.75 333 415.75 361.5 395.5 C 390 375.25 390.5 373.25 392.75 365.5 C 395 357.75 405 370 390.5 347.75 C 376 325.5 398.75 320.5 408.5 304.75 C 418.25 289 419 300.25 417.75 291.75 C 416.5 283.25 424 273.25 407.5 263 C 391 252.75 401 243.25 380.25 234 C 359.5 224.75 339 216.25 315 228.75 Q 291 241.25 310.5 260.75 Z " fill="rgb(143,146,92)"/><path d=" M 125 160.875 Q 126.25 160.25 126.875 158.25 C 127.5 156.25 131 153.25 128 152.875 C 125 152.5 126 153.25 123.125 151.125 C 120.25 149 121.625 154.125 117.125 153.625 C 112.625 153.125 111.875 153.625 109.625 156.875 C 107.375 160.125 107.625 166 103.375 165.5 C 99.125 165 99.5 172.75 94 172.25 C 88.5 171.75 89.75 172.375 87.375 175 C 85 177.625 85.5 173.125 82 175.625 C 78.781 177.924 78.635 171.66 78.75 171.375 C 81.125 165.5 88.5 149.797 91.125 145.547 C 93.75 141.297 100.547 127.266 103.5 123.469 C 108.988 116.413 132.625 90.375 138.625 86.625 C 144.625 82.875 145.25 79.875 147.25 82.875 C 149.25 85.875 148.25 87.625 147.375 90.25 C 146.5 92.875 144.375 94.75 148 95.5 C 151.625 96.25 151.125 96.75 148.75 97.875 C 146.375 99 148.375 98.5 149.75 99.5 C 151.125 100.5 151.625 99 152.5 100.875 C 153.375 102.75 156.25 99.25 158.375 101.25 C 160.5 103.25 171.125 93.375 173.75 94 C 176.375 94.625 183.5 87 185.875 90 C 188.25 93 194.875 89.25 188.75 94.25 C 182.625 99.25 187.125 97.125 183.375 100.375 C 179.625 103.625 182.5 118.75 172.25 114.5 C 162 110.25 159.75 117 156.75 123.625 C 153.75 130.25 161.875 126.75 161.625 134.625 C 161.375 142.5 156.375 138.875 162 143.5 Q 167.625 148.125 171.25 155 L 160.125 171 L 128.25 175.125 L 125 160.875 Z " fill="rgb(160,187,94)"/><path d=" M 201.516 107.578 Q 204.609 106.453 205.734 106.734 C 206.859 107.016 206.859 105.328 208.406 105.609 C 209.953 105.891 207.984 108.844 209.531 108.703 C 211.078 108.563 210.516 106.734 211.641 106.453 C 212.766 106.172 213.75 104.203 213.75 106.172 C 213.75 108.141 211.078 108.703 212.625 109.406 C 214.172 110.109 215.156 111.234 216.563 110.672 C 217.969 110.109 216.984 108.141 219.656 108.984 C 222.328 109.828 222.609 109.547 224.297 110.813 C 225.984 112.078 223.031 108.563 224.297 108 C 225.563 107.438 229.219 105.047 231.328 104.203 C 233.438 103.359 233.016 102.094 234.703 103.078 C 236.391 104.063 240.891 100.406 243.281 100.125 C 245.672 99.844 242.438 97.453 243.703 95.484 C 244.969 93.516 246.516 85.219 250.172 83.109 C 253.828 81 255.656 76.359 260.578 75.234 C 265.5 74.109 261.141 71.719 267.047 70.734 C 272.953 69.75 279.563 72.563 281.672 68.344 C 283.781 64.125 285.328 67.5 290.391 66.516 C 295.453 65.531 297.281 64.969 298.969 66.797 C 300.656 68.625 297.984 69.047 300.375 68.484 C 302.766 67.922 304.594 67.641 307.688 66.656 C 310.781 65.672 311.063 65.531 313.875 66.516 C 316.688 67.5 319.219 69.117 321.188 69.609 C 323.156 70.102 327.164 72 328.641 71.648 C 330.117 71.297 333.773 70.875 335.109 72.07 C 336.445 73.266 339.469 71.93 340.734 72.984 C 342 74.039 341.227 72.984 342.703 74.32 C 344.18 75.656 345.305 76.781 344.953 75.727 C 344.602 74.672 344.039 74.039 345.023 74.742 C 346.008 75.445 346.078 76.219 346.641 75.656 C 347.203 75.094 346.711 73.688 347.484 74.391 C 348.258 75.094 350.367 74.109 350.367 75.164 C 350.367 76.219 351.07 77.484 352.617 77.625 C 354.164 77.766 357.117 78.328 357.609 78.82 C 358.102 79.313 360.352 79.102 361.125 80.297 C 361.898 81.492 366.75 84.516 367.242 85.078 C 367.734 85.641 369.141 85.5 368.578 86.766 C 368.016 88.031 367.875 88.523 366.891 87.961 C 365.906 87.398 366.82 86.766 364.852 85.711 C 362.883 84.656 363.305 84.305 361.477 82.969 C 359.648 81.633 359.086 81 356.766 80.367 C 354.445 79.734 352.547 79.031 350.508 78.75 C 348.469 78.469 347.766 78.328 347.344 77.484 C 346.922 76.641 346.43 78.188 344.109 77.484 C 341.789 76.781 339.891 76.711 339.047 77.133 C 338.203 77.555 335.672 77.555 337.57 78.117 C 339.469 78.68 342 76.922 343.055 78.328 C 344.109 79.734 344.18 78.891 346.781 80.859 C 349.383 82.828 349.734 84.234 352.617 84.586 C 355.5 84.938 356.555 84.445 358.664 85.852 C 360.773 87.258 362.25 87.609 363.094 88.875 C 363.938 90.141 366.539 91.547 367.453 92.953 C 368.367 94.359 369.141 96.117 369.703 98.438 C 370.266 100.758 372.938 106.172 372.305 108.07 C 371.672 109.969 370.617 109.828 372.023 110.602 C 373.43 111.375 369.563 111.867 370.477 112.992 C 371.391 114.117 371.039 115.242 371.953 116.156 C 372.867 117.07 374.063 117.07 373.711 118.688 C 373.359 120.305 371.32 117.844 372.305 119.461 C 373.289 121.078 373.711 121.219 374.695 122.063 C 375.68 122.906 376.172 122.063 377.859 123.398 C 379.547 124.734 379.617 125.789 380.813 125.578 C 382.008 125.367 381.375 125.648 382.711 125.648 C 384.047 125.648 383.766 124.875 385.383 126.633 C 387 128.391 387.141 128.18 387.352 126.984 C 387.563 125.789 386.93 121.711 388.758 123.539 C 390.586 125.367 390.023 124.242 391.781 126.633 C 393.539 129.023 393.469 129.305 391.5 133.172 C 389.531 137.039 391.008 138.656 389.531 137.883 C 388.055 137.109 388.125 135.211 387.352 136.688 C 386.578 138.164 385.453 136.617 386.789 138.586 C 388.125 140.555 388.898 138.797 389.109 140.063 C 389.32 141.328 388.969 139.57 388.336 142.031 C 387.703 144.492 388.195 142.523 388.828 144.633 C 389.461 146.742 391.5 145.055 390.938 146.602 C 390.375 148.148 388.828 146.32 386.789 145.477 C 384.75 144.633 383.273 143.578 382.008 143.367 C 380.742 143.156 382.711 142.734 378.352 141.188 C 373.992 139.641 370.898 141.961 372.094 142.313 C 373.289 142.664 374.766 144.07 375.469 143.578 C 376.172 143.086 373.43 143.438 371.813 143.578 C 370.195 143.719 368.227 142.945 367.313 142.172 C 366.398 141.398 372.023 135 369.773 135.352 C 367.523 135.703 367.313 134.859 364.078 135.281 C 360.844 135.703 361.266 138.445 346.711 135 C 332.156 131.555 326.953 133.734 318.938 129.656 C 310.922 125.578 318.094 128.813 316.547 126 C 315 123.188 318.938 125.016 315.844 121.219 C 312.75 117.422 311.906 116.719 308.531 117.844 C 305.156 118.969 305.719 120.234 304.453 118.969 C 303.188 117.703 305.438 118.688 301.219 117.281 C 297 115.875 296.859 116.438 295.734 114.328 C 294.609 112.219 285.75 112.359 285.188 114.328 C 284.625 116.297 283.641 116.016 285.047 115.875 C 286.453 115.734 288.844 114.75 287.578 116.438 C 286.313 118.125 283.641 117.281 284.766 117.984 Q 288.422 120.094 285.75 119.813 C 283.078 119.531 284.484 119.25 282.656 119.953 C 280.828 120.656 284.063 119.531 280.125 121.5 C 276.188 123.469 273.797 126.844 272.391 125.016 C 270.984 123.188 271.828 123.891 269.859 124.172 C 267.891 124.453 268.031 124.031 266.484 123.047 C 264.938 122.063 266.906 119.813 264.656 122.063 C 262.406 124.313 264.797 126.141 261.281 125.578 C 257.766 125.016 255.516 124.594 257.203 126.141 C 258.891 127.688 260.578 131.203 258.047 129.375 C 255.516 127.547 255.516 128.953 254.109 126.984 C 252.703 125.016 252.141 124.313 247.359 124.172 C 242.578 124.031 247.641 129.375 241.734 130.781 C 235.828 132.188 234.422 133.594 229.078 135.984 C 223.734 138.375 215.297 148.359 208.547 145.547 C 201.797 142.734 211.359 142.453 208.406 142.313 C 205.453 142.172 200.813 144.422 198.422 142.875 C 196.031 141.328 185.906 141.188 190.828 133.734 C 195.75 126.281 195.188 108.844 198.281 108 Q 201.375 107.156 201.516 107.578 Z " fill="rgb(164,195,99)"/><path d=" M 159.75 148 Q 160.875 146.875 161.625 148.875 C 162.375 150.875 164.625 149 163.625 152.25 C 162.625 155.5 165 155 162.5 155 C 160 155 162.125 155.75 160.375 157.5 C 158.625 159.25 161.5 160.25 158.5 160.25 C 155.5 160.25 156.75 159.625 155.125 159.375 C 153.5 159.125 154.25 158.625 152.625 160.375 C 151 162.125 148.625 165 146.75 163.625 C 144.875 162.25 139.125 163 136.625 164.625 C 134.125 166.25 133.75 167.375 133.125 165.875 C 132.5 164.375 133.75 163.375 130.5 163 C 127.25 162.625 129 161 125.375 161.25 C 121.75 161.5 120.25 164.125 119 161.5 C 117.75 158.875 119.875 158.25 118 158.625 C 116.125 159 113.75 158 113 162 C 112.25 166 112.875 163.5 115.875 164 C 118.875 164.5 120.5 162.375 121.125 164.125 C 121.75 165.875 118.875 167.875 118.125 168.5 C 117.375 169.125 115.625 172.625 113.375 173.75 C 111.125 174.875 109.375 174.5 108.875 178.5 C 108.375 182.5 107 188.5 109.125 186.25 C 111.25 184 110.625 181.125 112.25 180.75 C 113.875 180.375 115.125 180.625 115 182.375 C 114.875 184.125 115.875 184.375 115.5 185.625 C 115.125 186.875 118.75 187.875 115.375 188.75 C 112 189.625 112.5 185.75 109.25 190.75 C 106 195.75 106.5 196.625 107.375 199.5 C 108.25 202.375 107.125 201.875 110.375 202.75 C 113.625 203.625 109.5 205.5 112 206.875 C 114.5 208.25 122.25 205.875 123.125 207 C 124 208.125 125.375 206.5 125.625 208.75 C 125.875 211 125.5 212.25 127 212.75 C 128.5 213.25 127.25 210.625 128.25 209.375 C 129.25 208.125 127.375 207.375 129.25 207 C 131.125 206.625 129.25 202 131.875 202.625 C 134.5 203.25 135.25 204.25 138.375 204.875 C 141.5 205.5 139.75 203.125 140.875 203.75 C 142 204.375 141.875 204 142.625 205 C 143.375 206 143.75 208.125 144.75 206.25 C 145.75 204.375 144.625 204 146 203.5 C 147.375 203 145.875 199.625 148.25 199.875 C 150.625 200.125 147.625 199.375 148.875 201.5 C 150.125 203.625 149.125 204.875 150.5 204.5 C 151.875 204.125 158.875 201 160.375 201.75 C 161.875 202.5 163.5 201.75 164.375 203.5 C 165.25 205.25 162 203.375 163.125 205.5 C 164.25 207.625 163 209.125 168.75 208.75 C 174.5 208.375 180.75 209.25 183.5 209.75 C 186.25 210.25 195.875 213 195.875 211.25 C 195.875 209.5 191.75 207.125 192.375 204.75 C 193 202.375 191.875 200.25 195.125 201.125 C 198.375 202 200.25 200.375 200.25 197.875 C 200.25 195.375 194.5 191.875 203.5 192.625 C 212.5 193.375 214.375 192.125 216.125 194.25 C 217.875 196.375 222 196.25 223.375 200.25 C 224.75 204.25 223.625 203.625 227.375 203.625 C 231.125 203.625 232.375 200.375 236.875 202.375 C 241.375 204.375 247.75 202.5 248.875 200 C 250 197.5 252.75 198.75 253.625 196.625 C 254.5 194.5 253.25 191.75 254.25 188.625 C 255.25 185.5 255.5 184.75 252.125 181 C 248.75 177.25 245.875 170.875 242.5 168 C 239.125 165.125 245.375 166.75 242.75 161.875 C 240.125 157 240 154 233.75 152.625 C 227.5 151.25 228.125 153.875 226.125 153 C 224.125 152.125 224.125 149.875 221.75 151.375 C 219.375 152.875 222.625 150.125 217.375 152 C 212.125 153.875 207.25 155.75 206.875 152.5 C 206.5 149.25 206.5 151.75 208.125 150 C 209.75 148.25 211.625 146.625 207.875 147.625 C 204.125 148.625 203 146.875 204.125 149.625 C 205.25 152.375 206.25 152.5 205 152.5 C 203.75 152.5 202 152.375 202.375 151.25 C 202.75 150.125 204.125 149 202.875 149.25 C 201.625 149.5 200.875 151.75 199.875 150.75 C 198.875 149.75 196.5 152 197.25 151 C 198 150 199.875 149.875 200.875 148.25 C 201.875 146.625 200.5 146.75 198.25 147.75 C 196 148.75 197.25 150.875 193.25 149.875 C 189.25 148.875 190.375 149.875 187.5 149.75 C 184.625 149.625 179.25 151.375 177.75 149.75 C 176.25 148.125 175 150.375 173.25 147.75 C 171.5 145.125 169.875 145.125 171.125 144.25 C 172.375 143.375 174.5 143.875 173.625 142.75 C 172.75 141.625 172.125 141.5 171.375 140.75 C 170.625 140 167.625 139 168.125 140.25 C 168.625 141.5 169.25 143.5 168.125 142.75 Q 166.75 143.25 165 142.75 C 163.25 142.25 162.75 138.25 160.625 139 C 158.5 139.75 157.5 141.25 157 143 C 156.5 144.75 156.375 145.875 158 146.875 Q 159.625 147.875 159.75 148 Z " fill="rgb(156,142,80)"/><path d=" M 209.988 89.93 Q 211.711 90.316 211.676 91.125 C 211.641 91.934 212.801 93.586 213.574 93.48 C 214.348 93.375 215.895 93.691 216.773 95.063 C 217.652 96.434 219.902 97.559 220.641 98.262 C 221.379 98.965 222.609 101.25 223.5 101.109 C 224.391 100.969 226.781 101.25 227.25 101.719 C 227.719 102.188 229.594 101.063 230.531 101.813 C 231.469 102.563 230.016 102.422 229.781 103.125 C 229.547 103.828 229.313 104.063 230.953 103.828 C 232.594 103.594 232.031 103.5 233.203 103.5 C 234.375 103.5 235.031 103.359 236.109 103.875 C 237.188 104.391 238.078 104.766 239.063 104.578 C 240.047 104.391 240.984 104.484 241.828 104.25 C 242.672 104.016 245.438 99.609 245.25 98.438 C 245.063 97.266 244.688 94.875 242.859 95.578 C 241.031 96.281 239.25 96.844 238.219 96.188 C 237.188 95.531 235.688 96.422 236.109 95.297 C 236.531 94.172 236.016 93.469 237.422 93.703 C 238.828 93.938 240.844 93.938 242.109 93.188 C 243.375 92.438 242.625 92.016 244.359 92.719 C 246.094 93.422 245.859 93.656 246.797 92.813 C 247.734 91.969 254.391 88.078 252.984 87.281 C 251.578 86.484 249.844 87.844 249.047 87.609 C 248.25 87.375 248.344 87.375 247.781 87.141 C 247.219 86.906 247.031 86.953 246 87.75 C 244.969 88.547 245.578 87.797 244.219 87.984 C 242.859 88.172 243.094 87.797 242.813 88.781 C 242.531 89.766 239.25 89.953 238.406 89.578 C 237.563 89.203 237.469 88.406 235.734 88.734 C 234 89.063 232.406 89.625 229.172 90.094 C 225.938 90.563 223.875 91.406 224.438 91.922 C 225 92.438 227.109 92.484 225.984 92.813 C 224.859 93.141 224.578 92.484 223.031 92.438 C 221.484 92.391 220.125 92.672 220.547 92.953 C 220.969 93.234 220.219 93.516 219.75 93.188 C 219.281 92.859 219.328 93.188 218.719 93 C 218.109 92.813 219.75 92.25 218.813 91.172 C 217.875 90.094 216.234 90.375 216.469 89.109 C 216.703 87.844 216.375 88.359 214.594 87.563 Q 212.813 86.766 211.828 86.859 L 209.988 89.93 Z " fill="rgb(130,161,77)"/><path d=" M 196 89 Q 196.813 89.156 196 90 C 195.188 90.844 194.602 90.102 195 91 C 195.398 91.898 196.391 91.469 196 92 C 195.609 92.531 195.133 94.656 194 95 C 192.867 95.344 189.633 97.672 189 97 C 188.367 96.328 188.477 96.195 188 97 C 187.523 97.805 187.883 96.93 187 98 C 186.117 99.07 185.078 99.773 185 99 C 184.922 98.227 183.328 98.156 183 99 C 182.672 99.844 183.367 99.664 182 100 C 180.633 100.336 180.773 99.695 180 101 C 179.227 102.305 178.008 106.359 177 105 C 175.992 103.641 175.102 104.391 174 105 C 172.898 105.609 172.367 106.008 172 105 C 171.633 103.992 170.789 103.375 171 104 C 171.211 104.625 170.094 104.57 169 104 C 167.906 103.43 165.398 104.039 165 105 C 164.602 105.961 162.805 105.055 163 106 C 163.195 106.945 162.422 108.422 162 108 Q 163.789 108.063 163 110 C 162.211 111.938 161.758 109.359 161 111 C 160.242 112.641 157.344 111.844 157 114 C 156.656 116.156 149.391 119.234 150 121 C 150.609 122.766 151.008 124.32 150 124 Q 148.992 123.68 148 125 Q 147.711 125.469 148 127 C 148.289 128.531 145.813 130.977 148 130 C 150.188 129.023 150.094 128.453 150 128 C 149.906 127.547 151.773 126.102 152 127 C 152.227 127.898 152.547 127.852 152 129 C 151.453 130.148 150.297 131.148 152 131 C 153.703 130.852 154.891 130.375 155 131 C 155.109 131.625 153.773 131.281 153 133 C 152.227 134.719 152.719 133.734 153 135 C 153.281 136.266 153.281 135.563 153 136 C 152.719 136.438 152.875 136.75 153 137 C 153.125 137.25 153.344 137.938 154 138 C 154.656 138.063 154.656 138.719 154 139 C 153.344 139.281 153.094 139.375 153 140 C 152.906 140.625 153.469 141.75 153 142 C 152.531 142.25 151.594 143.313 152 144 C 152.406 144.688 150.281 148.125 152 148 C 153.719 147.875 156 148.469 158 149 C 160 149.531 160.5 149.656 160 148 C 159.5 146.344 156.844 144.031 158 143 C 159.156 141.969 159.438 141.656 161 141 C 162.563 140.344 166.625 139.75 168 140 C 169.375 140.25 171.5 140.438 172 141 C 172.5 141.563 172.156 138.906 173 138 C 173.844 137.094 173.125 136.125 174 136 C 174.875 135.875 174.75 135.625 176 137 C 177.25 138.375 176.75 139.156 178 139 C 179.25 138.844 178.156 141.156 180 141 C 181.844 140.844 182.125 142.438 184 142 C 185.875 141.563 184.438 139.969 187 140 C 189.563 140.031 187.813 140.313 189 141 C 190.188 141.688 190.344 142.75 191 142 C 191.656 141.25 191.281 140.719 192 142 C 192.719 143.281 195.281 143.031 195 144 C 194.719 144.969 196.75 145.344 197 145 C 197.25 144.656 197.906 143 199.219 142.656 C 200.531 142.313 201.781 141.375 202.063 139.75 C 202.344 138.125 202 136.344 200.563 137.313 C 199.125 138.281 199.625 140.031 198.5 139.844 C 197.375 139.656 194.219 139.094 193.656 137.844 C 193.094 136.594 193.656 135.375 194.875 133.719 C 196.094 132.063 197.906 132.781 197.594 130.844 C 197.281 128.906 198.688 129.5 199.813 129.063 C 200.938 128.625 204.094 127.75 205.156 125.875 C 206.219 124 206.906 124.969 206.5 124 C 206.094 123.031 205.219 120.344 205.625 119.656 C 206.031 118.969 206.875 120.281 206.906 118.281 C 206.938 116.281 206.313 116.031 204.906 114.469 C 203.5 112.906 201.938 106.281 201.031 106.75 C 200.125 107.219 202.008 105.398 203.039 105.352 C 204.07 105.305 205.711 104.578 206.508 104.203 C 207.305 103.828 207.984 104.578 208.195 103.992 C 208.406 103.406 209.508 98.813 209.977 97.828 C 210.445 96.844 210.914 96.633 210.281 96.258 C 209.648 95.883 206.602 95.273 206.813 94.43 C 207.023 93.586 207.773 91.852 207.492 90.68 C 207.211 89.508 198.984 88.172 197.297 88.453 Q 195.609 88.734 196 89 Z " fill="rgb(128,142,68)"/><path d=" M 196.137 89.086 Q 195.926 90.281 195.047 89.684 C 194.168 89.086 192.973 88.383 192.797 87.855 C 192.621 87.328 190.371 87.75 190.23 87.082 C 190.09 86.414 191.461 86.203 191.426 85.535 C 191.391 84.867 192.973 84.938 193.5 84.059 C 194.027 83.18 195.539 82.336 196.418 82.863 C 197.297 83.391 196.664 84.902 197.402 84.023 C 198.141 83.145 200.039 82.195 200.496 82.688 C 200.953 83.18 201.27 83.637 201.902 83.215 C 202.535 82.793 204.504 81.211 204.82 81.984 C 205.137 82.758 206.543 82.441 207.141 82.055 C 207.738 81.668 209.004 80.93 209.707 81.457 C 210.41 81.984 211.324 81.879 212.133 82.09 C 212.941 82.301 211.957 79.98 213.152 80.648 C 214.348 81.316 214.805 81.633 215.367 80.613 C 215.93 79.594 217.336 78.891 217.652 79.523 C 217.969 80.156 220.254 78.609 219.691 79.629 C 219.129 80.648 214.348 82.547 214.77 83.531 C 215.191 84.516 214.699 83.32 213.996 85.148 C 213.293 86.977 213.152 87.117 211.852 88.559 Q 210.551 90 207.527 90.773 L 196.137 89.086 Z " fill="rgb(109,102,56)"/><path d=" M 210.406 96.844 Q 211.813 97.438 212.281 97.156 C 212.75 96.875 213.219 96.188 214 96.375 C 214.781 96.563 216.031 94.469 216.594 94.938 C 217.156 95.406 219.063 96.469 219.313 97 C 219.563 97.531 218.281 98.188 218.906 98.406 C 219.531 98.625 220.594 98 220.969 98.563 C 221.344 99.125 223.031 99.719 223.188 100.375 C 223.344 101.031 223.594 101.125 222.813 101.469 C 222.031 101.813 221.063 102 221.813 102.094 C 222.563 102.188 223.375 101.563 223.281 102.188 C 223.188 102.813 221.531 102.875 221.781 103.281 C 222.031 103.688 222.688 103.313 222.188 103.938 C 221.688 104.563 222.625 104.75 221.844 104.906 C 221.063 105.063 220.438 104.125 220.094 104.625 C 219.75 105.125 220.438 106 220 106.156 C 219.563 106.313 218.344 106.25 219.125 106.625 C 219.906 107 223.188 107.25 223.563 107.563 C 223.938 107.875 224.25 111.5 223.563 111.406 C 222.875 111.313 222.094 111.906 221.344 111.688 C 220.594 111.469 220.469 110.625 219.719 110.375 C 218.969 110.125 217.594 110.125 217.375 109.719 C 217.156 109.313 215.375 110.094 215.469 108.875 C 215.563 107.656 216.656 107.031 215.625 107.313 C 214.594 107.594 213.156 107.563 212.906 106.813 C 212.656 106.063 211.25 106 210.313 106.375 C 209.375 106.75 208.719 105.875 208.531 105 C 208.344 104.125 207.156 103.313 207.625 102.094 C 208.094 100.875 208.938 96.688 209.406 96.625 Q 209.875 96.563 210.406 96.844 Z " fill="rgb(59,55,29)"/><path d=" M 218.953 92.496 Q 221.484 92.18 221.695 91.758 C 221.906 91.336 221.273 91.125 221.801 90.949 C 222.328 90.773 224.016 90.527 224.121 89.789 C 224.227 89.051 225.668 87.328 226.617 87.785 C 227.566 88.242 228.938 88.031 229.57 88.77 C 230.203 89.508 230.344 90.141 230.977 90 C 231.609 89.859 236.566 89.156 236.355 88.664 C 236.145 88.172 236.496 88.137 237.551 87.996 C 238.605 87.855 239.695 88.348 240.398 88.066 C 241.102 87.785 242.438 87.152 243.492 86.801 C 244.547 86.449 245.391 86.133 246.059 86.766 C 246.727 87.398 248.801 87.258 248.73 86.695 C 248.66 86.133 249.398 85.043 250.277 83.777 C 251.156 82.512 255.129 81.281 255.621 80.754 C 256.113 80.227 260.262 79.594 260.086 79.102 C 259.91 78.609 257.66 78.293 257.59 77.238 C 257.52 76.184 258.047 76.289 257.238 76.113 C 256.43 75.938 254.883 76.746 254.496 75.902 C 254.109 75.059 254.566 74.637 253.547 74.531 C 252.527 74.426 251.965 75.059 251.895 74.32 C 251.824 73.582 252.703 74.566 252.598 73.723 C 252.492 72.879 251.262 73.371 251.121 72.879 C 250.98 72.387 250.77 72.422 251.648 72.176 C 252.527 71.93 254.566 71.262 256.184 71.156 C 257.801 71.051 258.715 71.402 259.875 70.699 C 261.035 69.996 257.414 69.047 256.043 68.063 C 254.672 67.078 252.703 66.129 250.172 65.25 C 247.641 64.371 250.313 64.301 251.367 64.617 C 252.422 64.934 254.004 63.422 255.164 64.723 C 256.324 66.023 257.73 66.164 258.855 65.672 C 259.98 65.18 261.844 65.215 261.844 64.266 C 261.844 63.316 258.258 62.93 257.871 61.664 C 257.484 60.398 255.902 59.801 253.301 59.73 C 250.699 59.66 249.258 60.574 248.273 58.852 C 247.289 57.129 244.195 57.691 241.805 56.918 C 239.414 56.145 241.137 55.617 240.258 56.145 C 239.379 56.672 238.641 57.199 238.395 56.355 C 238.148 55.512 237.691 55.582 238.113 55.371 Q 238.535 55.16 239.52 55.23 Q 240.891 54.809 240.012 54.176 C 239.133 53.543 238.641 54.457 237.938 53.895 C 237.234 53.332 236.18 53.684 235.863 53.332 C 235.547 52.98 234.773 53.086 235.125 53.473 C 235.477 53.859 236.18 54.281 235.652 54.316 C 235.125 54.352 234.563 54 234.492 53.719 C 234.422 53.438 232.98 53.121 233.859 52.84 C 234.738 52.559 234.246 51.398 235.336 51.996 C 236.426 52.594 236.285 50.73 234.949 50.801 C 233.613 50.871 232.629 50.906 231.926 51.328 C 231.223 51.75 229.605 53.051 229.184 53.367 C 228.762 53.684 228.129 54.246 227.32 54.316 Q 226.512 54.387 226.195 54.492 Q 226.301 54.07 225.141 54.246 C 223.98 54.422 223.418 53.754 223.945 54.457 C 224.473 55.16 224.402 55.406 223.523 55.406 C 222.645 55.406 220.781 55.125 220.078 55.512 C 219.375 55.898 218.145 56.637 216.844 56.461 C 215.543 56.285 215.227 55.758 214.98 56.32 C 214.734 56.883 214.91 56.637 214.383 56.953 C 213.855 57.27 213.363 57.48 213.961 57.762 C 214.559 58.043 215.156 57.34 214.805 58.184 C 214.453 59.027 214.84 58.711 214.172 58.922 C 213.504 59.133 212.484 58.57 212.063 59.027 C 211.641 59.484 210.445 59.484 210.691 59.906 C 210.938 60.328 211.641 60.328 210.902 60.645 C 210.164 60.961 207.984 61.418 208.758 61.84 C 209.531 62.262 210.48 62.016 211.324 61.77 C 212.168 61.523 211.992 61.699 213.223 61.805 C 214.453 61.91 215.191 61.699 216.598 62.051 C 218.004 62.402 218.742 61.488 218.918 62.473 C 219.094 63.457 218.953 63.492 218.777 64.02 C 218.602 64.547 223.277 64.266 223.664 64.828 C 224.051 65.391 224.613 65.637 223.699 65.566 C 222.785 65.496 220.676 65.18 219.938 65.531 C 219.199 65.883 219.516 66.41 218.742 66.164 C 217.969 65.918 217.793 65.25 217.055 65.461 C 216.316 65.672 214.207 65.391 213.82 66.164 C 213.434 66.938 214.102 67.043 213.434 66.938 C 212.766 66.832 210.867 67.711 210.445 67.5 C 210.023 67.289 210.164 67.289 209.355 67.465 C 208.547 67.641 209.004 68.133 208.336 67.816 C 207.668 67.5 208.371 67.641 206.895 67.957 C 205.418 68.273 204.68 68.871 203.695 68.801 C 202.711 68.73 201.41 68.379 200.777 68.977 C 200.145 69.574 199.723 69.891 200.145 69.961 C 200.566 70.031 201.656 69.188 202.113 69.645 C 202.57 70.102 202.148 69.82 201.48 70.629 C 200.813 71.438 198.633 70.945 197.93 72.246 C 197.227 73.547 196.137 73.09 196.348 73.793 C 196.559 74.496 198.07 74.004 199.406 73.441 C 200.742 72.879 202.148 71.895 202.922 72.07 C 203.695 72.246 203.59 71.824 203.871 72.422 C 204.152 73.02 203.836 74.637 204.469 73.863 C 205.102 73.09 204.891 72.668 205.523 72.633 C 206.156 72.598 206.613 71.578 206.859 72.352 C 207.105 73.125 206.824 72.879 206.754 73.301 C 206.684 73.723 206.93 73.266 207.773 73.758 C 208.617 74.25 207.563 74.32 208.09 74.883 C 208.617 75.445 208.652 75.023 209.566 75.691 C 210.48 76.359 210.305 76.816 211.289 76.359 C 212.273 75.902 212.414 74.672 213.082 74.953 C 213.75 75.234 214.277 74.145 214.875 74.742 C 215.473 75.34 217.441 74.813 217.793 75.762 C 218.145 76.711 218.566 76.57 219.34 77.344 C 220.113 78.117 221.66 78.398 222.328 79.172 C 222.996 79.945 223.207 79.348 223.348 80.402 C 223.488 81.457 224.543 82.371 223.805 82.406 C 223.066 82.441 222.891 82.969 221.766 82.582 C 220.641 82.195 221.52 82.441 220.57 81.633 C 219.621 80.824 219.832 80.578 219.199 80.508 C 218.566 80.438 218.848 80.016 217.582 80.508 C 216.316 81 214.031 81.633 213.785 83.004 C 213.539 84.375 210.797 85.184 211.781 87.188 C 212.766 89.191 214.207 89.859 216.07 91.336 Q 217.934 92.813 218.953 92.496 Z " fill="rgb(189,191,140)"/><path d=" M 253.406 193.781 Q 252 186.328 255.234 185.203 C 258.469 184.078 257.766 186.609 259.313 182.531 C 260.859 178.453 256.359 175.078 258.328 172.547 C 260.297 170.016 264.625 168.75 269.375 168 C 274.125 167.25 271.625 167.375 276.75 163.375 C 281.875 159.375 283.125 158.25 286.625 159.75 C 290.125 161.25 290.75 161.25 292.375 157.5 C 294 153.75 302.375 153.125 302 151 C 301.625 148.875 302.125 147.125 303.625 147.75 C 305.125 148.375 306.5 146.625 306.625 147.875 C 306.75 149.125 305 149.5 307 149.25 C 309 149 307.625 149.75 309.5 148.875 C 311.375 148 309.25 146.25 312.5 147.625 C 315.75 149 317.25 146.875 319.125 149.375 C 321 151.875 320.375 150.25 323.75 151.25 C 327.125 152.25 330.875 151.625 329.875 149.875 C 328.875 148.125 328.875 148.375 329.625 147 C 330.375 145.625 330.625 142.75 332.5 144 C 334.375 145.25 334.375 145.5 338.5 145.25 C 342.625 145 342.25 146.875 342.875 144.125 C 343.5 141.375 345.375 140.125 347.75 140.625 C 350.125 141.125 350.25 139 354.25 140.625 C 358.25 142.25 356 145.5 360 142.875 C 364 140.25 361.5 140.5 364.625 139.75 C 367.75 139 370.875 138.5 374.75 139.375 C 378.625 140.25 385.375 139.25 386.125 142.125 C 386.875 145 386.375 143.125 386.5 146.125 C 386.625 149.125 384.625 150.625 388 151.375 C 391.375 152.125 395.859 152.719 397.547 154.547 C 399.234 156.375 402.047 160.172 405.141 160.172 C 408.234 160.172 409.289 161.648 410.695 163.688 C 412.102 165.727 414.703 164.672 413.086 166.781 C 411.469 168.891 410.836 166.641 407.18 167.203 C 403.523 167.766 402.961 167.555 403.102 169.875 C 403.242 172.195 402.961 175.289 401.695 172.195 C 400.43 169.102 400.641 166.781 397.617 166.148 C 394.594 165.516 394.242 166.289 392.906 168.469 C 391.57 170.648 395.578 174.797 392.063 171.844 C 388.547 168.891 390.023 168.258 386.086 165.586 C 382.148 162.914 382.289 158.977 378.703 160.172 C 375.117 161.367 376.664 159.047 376.453 161.086 C 376.242 163.125 375.891 156.938 373.781 161.578 C 371.672 166.219 374.625 164.391 373.219 165.867 C 371.813 167.344 372.656 166.781 370.828 168.469 C 369 170.156 371.18 173.531 367.523 170.578 C 363.867 167.625 365.906 173.602 363.656 170.508 C 361.406 167.414 360 169.383 360.914 173.039 C 361.828 176.695 360.422 178.734 362.602 179.648 C 364.781 180.563 369.844 181.266 371.813 181.336 C 373.781 181.406 371.953 179.719 375.258 182.039 C 378.563 184.359 378.281 181.969 381.164 181.125 C 384.047 180.281 388.336 179.719 389.461 181.688 C 390.586 183.656 390.867 182.953 391.992 185.344 C 393.117 187.734 392.414 189.211 395.508 188.086 C 398.602 186.961 397.547 186.539 398.672 190.758 C 399.797 194.977 404.227 191.461 399.023 196.172 C 393.82 200.883 385.453 197.438 389.602 201.023 C 393.75 204.609 398.039 204.539 399.023 206.648 C 400.008 208.758 401.203 212.555 396.352 213.469 C 391.5 214.383 399.234 215.016 400.781 214.523 C 402.328 214.031 404.859 211.289 406.125 212.133 C 407.391 212.977 407.672 212.836 405.492 215.086 C 403.313 217.336 405.281 216.211 405.211 217.477 C 405.141 218.742 405.773 217.477 406.828 218.953 C 407.883 220.43 407.953 218.742 407.883 220.57 C 407.813 222.398 408.445 218.461 407.602 222.891 C 406.758 227.32 409.289 226.758 410.063 229.852 C 410.836 232.945 409.992 232.031 409.43 233.508 C 408.867 234.984 406.758 234.281 407.32 237.094 C 407.883 239.906 407.813 237.867 406.336 240.117 C 404.859 242.367 406.898 240.188 406.336 241.523 C 405.773 242.859 404.367 240.961 405.492 242.859 C 406.617 244.758 406.195 243.281 407.109 244.828 C 408.023 246.375 407.883 246.867 407.391 247.992 C 406.898 249.117 407.672 249.891 406.617 250.313 C 405.563 250.734 406.055 250.031 405.844 251.719 C 405.633 253.406 403.242 253.758 405.422 254.813 C 407.602 255.867 403.664 258.188 406.617 259.242 C 409.57 260.297 408.938 260.086 407.883 262.969 C 406.828 265.852 406.688 266.906 405.141 266.273 C 403.594 265.641 404.086 267.75 402.398 267.68 C 400.711 267.609 403.383 267.961 401.203 266.625 C 399.023 265.289 401.133 266.484 399.164 265.57 C 397.195 264.656 398.883 264.234 396.984 263.813 C 395.086 263.391 396.422 262.969 393.398 264.305 C 390.375 265.641 393.258 265.289 389.32 264.586 C 385.383 263.883 386.93 261.633 385.734 263.742 C 384.539 265.852 386.086 265.5 384.047 266.063 C 382.008 266.625 384.117 265.359 382.078 265.57 C 380.039 265.781 382.922 265.922 381.023 265.219 C 379.125 264.516 379.969 264.797 379.828 262.828 C 379.688 260.859 380.883 260.719 380.18 259.172 C 379.477 257.625 379.266 260.859 377.086 259.734 C 374.906 258.609 374.555 259.102 372.656 257.273 C 370.758 255.445 371.742 258.68 369.633 256.781 C 367.523 254.883 367.664 257.484 367.172 254.32 C 366.68 251.156 369 255.234 368.227 252.07 C 367.453 248.906 367.805 250.313 366.398 250.453 C 364.992 250.594 364.43 251.297 362.109 250.172 C 359.789 249.047 359.438 251.086 358.102 249.539 C 356.766 247.992 350.719 248.766 350.438 250.523 C 350.156 252.281 350.578 251.578 349.523 252.422 C 348.469 253.266 349.805 254.039 347.695 253.758 C 345.586 253.477 347.344 254.883 344.883 254.039 C 342.422 253.195 340.383 254.742 338.133 253.898 C 335.883 253.055 336.938 254.461 334.828 254.953 C 332.719 255.445 332.719 256.43 329.484 256.711 C 326.25 256.992 326.672 261.352 320.766 260.086 C 314.859 258.82 320.906 262.266 313.172 261.633 C 305.438 261 303.82 263.32 300.867 260.93 C 297.914 258.539 289.828 258.188 287.719 262.969 C 285.609 267.75 294.469 272.109 285.188 268.313 C 275.906 264.516 270 280.406 264.938 278.438 C 259.875 276.469 259.594 277.594 259.172 270.422 C 258.75 263.25 253.406 259.031 252 255.094 C 250.594 251.156 247.5 249.75 249.609 246.797 C 251.719 243.844 247.781 245.531 245.813 245.391 C 243.844 245.25 239.484 249.047 242.578 243.141 C 245.672 237.234 245.531 244.547 245.953 240.75 C 246.375 236.953 247.078 236.953 244.547 235.406 C 242.016 233.859 243.563 235.828 236.109 234.563 C 228.656 233.297 223.031 237.938 221.906 233.016 C 220.781 228.094 217.688 225 218.391 220.922 C 219.094 216.844 219.234 218.672 222.891 215.859 C 226.547 213.047 231.047 208.828 226.547 206.578 C 222.047 204.328 221.484 205.594 224.297 201.797 C 227.109 198 227.672 196.313 235.125 194.203 Q 242.578 192.094 253.406 193.781 Z " fill="rgb(207,219,152)"/></g></svg>