<?xml version="1.0" encoding="UTF-8" standalone="no"?><!-- Generator: Gravit.io --><svg xmlns="http://www.w3.org/2000/svg" xmlns:xlink="http://www.w3.org/1999/xlink" style="isolation:isolate" viewBox="0 0 700 500" width="700pt" height="500pt"><defs><clipPath id="_clipPath_8lttdIXFqsIz6eoJ6F7I96cleNvlxsbQ"><rect width="700" height="500"/></clipPath></defs><g clip-path="url(#_clipPath_8lttdIXFqsIz6eoJ6F7I96cleNvlxsbQ)"><g><mask id="_mask_7lWoE0B8qOFv15YXFp6M4zcvaRVND4VR"><ellipse vector-effect="non-scaling-stroke" cx="282.1289802442081" cy="261.37331838564995" rx="88.56507889891668" ry="90.15470852017927" fill="white" stroke="none"/></mask><ellipse vector-effect="non-scaling-stroke" cx="282.1289802442081" cy="261.37331838564995" rx="88.56507889891668" ry="90.15470852017927" fill="rgb(79,136,198)"/><ellipse vector-effect="non-scaling-stroke" cx="282.1289802442081" cy="261.37331838564995" rx="88.56507889891668" ry="90.15470852017927" fill="rgb(79,136,198)" mask="url(#_mask_7lWoE0B8qOFv15YXFp6M4zcvaRVND4VR)" stroke-width="18" stroke="rgb(78,141,208)" stroke-linejoin="miter" stroke-linecap="square" stroke-miterlimit="3"/><path d=" M 344.579 270.003 Q 341.059 281.811 342.762 286.013 C 344.465 290.214 331.18 298.389 333.905 304.293 C 336.631 310.198 341.172 308.154 342.308 311.106 Q 343.443 314.058 344.692 312.355 Q 345.033 307.473 346.282 309.176 C 347.531 310.879 350.142 308.608 348.099 311.901 C 346.055 315.194 343.103 317.01 345.487 316.102 C 347.872 315.194 347.077 315.648 348.666 314.967 C 350.256 314.285 352.413 311.333 350.37 315.08 C 348.326 318.827 353.208 314.172 354.571 312.923 C 355.933 311.674 362.15 301.426 365.599 291.633 C 369.048 281.84 371.347 264.893 370.666 256.122 C 369.984 247.351 365.471 228.786 363.938 226.827 Q 362.405 224.869 353.464 229.212 Q 352.612 230.83 352.953 233.044 C 353.293 235.258 359.254 233.555 356.104 236.28 C 352.953 239.005 351.846 237.983 352.782 240.453 C 353.719 242.922 355.593 246.754 353.464 249.905 C 351.335 253.056 350.483 252.375 352.442 256.207 C 354.4 260.039 353.549 256.122 355.337 254.759 C 357.125 253.397 359.169 252.375 358.232 257.825 C 357.296 263.275 351.846 265.574 354.4 266 C 356.955 266.426 356.018 267.789 357.466 265.66 C 358.914 263.531 358.403 261.061 358.403 263.786 C 358.403 266.511 358.914 264.723 358.318 266.682 Q 357.722 268.64 354.826 269.918 Q 351.249 269.918 352.271 272.302 C 353.293 274.686 352.782 274.516 354.741 273.239 C 356.7 271.961 358.488 269.832 357.296 273.068 C 356.104 276.304 357.296 273.806 357.835 273.551 C 358.374 273.296 358.743 273.409 358.261 274.317 C 357.778 275.226 358.602 275.453 357.069 275.708 C 355.536 275.964 354.798 275.339 354.769 275.169 C 354.741 274.999 354.202 275.992 354.315 276.674 C 354.429 277.355 354.656 277.837 353.662 276.645 C 352.669 275.453 349.745 281.13 348.155 277.27 Q 346.566 273.409 344.579 270.003 Z " fill="rgb(164,195,99)"/><path d=" M 339.81 209.256 Q 338.674 205.963 342.081 206.985 C 345.487 208.007 343.784 202.671 345.374 203.692 C 346.963 204.714 348.78 201.649 349.234 202.443 C 349.688 203.238 356.614 211.868 357.069 213.457 C 357.523 215.047 363.881 225.38 364.108 227.083 C 364.336 228.786 360.929 226.174 360.021 228.445 C 359.112 230.716 353.095 230.489 354.798 232.192 C 356.501 233.895 352.186 235.939 350.597 232.419 C 349.007 228.899 346.623 231.852 346.168 230.83 C 345.714 229.808 346.395 224.471 339.356 222.087 C 332.316 219.702 334.246 212.776 336.063 211.868 Q 337.88 210.959 339.81 209.256 Z " fill="rgb(59,55,29)"/><path d=" M 218.998 243.774 Q 207.246 241.389 212.867 243.944 C 218.487 246.499 220.531 245.647 215.251 249.054 C 209.971 252.46 201.966 249.565 204.521 256.548 C 207.076 263.531 205.884 260.976 210.823 258.762 C 215.762 256.548 219.85 255.526 217.295 260.635 C 214.74 265.745 217.976 267.107 214.229 268.129 C 210.482 269.151 211.845 273.92 212.867 275.623 C 213.888 277.326 210.482 274.772 217.976 278.348 C 225.47 281.925 224.278 281.244 229.728 281.755 C 235.178 282.266 237.052 277.667 239.606 283.628 C 242.161 289.589 241.65 293.677 252.04 288.567 C 262.429 283.458 260.896 290.611 273.67 289.93 C 286.444 289.249 292.916 303.555 292.745 290.952 C 292.575 278.348 291.553 280.051 287.636 264.382 C 283.719 248.713 281.164 241.73 272.818 235.939 C 264.473 230.148 246.589 227.934 233.986 230.83 Q 221.382 233.725 218.998 243.774 Z " fill="rgb(164,195,99)"/><path d=" M 304.157 270.57 Q 304.497 272.047 306.768 274.885 C 309.039 277.724 311.878 280.676 308.131 278.405 C 304.384 276.134 306.882 277.27 308.131 281.13 C 309.38 284.991 308.017 281.13 307.222 284.196 C 306.428 287.262 306.768 287.148 304.724 289.305 C 302.681 291.463 304.384 287.943 303.703 284.309 C 303.021 280.676 304.157 282.606 301.545 280.449 C 298.934 278.292 298.252 275.794 294.846 274.772 C 291.44 273.75 289.055 267.391 287.125 271.479 C 285.195 275.566 284.059 271.592 282.81 274.772 C 281.561 277.951 278.836 278.178 281.107 278.178 C 283.378 278.178 282.356 277.27 282.924 280.222 C 283.492 283.174 278.95 283.287 282.243 284.423 C 285.535 285.558 283.832 284.991 282.697 286.467 C 281.561 287.943 282.583 284.196 276.452 287.262 C 270.32 290.327 272.591 286.921 266.914 285.104 C 261.237 283.287 262.145 285.104 260.328 282.152 C 258.512 279.2 255.9 277.27 252.38 279.995 C 248.86 282.72 250.904 281.698 246.135 283.401 C 241.366 285.104 240.004 288.17 235.803 286.013 C 231.601 283.855 231.261 283.401 229.217 285.785 C 227.173 288.17 228.876 286.807 225.243 287.602 C 221.61 288.397 217.749 290.441 217.068 288.738 C 216.386 287.034 211.958 290.1 212.526 294.415 C 213.094 298.73 208.211 298.73 212.639 301.682 C 217.068 304.634 222.972 310.538 228.763 306.905 C 234.554 303.271 237.846 304.18 240.912 309.63 C 243.978 315.08 230.92 315.08 245.908 318.6 C 260.896 322.12 271.002 324.959 276.792 328.705 C 282.583 332.452 302.908 333.247 299.047 329.841 C 295.187 326.435 294.165 329.046 296.095 325.98 C 298.025 322.915 309.039 323.71 310.402 323.482 C 311.764 323.255 314.376 340.968 327.32 331.771 C 340.264 322.574 340.491 321.666 341.513 318.146 C 342.535 314.626 347.077 320.19 340.491 310.084 C 333.905 299.979 344.238 297.708 348.666 290.554 C 353.095 283.401 353.435 288.511 352.867 284.65 C 352.3 280.79 355.706 276.248 348.212 271.592 C 340.718 266.937 345.26 262.622 335.836 258.421 C 326.412 254.22 317.101 250.359 306.201 256.037 Q 295.3 261.714 304.157 270.57 Z " fill="rgb(143,146,92)"/><path d=" M 219.906 225.209 Q 220.474 224.925 220.758 224.017 C 221.042 223.109 222.631 221.746 221.269 221.576 C 219.906 221.405 220.361 221.746 219.055 220.781 C 217.749 219.816 218.373 222.144 216.33 221.916 C 214.286 221.689 213.945 221.916 212.923 223.393 C 211.901 224.869 212.015 227.537 210.085 227.31 C 208.154 227.083 208.325 230.603 205.827 230.376 C 203.329 230.148 203.896 230.432 202.818 231.625 C 201.739 232.817 201.966 230.773 200.377 231.908 C 198.915 232.953 198.848 230.107 198.901 229.978 C 199.979 227.31 203.329 220.178 204.521 218.248 C 205.713 216.317 208.8 209.945 210.141 208.22 C 212.634 205.016 223.369 193.19 226.095 191.486 C 228.82 189.783 229.103 188.421 230.012 189.783 C 230.92 191.146 230.466 191.941 230.069 193.133 C 229.671 194.325 228.706 195.177 230.352 195.517 C 231.999 195.858 231.772 196.085 230.693 196.596 C 229.614 197.107 230.523 196.88 231.147 197.334 C 231.772 197.788 231.999 197.107 232.396 197.958 C 232.794 198.81 234.099 197.22 235.065 198.129 C 236.03 199.037 240.855 194.552 242.048 194.836 C 243.24 195.12 246.476 191.657 247.555 193.019 C 248.633 194.382 251.642 192.679 248.86 194.95 C 246.078 197.22 248.122 196.255 246.419 197.731 C 244.716 199.207 246.022 206.077 241.366 204.147 C 236.711 202.216 235.689 205.282 234.327 208.291 C 232.964 211.3 236.654 209.71 236.541 213.287 C 236.427 216.864 234.156 215.217 236.711 217.318 Q 239.266 219.418 240.912 222.541 L 235.859 229.808 L 221.382 231.681 L 219.906 225.209 Z " fill="rgb(160,187,94)"/><path d=" M 254.658 201.003 Q 256.063 200.492 256.574 200.62 C 257.085 200.747 257.085 199.981 257.788 200.109 C 258.49 200.236 257.596 201.578 258.299 201.514 C 259.001 201.45 258.746 200.62 259.257 200.492 C 259.768 200.364 260.215 199.47 260.215 200.364 C 260.215 201.258 259.001 201.514 259.704 201.833 C 260.406 202.153 260.853 202.663 261.492 202.408 C 262.131 202.153 261.684 201.258 262.897 201.642 C 264.111 202.025 264.239 201.897 265.005 202.472 C 265.771 203.047 264.43 201.45 265.005 201.194 C 265.58 200.939 267.24 199.853 268.198 199.47 C 269.156 199.087 268.965 198.512 269.731 198.959 C 270.498 199.406 272.542 197.746 273.627 197.618 C 274.713 197.49 273.244 196.404 273.819 195.51 C 274.394 194.616 275.096 190.848 276.757 189.89 C 278.417 188.932 279.248 186.824 281.483 186.313 C 283.719 185.802 281.739 184.716 284.421 184.269 C 287.104 183.822 290.106 185.099 291.064 183.183 C 292.022 181.267 292.724 182.8 295.023 182.353 C 297.323 181.906 298.153 181.651 298.919 182.481 C 299.686 183.311 298.472 183.503 299.558 183.247 C 300.644 182.992 301.474 182.864 302.879 182.417 C 304.284 181.97 304.412 181.906 305.69 182.353 C 306.967 182.8 308.117 183.535 309.011 183.758 C 309.905 183.982 311.725 184.844 312.396 184.684 C 313.066 184.525 314.727 184.333 315.334 184.876 C 315.941 185.419 317.314 184.812 317.889 185.291 C 318.463 185.77 318.112 185.291 318.783 185.898 C 319.453 186.505 319.964 187.016 319.805 186.537 C 319.645 186.058 319.389 185.77 319.837 186.089 C 320.284 186.409 320.316 186.76 320.571 186.505 C 320.827 186.249 320.603 185.61 320.954 185.93 C 321.306 186.249 322.264 185.802 322.264 186.281 C 322.264 186.76 322.583 187.335 323.285 187.399 C 323.988 187.463 325.329 187.718 325.553 187.942 C 325.776 188.165 326.798 188.069 327.15 188.612 C 327.501 189.155 329.704 190.528 329.928 190.784 C 330.151 191.039 330.79 190.975 330.535 191.55 C 330.279 192.125 330.215 192.349 329.768 192.093 C 329.321 191.838 329.736 191.55 328.842 191.071 C 327.948 190.592 328.14 190.433 327.309 189.826 C 326.479 189.219 326.223 188.932 325.17 188.644 C 324.116 188.357 323.254 188.037 322.327 187.91 C 321.401 187.782 321.082 187.718 320.89 187.335 C 320.699 186.952 320.475 187.654 319.421 187.335 C 318.368 187.016 317.505 186.984 317.122 187.175 C 316.739 187.367 315.589 187.367 316.451 187.622 C 317.314 187.878 318.463 187.079 318.942 187.718 C 319.421 188.357 319.453 187.974 320.635 188.868 C 321.816 189.762 321.976 190.401 323.285 190.56 C 324.595 190.72 325.074 190.496 326.032 191.135 C 326.99 191.774 327.661 191.933 328.044 192.508 C 328.427 193.083 329.609 193.722 330.024 194.36 C 330.439 194.999 330.79 195.798 331.046 196.851 C 331.301 197.905 332.515 200.364 332.227 201.226 C 331.94 202.089 331.461 202.025 332.099 202.376 C 332.738 202.727 330.982 202.951 331.397 203.462 C 331.812 203.973 331.652 204.484 332.067 204.899 C 332.483 205.314 333.026 205.314 332.866 206.049 C 332.706 206.783 331.78 205.665 332.227 206.4 C 332.674 207.134 332.866 207.198 333.313 207.581 C 333.76 207.965 333.984 207.581 334.75 208.188 C 335.516 208.795 335.548 209.274 336.091 209.178 C 336.634 209.082 336.347 209.21 336.953 209.21 C 337.56 209.21 337.432 208.859 338.167 209.657 C 338.901 210.455 338.965 210.36 339.061 209.817 C 339.157 209.274 338.87 207.422 339.7 208.252 C 340.53 209.082 340.275 208.571 341.073 209.657 C 341.871 210.743 341.839 210.871 340.945 212.627 C 340.051 214.383 340.722 215.118 340.051 214.767 C 339.38 214.415 339.412 213.553 339.061 214.224 C 338.71 214.894 338.199 214.192 338.806 215.086 C 339.412 215.98 339.764 215.182 339.86 215.757 C 339.955 216.331 339.796 215.533 339.508 216.651 C 339.221 217.769 339.444 216.874 339.732 217.832 C 340.019 218.79 340.945 218.024 340.69 218.727 C 340.434 219.429 339.732 218.599 338.806 218.216 C 337.88 217.832 337.209 217.353 336.634 217.258 C 336.059 217.162 336.953 216.97 334.974 216.268 C 332.994 215.565 331.588 216.619 332.131 216.779 C 332.674 216.938 333.345 217.577 333.664 217.353 C 333.984 217.13 332.738 217.289 332.004 217.353 C 331.269 217.417 330.375 217.066 329.96 216.715 C 329.545 216.363 332.099 213.457 331.078 213.617 C 330.056 213.777 329.96 213.393 328.491 213.585 C 327.022 213.777 327.213 215.022 320.603 213.457 C 313.993 211.893 311.629 212.883 307.989 211.03 C 304.348 209.178 307.606 210.647 306.903 209.37 C 306.201 208.092 307.989 208.923 306.584 207.198 C 305.179 205.474 304.795 205.154 303.263 205.665 C 301.73 206.176 301.985 206.751 301.41 206.176 C 300.836 205.601 301.857 206.049 299.941 205.41 C 298.025 204.771 297.961 205.027 297.45 204.069 C 296.94 203.111 292.916 203.174 292.66 204.069 C 292.405 204.963 291.958 204.835 292.596 204.771 C 293.235 204.707 294.321 204.26 293.746 205.027 C 293.171 205.793 291.958 205.41 292.469 205.729 Q 294.129 206.687 292.916 206.559 C 291.702 206.432 292.341 206.304 291.511 206.623 C 290.68 206.943 292.149 206.432 290.361 207.326 C 288.573 208.22 287.487 209.753 286.848 208.923 C 286.21 208.092 286.593 208.412 285.699 208.539 C 284.804 208.667 284.868 208.476 284.166 208.028 C 283.463 207.581 284.357 206.559 283.335 207.581 C 282.313 208.603 283.399 209.434 281.803 209.178 C 280.206 208.923 279.184 208.731 279.95 209.434 C 280.717 210.136 281.483 211.733 280.334 210.903 C 279.184 210.072 279.184 210.711 278.545 209.817 C 277.907 208.923 277.651 208.603 275.48 208.539 C 273.308 208.476 275.607 210.903 272.925 211.541 C 270.242 212.18 269.604 212.819 267.177 213.904 C 264.75 214.99 260.917 219.525 257.852 218.248 C 254.786 216.97 259.129 216.842 257.788 216.779 C 256.447 216.715 254.339 217.737 253.253 217.034 C 252.167 216.331 247.569 216.268 249.804 212.883 C 252.04 209.497 251.784 201.578 253.189 201.194 Q 254.594 200.811 254.658 201.003 Z " fill="rgb(164,195,99)"/><path d=" M 235.689 219.362 Q 236.2 218.851 236.541 219.759 C 236.881 220.667 237.903 219.816 237.449 221.292 C 236.995 222.768 238.074 222.541 236.938 222.541 C 235.803 222.541 236.768 222.882 235.973 223.676 C 235.178 224.471 236.484 224.925 235.121 224.925 C 233.759 224.925 234.327 224.642 233.589 224.528 C 232.85 224.414 233.191 224.187 232.453 224.982 C 231.715 225.777 230.636 227.083 229.785 226.458 C 228.933 225.834 226.322 226.174 225.186 226.912 C 224.051 227.65 223.88 228.161 223.597 227.48 C 223.313 226.799 223.88 226.345 222.404 226.174 C 220.928 226.004 221.723 225.266 220.077 225.38 C 218.43 225.493 217.749 226.685 217.181 225.493 C 216.614 224.301 217.579 224.017 216.727 224.187 C 215.875 224.358 214.797 223.903 214.456 225.72 C 214.116 227.537 214.399 226.401 215.762 226.629 C 217.124 226.856 217.863 225.891 218.146 226.685 C 218.43 227.48 217.124 228.389 216.784 228.672 C 216.443 228.956 215.648 230.546 214.626 231.057 C 213.605 231.568 212.81 231.397 212.583 233.214 C 212.356 235.031 211.731 237.756 212.696 236.734 C 213.661 235.712 213.377 234.406 214.116 234.236 C 214.854 234.066 215.421 234.179 215.365 234.974 C 215.308 235.769 215.762 235.882 215.592 236.45 C 215.421 237.018 217.068 237.472 215.535 237.87 C 214.002 238.267 214.229 236.507 212.753 238.778 C 211.277 241.049 211.504 241.446 211.901 242.752 C 212.299 244.058 211.788 243.831 213.264 244.228 C 214.74 244.625 212.867 245.477 214.002 246.102 C 215.137 246.726 218.657 245.647 219.055 246.158 C 219.452 246.669 220.077 245.931 220.19 246.953 C 220.304 247.975 220.133 248.543 220.815 248.77 C 221.496 248.997 220.928 247.805 221.382 247.237 C 221.837 246.669 220.985 246.329 221.837 246.158 C 222.688 245.988 221.837 243.887 223.029 244.171 C 224.221 244.455 224.562 244.909 225.981 245.193 C 227.4 245.477 226.605 244.398 227.116 244.682 C 227.627 244.966 227.571 244.796 227.911 245.25 C 228.252 245.704 228.422 246.669 228.876 245.818 C 229.331 244.966 228.82 244.796 229.444 244.569 C 230.069 244.342 229.387 242.809 230.466 242.922 C 231.545 243.036 230.182 242.695 230.75 243.66 C 231.318 244.625 230.863 245.193 231.488 245.023 C 232.112 244.853 235.292 243.433 235.973 243.774 C 236.654 244.114 237.392 243.774 237.79 244.569 C 238.187 245.363 236.711 244.512 237.222 245.477 C 237.733 246.442 237.165 247.123 239.777 246.953 C 242.388 246.783 245.227 247.18 246.476 247.407 C 247.725 247.634 252.096 248.883 252.096 248.089 C 252.096 247.294 250.223 246.215 250.507 245.136 C 250.791 244.058 250.28 243.093 251.756 243.49 C 253.232 243.887 254.083 243.149 254.083 242.014 C 254.083 240.878 251.472 239.289 255.559 239.629 C 259.647 239.97 260.499 239.402 261.293 240.367 C 262.088 241.333 263.962 241.276 264.586 243.093 C 265.211 244.909 264.7 244.625 266.403 244.625 C 268.106 244.625 268.674 243.149 270.718 244.058 C 272.762 244.966 275.657 244.114 276.168 242.979 C 276.679 241.844 277.928 242.411 278.325 241.446 C 278.723 240.481 278.155 239.232 278.609 237.813 C 279.063 236.393 279.177 236.053 277.644 234.35 C 276.111 232.646 274.805 229.751 273.272 228.445 C 271.74 227.14 274.578 227.878 273.386 225.663 C 272.194 223.449 272.137 222.087 269.298 221.462 C 266.46 220.838 266.744 222.03 265.835 221.633 C 264.927 221.235 264.927 220.213 263.848 220.895 C 262.77 221.576 264.246 220.327 261.861 221.178 C 259.477 222.03 257.263 222.882 257.092 221.405 C 256.922 219.929 256.922 221.065 257.66 220.27 C 258.398 219.475 259.25 218.737 257.546 219.191 C 255.843 219.646 255.332 218.851 255.843 220.1 C 256.354 221.349 256.808 221.405 256.241 221.405 C 255.673 221.405 254.878 221.349 255.049 220.838 C 255.219 220.327 255.843 219.816 255.276 219.929 C 254.708 220.043 254.367 221.065 253.913 220.611 C 253.459 220.156 252.38 221.178 252.721 220.724 C 253.061 220.27 253.913 220.213 254.367 219.475 C 254.821 218.737 254.197 218.794 253.175 219.248 C 252.153 219.702 252.721 220.667 250.904 220.213 C 249.087 219.759 249.598 220.213 248.293 220.156 C 246.987 220.1 244.546 220.895 243.864 220.156 C 243.183 219.418 242.615 220.44 241.821 219.248 C 241.026 218.056 240.288 218.056 240.855 217.659 C 241.423 217.261 242.388 217.488 241.991 216.977 C 241.593 216.466 241.31 216.41 240.969 216.069 C 240.628 215.728 239.266 215.274 239.493 215.842 C 239.72 216.41 240.004 217.318 239.493 216.977 Q 238.868 217.204 238.074 216.977 C 237.279 216.75 237.052 214.933 236.086 215.274 C 235.121 215.615 234.667 216.296 234.44 217.091 C 234.213 217.886 234.156 218.397 234.894 218.851 Q 235.632 219.305 235.689 219.362 Z " fill="rgb(156,142,80)"/><path d=" M 258.506 192.987 Q 259.289 193.163 259.273 193.53 C 259.257 193.897 259.784 194.648 260.135 194.6 C 260.486 194.552 261.189 194.696 261.588 195.319 C 261.987 195.941 263.009 196.452 263.344 196.772 C 263.68 197.091 264.239 198.129 264.643 198.065 C 265.048 198.001 266.133 198.129 266.346 198.342 C 266.559 198.555 267.411 198.044 267.837 198.384 C 268.262 198.725 267.602 198.661 267.496 198.98 C 267.389 199.3 267.283 199.406 268.028 199.3 C 268.773 199.193 268.518 199.151 269.05 199.151 C 269.582 199.151 269.88 199.087 270.37 199.321 C 270.86 199.555 271.264 199.725 271.711 199.64 C 272.158 199.555 272.584 199.598 272.967 199.491 C 273.351 199.385 274.607 197.384 274.521 196.851 C 274.436 196.319 274.266 195.233 273.436 195.553 C 272.605 195.872 271.796 196.128 271.328 195.829 C 270.86 195.531 270.178 195.936 270.37 195.425 C 270.562 194.914 270.327 194.595 270.966 194.701 C 271.605 194.808 272.52 194.808 273.095 194.467 C 273.67 194.126 273.329 193.935 274.117 194.254 C 274.905 194.573 274.798 194.68 275.224 194.297 C 275.65 193.913 278.673 192.146 278.034 191.784 C 277.396 191.423 276.608 192.04 276.246 191.933 C 275.884 191.827 275.927 191.827 275.671 191.721 C 275.416 191.614 275.33 191.635 274.862 191.997 C 274.394 192.359 274.67 192.019 274.053 192.104 C 273.436 192.189 273.542 192.019 273.414 192.466 C 273.287 192.913 271.796 192.998 271.413 192.828 C 271.03 192.657 270.987 192.295 270.2 192.444 C 269.412 192.593 268.688 192.849 267.219 193.062 C 265.75 193.275 264.813 193.658 265.069 193.892 C 265.324 194.126 266.282 194.148 265.771 194.297 C 265.26 194.446 265.133 194.148 264.43 194.126 C 263.728 194.105 263.11 194.233 263.302 194.36 C 263.493 194.488 263.153 194.616 262.94 194.467 C 262.727 194.318 262.748 194.467 262.472 194.382 C 262.195 194.297 262.94 194.041 262.514 193.551 C 262.088 193.062 261.343 193.19 261.45 192.615 C 261.556 192.04 261.407 192.274 260.598 191.912 Q 259.789 191.55 259.342 191.593 L 258.506 192.987 Z " fill="rgb(130,161,77)"/><path d=" M 252.153 192.565 Q 252.522 192.636 252.153 193.019 C 251.784 193.402 251.518 193.065 251.699 193.473 C 251.88 193.881 252.331 193.686 252.153 193.928 C 251.976 194.169 251.759 195.134 251.245 195.29 C 250.73 195.446 249.261 196.504 248.974 196.199 C 248.686 195.893 248.736 195.833 248.52 196.199 C 248.303 196.564 248.466 196.167 248.065 196.653 C 247.665 197.139 247.193 197.458 247.157 197.107 C 247.122 196.756 246.398 196.724 246.249 197.107 C 246.1 197.49 246.416 197.408 245.795 197.561 C 245.174 197.714 245.238 197.423 244.886 198.015 C 244.535 198.608 243.981 200.449 243.524 199.832 C 243.066 199.215 242.661 199.555 242.161 199.832 C 241.661 200.109 241.42 200.29 241.253 199.832 C 241.086 199.374 240.703 199.094 240.799 199.378 C 240.894 199.662 240.387 199.637 239.89 199.378 C 239.393 199.119 238.254 199.396 238.074 199.832 C 237.893 200.268 237.076 199.857 237.165 200.286 C 237.254 200.715 236.903 201.386 236.711 201.194 Q 237.524 201.223 237.165 202.103 C 236.807 202.983 236.601 201.812 236.257 202.557 C 235.913 203.302 234.596 202.94 234.44 203.92 C 234.284 204.899 230.984 206.297 231.261 207.099 C 231.538 207.901 231.719 208.607 231.261 208.461 Q 230.803 208.316 230.352 208.916 Q 230.221 209.128 230.352 209.824 C 230.484 210.519 229.359 211.63 230.352 211.186 C 231.346 210.743 231.303 210.484 231.261 210.278 C 231.218 210.072 232.066 209.416 232.169 209.824 C 232.272 210.232 232.418 210.211 232.169 210.732 C 231.921 211.254 231.396 211.708 232.169 211.641 C 232.943 211.573 233.482 211.357 233.532 211.641 C 233.581 211.924 232.975 211.768 232.623 212.549 C 232.272 213.33 232.496 212.883 232.623 213.457 C 232.751 214.032 232.751 213.713 232.623 213.912 C 232.496 214.11 232.567 214.252 232.623 214.366 C 232.68 214.479 232.779 214.791 233.078 214.82 C 233.376 214.848 233.376 215.146 233.078 215.274 C 232.779 215.402 232.666 215.444 232.623 215.728 C 232.581 216.012 232.836 216.523 232.623 216.637 C 232.41 216.75 231.985 217.233 232.169 217.545 C 232.354 217.857 231.389 219.418 232.169 219.362 C 232.95 219.305 233.986 219.575 234.894 219.816 C 235.803 220.057 236.03 220.114 235.803 219.362 C 235.576 218.609 234.369 217.559 234.894 217.091 C 235.419 216.622 235.547 216.48 236.257 216.182 C 236.966 215.884 238.812 215.615 239.436 215.728 C 240.061 215.842 241.026 215.927 241.253 216.182 C 241.48 216.438 241.324 215.231 241.707 214.82 C 242.09 214.408 241.764 213.968 242.161 213.912 C 242.559 213.855 242.502 213.741 243.07 214.366 C 243.637 214.99 243.41 215.345 243.978 215.274 C 244.546 215.203 244.049 216.253 244.886 216.182 C 245.724 216.111 245.851 216.835 246.703 216.637 C 247.555 216.438 246.902 215.714 248.065 215.728 C 249.229 215.742 248.435 215.87 248.974 216.182 C 249.513 216.495 249.584 216.977 249.882 216.637 C 250.18 216.296 250.01 216.055 250.336 216.637 C 250.663 217.219 251.827 217.105 251.699 217.545 C 251.571 217.985 252.494 218.155 252.607 217.999 C 252.721 217.843 253.019 217.091 253.615 216.935 C 254.211 216.779 254.779 216.353 254.907 215.615 C 255.034 214.877 254.878 214.068 254.225 214.508 C 253.572 214.948 253.8 215.742 253.289 215.657 C 252.778 215.572 251.344 215.317 251.089 214.749 C 250.833 214.181 251.089 213.628 251.642 212.875 C 252.196 212.123 253.019 212.45 252.877 211.57 C 252.735 210.69 253.374 210.959 253.885 210.761 C 254.396 210.562 255.829 210.165 256.312 209.313 C 256.794 208.461 257.107 208.901 256.922 208.461 C 256.737 208.021 256.34 206.801 256.525 206.489 C 256.709 206.176 257.092 206.772 257.107 205.864 C 257.121 204.956 256.837 204.842 256.198 204.132 C 255.559 203.423 254.85 200.414 254.438 200.627 C 254.027 200.84 254.882 200.013 255.35 199.992 C 255.818 199.97 256.564 199.64 256.926 199.47 C 257.287 199.3 257.596 199.64 257.692 199.374 C 257.788 199.108 258.288 197.022 258.501 196.575 C 258.714 196.128 258.927 196.032 258.639 195.861 C 258.352 195.691 256.968 195.414 257.064 195.031 C 257.16 194.648 257.5 193.86 257.373 193.328 C 257.245 192.796 253.509 192.189 252.742 192.317 Q 251.976 192.444 252.153 192.565 Z " fill="rgb(128,142,68)"/><path d=" M 252.215 192.604 Q 252.119 193.147 251.72 192.876 C 251.321 192.604 250.778 192.285 250.698 192.045 C 250.618 191.806 249.597 191.997 249.533 191.694 C 249.469 191.391 250.092 191.295 250.076 190.991 C 250.06 190.688 250.778 190.72 251.018 190.321 C 251.257 189.922 251.944 189.538 252.343 189.778 C 252.742 190.017 252.455 190.704 252.79 190.305 C 253.125 189.906 253.988 189.475 254.195 189.698 C 254.403 189.922 254.546 190.129 254.834 189.938 C 255.121 189.746 256.015 189.027 256.159 189.379 C 256.303 189.73 256.942 189.586 257.213 189.411 C 257.484 189.235 258.059 188.9 258.379 189.139 C 258.698 189.379 259.113 189.331 259.48 189.427 C 259.848 189.522 259.4 188.469 259.943 188.772 C 260.486 189.075 260.694 189.219 260.949 188.756 C 261.205 188.293 261.843 187.974 261.987 188.261 C 262.131 188.548 263.169 187.846 262.913 188.309 C 262.658 188.772 260.486 189.634 260.678 190.081 C 260.869 190.528 260.646 189.985 260.327 190.816 C 260.007 191.646 259.943 191.71 259.353 192.365 Q 258.762 193.019 257.389 193.371 L 252.215 192.604 Z " fill="rgb(109,102,56)"/><path d=" M 258.696 196.128 Q 259.335 196.397 259.548 196.269 C 259.761 196.142 259.974 195.829 260.328 195.915 C 260.683 196 261.251 195.049 261.506 195.262 C 261.762 195.475 262.628 195.957 262.741 196.199 C 262.855 196.44 262.273 196.738 262.557 196.837 C 262.841 196.937 263.323 196.653 263.493 196.908 C 263.664 197.164 264.43 197.433 264.501 197.731 C 264.572 198.029 264.686 198.072 264.331 198.228 C 263.976 198.384 263.536 198.469 263.877 198.512 C 264.217 198.555 264.586 198.271 264.544 198.555 C 264.501 198.838 263.749 198.867 263.862 199.051 C 263.976 199.236 264.274 199.066 264.047 199.349 C 263.82 199.633 264.246 199.718 263.891 199.789 C 263.536 199.86 263.252 199.435 263.096 199.662 C 262.94 199.889 263.252 200.286 263.053 200.357 C 262.855 200.428 262.301 200.4 262.656 200.57 C 263.011 200.74 264.501 200.854 264.671 200.996 C 264.842 201.138 264.984 202.784 264.671 202.742 C 264.359 202.699 264.004 202.969 263.664 202.869 C 263.323 202.77 263.266 202.387 262.926 202.273 C 262.585 202.16 261.961 202.16 261.861 201.975 C 261.762 201.791 260.953 202.145 260.995 201.592 C 261.038 201.038 261.535 200.754 261.066 200.882 C 260.598 201.01 259.945 200.996 259.832 200.655 C 259.718 200.315 259.079 200.286 258.654 200.456 C 258.228 200.627 257.93 200.229 257.845 199.832 C 257.759 199.435 257.22 199.066 257.433 198.512 C 257.646 197.958 258.029 196.057 258.242 196.028 Q 258.455 196 258.696 196.128 Z " fill="rgb(59,55,29)"/><path d=" M 262.578 194.153 Q 263.728 194.009 263.823 193.818 C 263.919 193.626 263.632 193.53 263.871 193.45 C 264.111 193.371 264.877 193.259 264.925 192.923 C 264.973 192.588 265.628 191.806 266.059 192.013 C 266.49 192.221 267.113 192.125 267.4 192.46 C 267.687 192.796 267.751 193.083 268.039 193.019 C 268.326 192.955 270.578 192.636 270.482 192.412 C 270.386 192.189 270.546 192.173 271.025 192.109 C 271.504 192.045 271.999 192.269 272.318 192.141 C 272.637 192.013 273.244 191.726 273.723 191.566 C 274.202 191.407 274.585 191.263 274.889 191.55 C 275.192 191.838 276.134 191.774 276.102 191.518 C 276.07 191.263 276.406 190.768 276.805 190.193 C 277.204 189.618 279.008 189.059 279.232 188.82 C 279.455 188.58 281.339 188.293 281.26 188.069 C 281.18 187.846 280.158 187.702 280.126 187.223 C 280.094 186.744 280.334 186.792 279.966 186.712 C 279.599 186.632 278.896 187 278.721 186.616 C 278.545 186.233 278.753 186.042 278.29 185.994 C 277.827 185.946 277.571 186.233 277.539 185.898 C 277.507 185.563 277.907 186.01 277.859 185.626 C 277.811 185.243 277.252 185.467 277.188 185.243 C 277.124 185.02 277.028 185.036 277.428 184.924 C 277.827 184.812 278.753 184.509 279.487 184.461 C 280.222 184.413 280.637 184.573 281.164 184.253 C 281.691 183.934 280.046 183.503 279.423 183.056 C 278.801 182.609 277.907 182.177 276.757 181.778 C 275.607 181.379 276.821 181.347 277.3 181.491 C 277.779 181.635 278.497 180.948 279.024 181.539 C 279.551 182.13 280.19 182.193 280.701 181.97 C 281.212 181.746 282.058 181.762 282.058 181.331 C 282.058 180.9 280.429 180.724 280.254 180.15 C 280.078 179.575 279.36 179.303 278.178 179.271 C 276.996 179.239 276.342 179.655 275.895 178.872 C 275.448 178.09 274.042 178.345 272.957 177.994 C 271.871 177.643 272.653 177.403 272.254 177.643 C 271.855 177.882 271.52 178.122 271.408 177.739 C 271.296 177.355 271.089 177.387 271.28 177.291 Q 271.472 177.196 271.919 177.228 Q 272.542 177.036 272.142 176.749 C 271.743 176.461 271.52 176.876 271.2 176.621 C 270.881 176.365 270.402 176.525 270.258 176.365 C 270.115 176.206 269.763 176.254 269.923 176.429 C 270.083 176.605 270.402 176.797 270.162 176.812 C 269.923 176.828 269.667 176.669 269.635 176.541 C 269.604 176.413 268.949 176.27 269.348 176.142 C 269.747 176.014 269.524 175.487 270.019 175.759 C 270.514 176.03 270.45 175.184 269.843 175.216 C 269.236 175.248 268.789 175.264 268.47 175.455 C 268.151 175.647 267.416 176.238 267.224 176.381 C 267.033 176.525 266.745 176.781 266.378 176.812 Q 266.011 176.844 265.867 176.892 Q 265.915 176.701 265.388 176.781 C 264.861 176.86 264.606 176.557 264.845 176.876 C 265.085 177.196 265.053 177.307 264.654 177.307 C 264.255 177.307 263.408 177.18 263.089 177.355 C 262.77 177.531 262.211 177.866 261.62 177.786 C 261.029 177.707 260.885 177.467 260.774 177.723 C 260.662 177.978 260.742 177.866 260.502 178.01 C 260.263 178.154 260.039 178.25 260.311 178.377 C 260.582 178.505 260.853 178.186 260.694 178.569 C 260.534 178.952 260.71 178.808 260.406 178.904 C 260.103 179 259.64 178.745 259.448 178.952 C 259.257 179.16 258.714 179.16 258.826 179.351 C 258.937 179.543 259.257 179.543 258.921 179.687 C 258.586 179.83 257.596 180.038 257.947 180.229 C 258.299 180.421 258.73 180.309 259.113 180.198 C 259.496 180.086 259.416 180.166 259.975 180.214 C 260.534 180.261 260.869 180.166 261.508 180.325 C 262.147 180.485 262.482 180.07 262.562 180.517 C 262.642 180.964 262.578 180.98 262.498 181.219 C 262.418 181.459 264.542 181.331 264.718 181.587 C 264.893 181.842 265.149 181.954 264.734 181.922 C 264.318 181.89 263.36 181.746 263.025 181.906 C 262.69 182.066 262.833 182.305 262.482 182.193 C 262.131 182.082 262.051 181.778 261.716 181.874 C 261.38 181.97 260.422 181.842 260.247 182.193 C 260.071 182.545 260.374 182.593 260.071 182.545 C 259.768 182.497 258.905 182.896 258.714 182.8 C 258.522 182.704 258.586 182.704 258.219 182.784 C 257.852 182.864 258.059 183.088 257.756 182.944 C 257.452 182.8 257.772 182.864 257.101 183.008 C 256.431 183.151 256.095 183.423 255.648 183.391 C 255.201 183.359 254.61 183.199 254.323 183.471 C 254.035 183.742 253.844 183.886 254.035 183.918 C 254.227 183.95 254.722 183.567 254.93 183.774 C 255.137 183.982 254.946 183.854 254.642 184.221 C 254.339 184.589 253.349 184.365 253.03 184.956 C 252.71 185.547 252.215 185.339 252.311 185.658 C 252.407 185.978 253.093 185.754 253.7 185.499 C 254.307 185.243 254.946 184.796 255.297 184.876 C 255.648 184.956 255.6 184.764 255.728 185.036 C 255.856 185.307 255.712 186.042 255.999 185.69 C 256.287 185.339 256.191 185.147 256.478 185.131 C 256.766 185.115 256.973 184.652 257.085 185.004 C 257.197 185.355 257.069 185.243 257.037 185.435 C 257.005 185.626 257.117 185.419 257.5 185.642 C 257.884 185.866 257.405 185.898 257.644 186.153 C 257.884 186.409 257.9 186.217 258.315 186.521 C 258.73 186.824 258.65 187.032 259.097 186.824 C 259.544 186.616 259.608 186.058 259.911 186.185 C 260.215 186.313 260.454 185.818 260.726 186.089 C 260.997 186.361 261.891 186.121 262.051 186.553 C 262.211 186.984 262.402 186.92 262.754 187.271 C 263.105 187.622 263.807 187.75 264.111 188.101 C 264.414 188.453 264.51 188.181 264.574 188.66 C 264.638 189.139 265.117 189.554 264.781 189.57 C 264.446 189.586 264.366 189.826 263.855 189.65 C 263.344 189.475 263.744 189.586 263.312 189.219 C 262.881 188.852 262.977 188.74 262.69 188.708 C 262.402 188.676 262.53 188.485 261.955 188.708 C 261.38 188.932 260.343 189.219 260.231 189.842 C 260.119 190.464 258.874 190.832 259.321 191.742 C 259.768 192.652 260.422 192.955 261.269 193.626 Q 262.115 194.297 262.578 194.153 Z " fill="rgb(189,191,140)"/><path d=" M 278.226 240.155 Q 277.587 236.77 279.056 236.259 C 280.525 235.748 280.206 236.897 280.908 235.045 C 281.611 233.193 279.567 231.66 280.461 230.51 C 281.355 229.361 283.321 228.786 285.479 228.445 C 287.636 228.105 286.5 228.161 288.828 226.345 C 291.156 224.528 291.724 224.017 293.313 224.698 C 294.903 225.38 295.187 225.38 295.925 223.676 C 296.663 221.973 300.466 221.689 300.296 220.724 C 300.126 219.759 300.353 218.964 301.034 219.248 C 301.715 219.532 302.34 218.737 302.397 219.305 C 302.454 219.873 301.659 220.043 302.567 219.929 C 303.475 219.816 302.851 220.156 303.703 219.759 C 304.554 219.362 303.589 218.567 305.065 219.191 C 306.541 219.816 307.222 218.851 308.074 219.986 C 308.926 221.122 308.642 220.384 310.175 220.838 C 311.707 221.292 313.411 221.008 312.956 220.213 C 312.502 219.418 312.502 219.532 312.843 218.907 C 313.184 218.283 313.297 216.977 314.149 217.545 C 315 218.113 315 218.226 316.874 218.113 C 318.747 217.999 318.577 218.851 318.861 217.602 C 319.145 216.353 319.996 215.785 321.075 216.012 C 322.154 216.239 322.21 215.274 324.027 216.012 C 325.844 216.75 324.822 218.226 326.639 217.034 C 328.455 215.842 327.32 215.955 328.739 215.615 C 330.159 215.274 331.578 215.047 333.338 215.444 C 335.098 215.842 338.163 215.388 338.504 216.693 C 338.845 217.999 338.618 217.148 338.674 218.51 C 338.731 219.873 337.823 220.554 339.356 220.895 C 340.889 221.235 342.925 221.505 343.692 222.335 C 344.458 223.165 345.735 224.89 347.141 224.89 C 348.546 224.89 349.025 225.561 349.663 226.487 C 350.302 227.413 351.484 226.934 350.749 227.892 C 350.015 228.85 349.727 227.828 348.067 228.083 C 346.406 228.339 346.151 228.243 346.214 229.297 C 346.278 230.351 346.151 231.756 345.576 230.351 C 345.001 228.946 345.097 227.892 343.724 227.604 C 342.35 227.317 342.191 227.668 341.584 228.658 C 340.977 229.648 342.797 231.532 341.201 230.191 C 339.604 228.85 340.275 228.562 338.486 227.349 C 336.698 226.135 336.762 224.347 335.133 224.89 C 333.505 225.433 334.207 224.379 334.111 225.305 C 334.015 226.231 333.856 223.421 332.898 225.529 C 331.94 227.636 333.281 226.806 332.642 227.477 C 332.004 228.147 332.387 227.892 331.557 228.658 C 330.726 229.425 331.716 230.957 330.056 229.616 C 328.395 228.275 329.321 230.989 328.299 229.584 C 327.277 228.179 326.639 229.073 327.054 230.734 C 327.469 232.395 326.83 233.321 327.82 233.736 C 328.81 234.151 331.109 234.47 332.004 234.502 C 332.898 234.534 332.067 233.768 333.568 234.822 C 335.069 235.875 334.942 234.79 336.251 234.406 C 337.56 234.023 339.508 233.768 340.019 234.662 C 340.53 235.556 340.658 235.237 341.169 236.322 C 341.68 237.408 341.36 238.079 342.766 237.568 C 344.171 237.057 343.692 236.865 344.203 238.781 C 344.714 240.697 346.725 239.101 344.362 241.24 C 341.999 243.38 338.199 241.815 340.083 243.444 C 341.967 245.073 343.915 245.041 344.362 245.999 C 344.809 246.957 345.352 248.681 343.149 249.096 C 340.945 249.511 344.458 249.799 345.161 249.575 C 345.863 249.352 347.013 248.106 347.588 248.49 C 348.162 248.873 348.29 248.809 347.3 249.831 C 346.31 250.853 347.204 250.342 347.173 250.917 C 347.141 251.491 347.428 250.917 347.907 251.587 C 348.386 252.258 348.418 251.491 348.386 252.322 C 348.354 253.152 348.641 251.364 348.258 253.375 C 347.875 255.387 349.025 255.132 349.376 256.537 C 349.727 257.942 349.344 257.527 349.089 258.198 C 348.833 258.868 347.875 258.549 348.131 259.826 C 348.386 261.104 348.354 260.178 347.683 261.199 C 347.013 262.221 347.939 261.231 347.683 261.838 C 347.428 262.445 346.789 261.583 347.3 262.445 C 347.811 263.307 347.62 262.637 348.035 263.339 C 348.45 264.042 348.386 264.265 348.162 264.776 C 347.939 265.287 348.29 265.638 347.811 265.83 C 347.332 266.022 347.556 265.702 347.46 266.469 C 347.364 267.235 346.278 267.395 347.268 267.874 C 348.258 268.353 346.47 269.407 347.811 269.886 C 349.152 270.365 348.865 270.269 348.386 271.578 C 347.907 272.887 347.843 273.367 347.141 273.079 C 346.438 272.792 346.662 273.75 345.895 273.718 C 345.129 273.686 346.342 273.846 345.352 273.239 C 344.362 272.632 345.32 273.175 344.426 272.76 C 343.532 272.345 344.298 272.153 343.436 271.961 C 342.574 271.77 343.181 271.578 341.808 272.185 C 340.434 272.792 341.744 272.632 339.955 272.313 C 338.167 271.993 338.87 270.971 338.327 271.929 C 337.784 272.887 338.486 272.728 337.56 272.983 C 336.634 273.239 337.592 272.664 336.666 272.76 C 335.74 272.856 337.049 272.919 336.187 272.6 C 335.325 272.281 335.708 272.408 335.644 271.514 C 335.58 270.62 336.123 270.556 335.804 269.854 C 335.484 269.151 335.389 270.62 334.399 270.109 C 333.409 269.598 333.249 269.822 332.387 268.991 C 331.525 268.161 331.972 269.63 331.014 268.768 C 330.056 267.906 330.119 269.087 329.896 267.65 C 329.672 266.213 330.726 268.065 330.375 266.628 C 330.024 265.191 330.183 265.83 329.545 265.894 C 328.906 265.958 328.65 266.277 327.597 265.766 C 326.543 265.255 326.383 266.181 325.776 265.479 C 325.17 264.776 322.423 265.127 322.296 265.926 C 322.168 266.724 322.359 266.405 321.88 266.788 C 321.401 267.171 322.008 267.522 321.05 267.395 C 320.092 267.267 320.89 267.906 319.773 267.522 C 318.655 267.139 317.729 267.842 316.707 267.459 C 315.685 267.075 316.164 267.714 315.206 267.938 C 314.248 268.161 314.248 268.608 312.779 268.736 C 311.31 268.864 311.502 270.844 308.819 270.269 C 306.137 269.694 308.883 271.259 305.37 270.971 C 301.857 270.684 301.123 271.738 299.782 270.652 C 298.44 269.566 294.768 269.407 293.81 271.578 C 292.852 273.75 296.876 275.73 292.66 274.005 C 288.445 272.281 285.762 279.498 283.463 278.604 C 281.164 277.71 281.036 278.221 280.845 274.963 C 280.653 271.706 278.226 269.79 277.587 268.002 C 276.948 266.213 275.543 265.574 276.501 264.233 C 277.459 262.892 275.671 263.658 274.777 263.595 C 273.883 263.531 271.903 265.255 273.308 262.573 C 274.713 259.89 274.649 263.211 274.841 261.487 C 275.032 259.762 275.352 259.762 274.202 259.06 C 273.052 258.357 273.755 259.251 270.37 258.677 C 266.985 258.102 264.43 260.209 263.919 257.974 C 263.408 255.739 262.003 254.334 262.322 252.481 C 262.642 250.629 262.706 251.459 264.366 250.182 C 266.027 248.905 268.071 246.989 266.027 245.967 C 263.983 244.945 263.728 245.52 265.005 243.795 C 266.282 242.071 266.538 241.304 269.923 240.346 Q 273.308 239.388 278.226 240.155 Z " fill="rgb(207,219,152)"/></g></g></svg>