<?xml version="1.0" encoding="UTF-8" standalone="no"?><!-- Generator: Gravit.io --><svg xmlns="http://www.w3.org/2000/svg" xmlns:xlink="http://www.w3.org/1999/xlink" style="isolation:isolate" viewBox="0 0 50 50" width="50pt" height="50pt"><defs><clipPath id="_clipPath_mNOkXFrjQzAeuwzOLakn1Yr2CSF9mqlw"><rect width="50" height="50"/></clipPath></defs><g clip-path="url(#_clipPath_mNOkXFrjQzAeuwzOLakn1Yr2CSF9mqlw)"><path d=" M 18.417 45 Q 19.917 27.75 18.417 26 C 16.917 24.25 16.292 24.313 15.417 22 C 14.542 19.688 13.979 18.125 13.417 14 Q 12.854 9.875 14.417 7 Q 15.229 7.125 15.417 9 C 15.604 10.875 15.667 19.375 19.417 23 Q 23.167 26.625 21.417 45" fill="rgb(46,104,43)"/><path d=" M 7.517 45.5 Q 6.017 28.25 7.517 26.5 C 9.017 24.75 9.642 24.813 10.517 22.5 C 11.392 20.188 11.954 18.625 12.517 14.5 Q 13.079 10.375 11.517 7.5 Q 10.704 7.625 10.517 9.5 C 10.329 11.375 10.267 19.875 6.517 23.5 Q 2.767 27.125 4.517 45.5" fill="rgb(46,104,43)"/><path d=" M 3.417 47 Q 4.042 37.625 3.417 29 C 2.792 20.375 3.417 18.438 2.417 16 Q 1.417 13.563 0.417 12 Q 3.104 12.875 3.417 14 C 3.729 15.125 8.042 18.063 7.417 25 C 6.792 31.938 7.792 38.563 7.417 41 C 7.042 43.438 7.604 43.75 7.417 45" fill="none"/><path d=" M 4.417 45 Q 4.042 37.625 3.417 29 C 2.792 20.375 3.417 18.438 2.417 16 Q 1.417 13.563 0.417 12 Q 3.104 12.875 3.417 14 C 3.729 15.125 8.042 18.063 7.417 25 C 6.792 31.938 7.792 38.563 7.417 41 C 7.042 43.438 7.704 44.25 7.517 45.5" fill="rgb(59,136,55)"/><path d=" M 7.417 45 Q 10.604 14.75 10.417 12 C 10.229 9.25 10.229 8.063 9.417 7 Q 8.604 5.938 7.417 4 L 10.417 6 Q 12.229 8.375 12.417 10 C 12.604 11.625 13.792 15.875 13.417 20 C 13.042 24.125 12.604 29.813 12.417 33 C 12.229 36.188 11.354 44 11.417 45 C 11.479 46 13.792 38.625 14.417 36 C 15.042 33.375 15.104 26.813 15.417 23 C 15.729 19.188 15.729 16.875 16.417 14 C 17.104 11.125 20.354 7.938 22.417 7 C 24.479 6.063 24.792 7.438 25.417 5 Q 26.042 2.563 26.417 2 Q 28.417 6.938 27.417 8 C 26.417 9.063 24.479 10.875 23.417 11 C 22.354 11.125 21.854 10.375 21.417 12 C 20.979 13.625 19.729 14 19.417 19 C 19.104 24 19.229 34.313 18.417 36 C 17.604 37.688 13.979 46.75 15.417 46 Q 16.854 45.25 18.417 45" fill="none"/><path d=" M 7.417 45 Q 10.604 14.75 10.417 12 C 10.229 9.25 10.229 8.063 9.417 7 Q 8.604 5.938 7.417 4 L 10.417 6 Q 12.229 8.375 12.417 10 C 12.604 11.625 13.792 15.875 13.417 20 C 13.042 24.125 12.604 29.813 12.417 33 C 12.229 36.188 11.354 44 11.417 45 C 11.479 46 13.792 38.625 14.417 36 C 15.042 33.375 15.104 26.813 15.417 23 C 15.729 19.188 15.729 16.875 16.417 14 C 17.104 11.125 20.354 7.938 22.417 7 C 24.479 6.063 24.792 7.438 25.417 5 Q 26.042 2.563 26.417 2 Q 28.417 6.938 27.417 8 C 26.417 9.063 24.479 10.875 23.417 11 C 22.354 11.125 21.854 10.375 21.417 12 C 20.979 13.625 19.729 14 19.417 19 C 19.104 24 19.229 34.313 18.417 36 Q 17.604 37.688 16.417 45" fill="rgb(52,117,48)"/><path d=" M 18.417 46 Q 18.229 36.875 20.417 34 C 22.604 31.125 24.792 25.75 25.417 21 C 26.042 16.25 28.542 10.813 29.417 10 Q 30.292 9.188 32.417 7 L 31.417 11 Q 28.479 19.25 28.417 21 C 28.354 22.75 24.229 35.375 22.417 36 Q 20.604 36.625 20.417 45" fill="none"/><path d=" M 18.417 45 Q 18.229 36.875 20.417 34 C 22.604 31.125 24.792 25.75 25.417 21 C 26.042 16.25 28.542 10.813 29.417 10 Q 30.292 9.188 32.417 7 L 31.417 11 Q 28.479 19.25 28.417 21 C 28.354 22.75 24.229 35.375 22.417 36 Q 20.604 36.625 20.417 45" fill="rgb(59,136,55)"/><path d=" M 35.583 45 Q 37.083 27.75 35.583 26 C 34.083 24.25 33.458 24.313 32.583 22 C 31.708 19.688 31.146 18.125 30.583 14 Q 30.021 9.875 31.583 7 Q 32.396 7.125 32.583 9 C 32.771 10.875 32.833 19.375 36.583 23 Q 40.333 26.625 38.583 45" fill="rgb(46,104,43)"/><path d=" M 24.684 45.5 Q 23.184 28.25 24.684 26.5 C 26.184 24.75 26.809 24.813 27.684 22.5 C 28.559 20.188 29.121 18.625 29.684 14.5 Q 30.246 10.375 28.684 7.5 Q 27.871 7.625 27.684 9.5 C 27.496 11.375 27.434 19.875 23.684 23.5 Q 19.934 27.125 21.684 45.5" fill="rgb(46,104,43)"/><path d=" M 20.583 47 Q 21.208 37.625 20.583 29 C 19.958 20.375 20.583 18.438 19.583 16 Q 18.583 13.563 17.583 12 Q 20.271 12.875 20.583 14 C 20.896 15.125 25.208 18.063 24.583 25 C 23.958 31.938 24.958 38.563 24.583 41 C 24.208 43.438 24.771 43.75 24.583 45" fill="none"/><path d=" M 19.583 46 Q 21.208 37.625 20.583 29 C 19.958 20.375 20.583 18.438 19.583 16 Q 18.583 13.563 17.583 12 Q 20.271 12.875 20.583 14 C 20.896 15.125 25.208 18.063 24.583 25 C 23.958 31.938 24.958 38.563 24.583 41 C 24.208 43.438 25.604 44.75 25.417 46" fill="rgb(59,136,55)"/><path d=" M 24.583 45 Q 27.771 14.75 27.583 12 C 27.396 9.25 27.396 8.063 26.583 7 Q 25.771 5.938 24.583 4 L 27.583 6 Q 29.396 8.375 29.583 10 C 29.771 11.625 30.958 15.875 30.583 20 C 30.208 24.125 29.771 29.813 29.583 33 C 29.396 36.188 28.521 44 28.583 45 C 28.646 46 30.958 38.625 31.583 36 C 32.208 33.375 32.271 26.813 32.583 23 C 32.896 19.188 32.896 16.875 33.583 14 C 34.271 11.125 37.521 7.938 39.583 7 C 41.646 6.063 41.958 7.438 42.583 5 Q 43.208 2.563 43.583 2 Q 45.583 6.938 44.583 8 C 43.583 9.063 41.646 10.875 40.583 11 C 39.521 11.125 39.021 10.375 38.583 12 C 38.146 13.625 36.896 14 36.583 19 C 36.271 24 36.396 34.313 35.583 36 C 34.771 37.688 31.146 46.75 32.583 46 Q 34.021 45.25 35.583 45" fill="none"/><path d=" M 24.583 45 Q 27.771 14.75 27.583 12 C 27.396 9.25 27.396 8.063 26.583 7 Q 25.771 5.938 24.583 4 L 27.583 6 Q 29.396 8.375 29.583 10 C 29.771 11.625 30.958 15.875 30.583 20 C 30.208 24.125 29.771 29.813 29.583 33 C 29.396 36.188 28.521 44 28.583 45 C 28.646 46 30.958 38.625 31.583 36 C 32.208 33.375 32.271 26.813 32.583 23 C 32.896 19.188 32.896 16.875 33.583 14 C 34.271 11.125 37.521 7.938 39.583 7 C 41.646 6.063 41.958 7.438 42.583 5 Q 43.208 2.563 43.583 2 Q 45.583 6.938 44.583 8 C 43.583 9.063 41.646 10.875 40.583 11 C 39.521 11.125 39.021 10.375 38.583 12 C 38.146 13.625 36.896 14 36.583 19 C 36.271 24 36.396 34.313 35.583 36 Q 34.771 37.688 33.583 45" fill="rgb(52,117,48)"/><path d=" M 35.583 46 Q 35.396 36.875 37.583 34 C 39.771 31.125 41.958 25.75 42.583 21 C 43.208 16.25 45.708 10.813 46.583 10 Q 47.458 9.188 49.583 7 L 48.583 11 Q 45.646 19.25 45.583 21 C 45.521 22.75 41.396 35.375 39.583 36 Q 37.771 36.625 37.583 45" fill="none"/><path d=" M 35.583 46 Q 35.396 36.875 37.583 34 C 39.771 31.125 41.958 25.75 42.583 21 C 43.208 16.25 45.708 10.813 46.583 10 Q 47.458 9.188 49.583 7 L 48.583 11 Q 45.646 19.25 45.583 21 C 45.521 22.75 41.396 35.375 39.583 36 Q 37.771 36.625 37.583 45.5" fill="rgb(59,136,55)"/></g></svg>