<?xml version="1.0" encoding="UTF-8" standalone="no"?><!-- Generator: Gravit.io --><svg xmlns="http://www.w3.org/2000/svg" xmlns:xlink="http://www.w3.org/1999/xlink" style="isolation:isolate" viewBox="0 0 150 576" width="150pt" height="576pt"><defs><clipPath id="_clipPath_IeQOMhkweOlgrJGt8UAFwGwx5HwcoHbd"><rect width="150" height="576"/></clipPath></defs><g clip-path="url(#_clipPath_IeQOMhkweOlgrJGt8UAFwGwx5HwcoHbd)"><g><path d=" M 68.034 291.448 Q 67.165 301.011 68.903 306.749 C 70.642 312.486 79.857 333.177 85.769 331.612 C 91.68 330.047 95.505 328.482 95.332 322.571 C 95.158 316.659 94.636 303.967 94.984 302.054 C 95.332 300.141 94.984 295.795 95.332 298.924 C 95.679 302.054 96.027 306.227 98.461 308.139 C 100.895 310.052 103.677 309.878 102.634 307.096 C 101.591 304.314 100.722 298.577 100.548 296.142 C 100.374 293.708 88.377 257.891 87.16 249.024 C 85.943 240.156 84.899 233.376 83.508 219.988 C 82.117 206.6 79.162 198.602 80.031 188.865 C 80.9 179.128 81.77 132.01 82.987 126.098 C 84.204 120.186 86.116 104.364 84.378 101.582 C 82.639 98.801 76.206 89.933 72.207 89.585 C 68.208 89.238 54.82 90.107 53.255 93.758 C 51.69 97.41 46.126 110.276 46.822 118.622 C 47.517 126.967 60.21 182.258 58.993 187.822 C 57.776 193.386 56.559 202.948 59.167 215.293 C 61.775 227.638 71.511 258.761 71.164 264.15 Q 70.816 269.54 68.034 291.448 Z " fill="rgb(249,238,236)"/></g></g></svg>