<?xml version="1.0" encoding="UTF-8" standalone="no"?><!-- Generator: Gravit.io --><svg xmlns="http://www.w3.org/2000/svg" xmlns:xlink="http://www.w3.org/1999/xlink" style="isolation:isolate" viewBox="0 0 150 576" width="150pt" height="576pt"><defs><clipPath id="_clipPath_j6mDmBY3ZGRohKnS9YT9ZtOqaloRxtZ2"><rect width="150" height="576"/></clipPath></defs><g clip-path="url(#_clipPath_j6mDmBY3ZGRohKnS9YT9ZtOqaloRxtZ2)"><path d=" M 61.536 283 Q 60.666 292.563 62.405 298.301 C 64.144 304.038 73.359 324.729 79.27 323.164 C 85.182 321.599 89.007 320.034 88.833 314.123 C 88.659 308.211 88.138 295.519 88.485 293.606 C 88.833 291.694 88.485 287.347 88.833 290.476 C 89.181 293.606 89.529 297.779 91.963 299.692 C 94.397 301.604 97.179 301.43 96.136 298.648 C 95.092 295.866 94.223 290.129 94.049 287.695 C 93.875 285.26 81.878 249.443 80.661 240.576 C 79.444 231.709 78.401 224.928 77.01 211.54 C 75.619 198.152 72.663 190.154 73.533 180.417 C 74.402 170.68 75.271 123.562 76.488 117.65 C 77.706 111.739 79.618 95.916 77.879 93.135 C 76.141 90.353 69.708 81.485 65.709 81.138 C 61.71 80.79 48.322 81.659 46.757 85.31 C 45.192 88.962 39.628 101.828 40.324 110.174 C 41.019 118.519 53.712 173.81 52.494 179.374 C 51.277 184.938 50.06 194.5 52.668 206.845 C 55.276 219.19 65.013 250.313 64.665 255.703 Q 64.318 261.093 61.536 283 Z " fill="rgb(249,238,236)"/><g/></g></svg>