<?xml version="1.0" encoding="UTF-8" standalone="no"?><!-- Generator: Gravit.io --><svg xmlns="http://www.w3.org/2000/svg" xmlns:xlink="http://www.w3.org/1999/xlink" style="isolation:isolate" viewBox="0 0 150 576" width="150pt" height="576pt"><defs><clipPath id="_clipPath_QwGQCX1bIrEHy1emYUlWBnP1Tqd8pZHw"><rect width="150" height="576"/></clipPath></defs><g clip-path="url(#_clipPath_QwGQCX1bIrEHy1emYUlWBnP1Tqd8pZHw)"><path d=" M 61.536 283 Q 60.666 292.563 62.405 298.301 C 64.144 304.038 73.359 324.729 79.27 323.164 C 85.182 321.599 89.007 320.034 88.833 314.123 C 88.659 308.211 88.138 295.519 88.485 293.606 C 88.833 291.694 88.485 287.347 88.833 290.476 C 89.181 293.606 89.529 297.779 91.963 299.692 C 94.397 301.604 97.179 301.43 96.136 298.648 C 95.092 295.866 94.223 290.129 94.049 287.695 C 93.875 285.26 81.878 249.443 80.661 240.576 C 79.444 231.709 78.401 224.928 77.01 211.54 C 75.619 198.152 72.663 190.154 73.533 180.417 C 74.402 170.68 75.271 123.562 76.488 117.65 C 77.706 111.739 79.618 95.916 77.879 93.135 C 76.141 90.353 69.708 81.485 65.709 81.138 C 61.71 80.79 48.322 81.659 46.757 85.31 C 45.192 88.962 39.628 101.828 40.324 110.174 C 41.019 118.519 53.712 173.81 52.494 179.374 C 51.277 184.938 50.06 194.5 52.668 206.845 C 55.276 219.19 65.013 250.313 64.665 255.703 Q 64.318 261.093 61.536 283 Z " fill="rgb(249,238,236)"/><g><path d=" M 41.012 294.013 L 44.011 384.381 Q 29.928 415.939 27.841 425.328 C 25.755 434.716 24.32 477.749 25.233 486.225 C 26.146 494.701 27.841 513.871 25.624 520.391 C 23.408 526.911 18.713 545.95 23.147 548.036 C 27.58 550.122 77.785 561.989 83.262 559.772 C 88.739 557.555 105.17 555.338 102.822 551.948 C 100.475 548.558 68.135 533.17 62.659 527.563 C 57.182 521.956 54.182 520.652 53.27 509.567 C 52.357 498.483 51.966 482.704 53.661 478.14 C 55.356 473.576 71.656 408.897 73.482 405.637 C 75.308 402.377 82.089 390.51 83.262 385.033 C 84.436 379.556 86.522 364.43 89.391 358.04 C 92.26 351.65 97.606 318.528 97.998 312.79 C 98.389 307.053 100.866 290.883 99.693 287.232 C 98.519 283.58 51.835 276.93 46.358 285.406 Q 40.881 293.882 41.012 294.013 Z " fill="rgb(249,238,236)"/><path d=" M 54.009 78.516 C 47.054 88.716 38.708 100.307 38.244 110.971 C 37.781 121.635 37.317 143.427 41.954 153.627 C 46.59 163.828 49.372 168.464 54.009 179.592 C 58.645 190.72 63.745 193.501 62.354 200.92 C 60.963 208.338 55.4 219.002 47.517 228.739 C 39.635 238.476 22.944 256.095 29.899 276.959 C 36.853 297.823 43.345 293.187 44.736 300.141 C 46.126 307.096 43.345 306.633 47.517 306.633 C 51.69 306.633 103.156 314.051 104.083 306.633 C 105.01 299.214 100.895 275.974 102.286 270.931 C 103.677 265.889 107.502 252.153 110.632 243.808 C 113.762 235.462 117.065 199.949 115.631 191.473 C 114.196 182.997 109.372 168.783 110.676 164.61 C 111.98 160.437 119.543 156.264 117.717 147.788 C 115.892 139.312 111.067 131.097 108.459 127.967 C 105.851 124.837 87.073 103.191 86.29 99.018 C 85.508 94.845 84.074 90.672 84.334 89.107 C 84.595 87.542 60.963 68.315 54.009 78.516 Z " fill="rgb(255,242,240)"/><path d=" M 84.204 90.716 Q 85.421 85.586 86.725 82.891 C 88.029 80.196 89.507 76.024 91.333 73.242 C 93.158 70.46 94.549 68.808 96.375 69.156 C 98.2 69.504 102.547 71.677 104.199 71.068 C 105.851 70.46 108.98 68.982 108.893 67.243 C 108.806 65.505 106.807 64.114 107.589 62.549 C 108.372 60.984 107.676 60.897 107.85 58.724 C 108.024 56.55 107.329 50.378 108.72 49.682 C 110.11 48.987 115.24 48.465 114.544 46.64 C 113.849 44.814 111.154 39.337 109.154 36.034 C 107.155 32.73 106.459 33.599 105.677 29.34 C 104.894 25.08 100.287 14.648 93.506 8.128 C 86.725 1.607 76.467 -1.435 68.034 0.651 C 59.601 2.738 43.171 8.649 42.388 19.342 C 41.606 30.035 43.345 39.859 48.474 46.379 C 53.603 52.899 57.776 54.898 57.689 62.288 C 57.602 69.677 56.472 76.458 54.994 78.719 Q 53.516 80.979 84.204 90.716 Z " fill="rgb(255,242,240)"/><path d=" M 45.344 307.009 L 48.343 397.378 Q 34.26 428.935 32.173 438.324 C 30.087 447.713 28.653 490.746 29.565 499.222 C 30.478 507.698 32.173 526.867 29.957 533.387 C 27.74 539.908 23.045 558.946 27.479 561.033 C 31.913 563.119 82.117 574.986 87.594 572.769 C 93.071 570.552 109.502 568.335 107.155 564.945 C 104.807 561.554 72.468 546.167 66.991 540.56 C 61.514 534.952 58.515 533.648 57.602 522.564 C 56.689 511.48 56.298 495.701 57.993 491.137 C 59.688 486.573 75.989 421.894 77.814 418.634 C 79.64 415.374 86.421 403.507 87.594 398.03 C 88.768 392.553 90.854 377.426 93.723 371.037 C 96.592 364.647 101.939 331.525 102.33 325.787 C 102.721 320.05 105.199 303.88 104.025 300.228 C 102.851 296.577 56.167 289.927 50.691 298.403 Q 45.214 306.879 45.344 307.009 Z " fill="rgb(255,242,240)"/><path d=" M 68.034 291.448 Q 67.165 301.011 68.903 306.749 C 70.642 312.486 79.857 333.177 85.769 331.612 C 91.68 330.047 95.505 328.482 95.332 322.571 C 95.158 316.659 94.636 303.967 94.984 302.054 C 95.332 300.141 94.984 295.795 95.332 298.924 C 95.679 302.054 96.027 306.227 98.461 308.139 C 100.895 310.052 103.677 309.878 102.634 307.096 C 101.591 304.314 100.722 298.577 100.548 296.142 C 100.374 293.708 88.377 257.891 87.16 249.024 C 85.943 240.156 84.899 233.376 83.508 219.988 C 82.117 206.6 79.162 198.602 80.031 188.865 C 80.9 179.128 81.77 132.01 82.987 126.098 C 84.204 120.186 86.116 104.364 84.378 101.582 C 82.639 98.801 76.206 89.933 72.207 89.585 C 68.208 89.238 54.82 90.107 53.255 93.758 C 51.69 97.41 46.126 110.276 46.822 118.622 C 47.517 126.967 60.21 182.258 58.993 187.822 C 57.776 193.386 56.559 202.948 59.167 215.293 C 61.775 227.638 71.511 258.761 71.164 264.15 Q 70.816 269.54 68.034 291.448 Z " fill="rgb(249,238,236)"/><path d=" M 108.401 59.622 Q 108.075 59.776 107.995 61.1 C 107.937 62.056 108.169 62.815 107.213 62.236 C 106.256 61.658 105.407 61.328 105.296 60.68 C 105.003 58.952 105.039 59.056 106.604 59.129 Q 108.169 59.201 108.401 59.622 Z " fill="rgb(164,136,136)"/><path d=" M 108.459 59.593 Q 109.589 58.55 108.98 58.028 C 108.372 57.507 108.546 56.637 107.589 57.159 C 106.633 57.68 104.547 56.941 104.807 57.811 C 105.068 58.68 105.155 59.593 106.025 59.332 Q 106.894 59.071 108.459 59.593 Z " fill="rgb(181,151,151)"/><path d=" M 100.846 32.847 C 99.537 32.52 100.307 31.455 97.459 31.292 C 94.612 31.128 92.149 31.128 89.609 31.292 C 87.069 31.455 86.607 31.292 86.761 31.865 C 86.915 32.438 85.684 33.747 86.684 35.139 C 87.685 36.53 90.225 39.232 91.841 38.904 C 93.457 38.577 101.769 38.822 102.154 37.349 C 102.539 35.876 102.154 33.174 100.846 32.847 Z " fill="rgb(255,255,255)"/><ellipse vector-effect="non-scaling-stroke" cx="98.9076186811726" cy="35.25120946545266" rx="1.6980026776969908" ry="2.3472389956399553" fill="rgb(145,182,255)"/><ellipse vector-effect="non-scaling-stroke" cx="98.98900443043024" cy="35.2222312062474" rx="1.2577797612569697" ry="1.738695552325808" fill="rgb(51,51,51)"/></g></g></svg>