<?xml version="1.0" encoding="UTF-8" standalone="no"?><!-- Generator: Gravit.io --><svg xmlns="http://www.w3.org/2000/svg" xmlns:xlink="http://www.w3.org/1999/xlink" style="isolation:isolate" viewBox="0 0 253 645" width="253pt" height="645pt"><defs><clipPath id="_clipPath_rr0tg5gjJUuZT7rIIOK0mG94Whh5AOy4"><rect width="253" height="645"/></clipPath></defs><g clip-path="url(#_clipPath_rr0tg5gjJUuZT7rIIOK0mG94Whh5AOy4)"><g><path d=" M 39.129 295.213 L 42.128 385.582 Q 28.045 417.139 25.958 426.528 C 23.872 435.917 22.437 478.95 23.35 487.426 C 24.263 495.902 25.958 515.071 23.741 521.591 C 21.525 528.111 16.83 547.15 21.264 549.237 C 25.698 551.323 75.902 563.19 81.379 560.973 C 86.856 558.756 103.287 556.539 100.94 553.149 C 98.592 549.758 66.253 534.371 60.776 528.763 C 55.299 523.156 52.3 521.852 51.387 510.768 C 50.474 499.684 50.083 483.905 51.778 479.341 C 53.473 474.777 69.773 410.097 71.599 406.837 C 73.425 403.577 80.206 391.711 81.379 386.234 C 82.553 380.757 84.639 365.63 87.508 359.241 C 90.377 352.851 95.723 319.729 96.115 313.991 C 96.506 308.253 98.984 292.084 97.81 288.432 C 96.636 284.781 49.952 278.13 44.475 286.607 Q 38.999 295.083 39.129 295.213 Z " fill="rgb(249,238,236)"/><path d=" M 29.009 8.969 C 22.054 19.17 13.708 30.761 13.244 41.425 C 12.781 52.089 12.317 73.881 16.954 84.081 C 21.59 94.281 24.372 98.918 29.009 110.045 C 33.645 121.173 38.745 123.955 37.354 131.373 C 35.963 138.792 30.4 149.456 22.517 159.193 C 14.635 168.929 -2.056 186.548 4.899 207.412 C 11.853 228.277 18.345 223.64 19.736 230.595 C 21.126 237.55 18.345 237.086 22.517 237.086 C 26.69 237.086 78.156 244.505 79.083 237.086 C 80.01 229.668 75.895 206.427 77.286 201.385 C 78.677 196.343 82.502 182.607 85.632 174.261 C 88.762 165.916 92.065 130.403 90.631 121.927 C 89.196 113.45 84.372 99.237 85.676 95.064 C 86.98 90.891 94.543 86.718 92.717 78.242 C 90.892 69.766 86.067 61.55 83.459 58.421 C 80.851 55.291 62.073 33.644 61.29 29.471 C 60.508 25.299 59.074 21.126 59.334 19.561 C 59.595 17.996 35.963 -1.231 29.009 8.969 Z " fill="rgb(255,242,240)"/><path d=" M 144.897 90.716 Q 146.114 85.586 147.418 82.891 C 148.722 80.196 150.2 76.024 152.025 73.242 C 153.851 70.46 155.242 68.808 157.068 69.156 C 158.893 69.504 163.24 71.677 164.892 71.068 C 166.544 70.46 169.673 68.982 169.586 67.243 C 169.499 65.505 167.5 64.114 168.282 62.549 C 169.065 60.984 168.369 60.897 168.543 58.724 C 168.717 56.55 168.021 50.378 169.412 49.682 C 170.803 48.987 175.933 48.465 175.237 46.64 C 174.542 44.814 171.847 39.337 169.847 36.034 C 167.848 32.73 167.152 33.599 166.37 29.34 C 165.587 25.08 160.98 14.648 154.199 8.128 C 147.418 1.607 137.16 -1.435 128.727 0.651 C 120.294 2.738 103.864 8.649 103.081 19.342 C 102.299 30.035 104.037 39.859 109.167 46.379 C 114.296 52.899 118.469 54.898 118.382 62.288 C 118.295 69.677 117.165 76.458 115.687 78.719 Q 114.209 80.979 144.897 90.716 Z " fill="rgb(255,242,240)"/><path d=" M 172.946 369.966 L 175.945 460.334 Q 161.862 491.892 159.775 501.281 C 157.689 510.67 156.255 553.702 157.167 562.178 C 158.08 570.655 159.775 589.824 157.559 596.344 C 155.342 602.864 150.647 621.903 155.081 623.989 C 159.515 626.076 209.719 637.942 215.196 635.725 C 220.673 633.508 237.104 631.292 234.757 627.901 C 232.409 624.511 200.07 609.123 194.593 603.516 C 189.116 597.909 186.117 596.605 185.204 585.52 C 184.291 574.436 183.9 558.658 185.595 554.094 C 187.29 549.529 203.591 484.85 205.416 481.59 C 207.242 478.33 214.023 466.463 215.196 460.986 C 216.37 455.51 218.456 440.383 221.325 433.993 C 224.194 427.603 229.541 394.481 229.932 388.744 C 230.323 383.006 232.801 366.836 231.627 363.185 C 230.453 359.534 183.769 352.883 178.293 361.359 Q 172.816 369.835 172.946 369.966 Z " fill="rgb(255,242,240)"/><path d=" M 181.292 287.953 Q 180.422 297.515 182.161 303.253 C 183.9 308.991 193.115 329.681 199.026 328.116 C 204.938 326.552 208.763 324.987 208.589 319.075 C 208.415 313.164 207.894 300.471 208.241 298.559 C 208.589 296.646 208.241 292.299 208.589 295.429 C 208.937 298.559 209.285 302.731 211.719 304.644 C 214.153 306.557 216.935 306.383 215.892 303.601 C 214.849 300.819 213.979 295.081 213.805 292.647 C 213.631 290.213 201.634 254.396 200.417 245.528 C 199.2 236.661 198.157 229.88 196.766 216.492 C 195.375 203.104 192.419 195.106 193.289 185.37 C 194.158 175.633 195.027 128.514 196.244 122.603 C 197.462 116.691 199.374 100.869 197.635 98.087 C 195.897 95.305 189.464 86.438 185.465 86.09 C 181.466 85.742 168.078 86.612 166.513 90.263 C 164.948 93.914 159.384 106.78 160.08 115.126 C 160.775 123.472 173.468 178.762 172.25 184.326 C 171.033 189.89 169.816 199.453 172.424 211.798 C 175.032 224.142 184.769 255.265 184.421 260.655 Q 184.074 266.045 181.292 287.953 Z " fill="rgb(255,242,240)"/><path d=" M 132.325 345.334 Q 131.456 354.897 133.194 360.634 C 134.933 366.372 144.148 387.062 150.06 385.498 C 155.971 383.933 159.797 382.368 159.623 376.456 C 159.449 370.545 158.927 357.852 159.275 355.94 C 159.623 354.027 159.275 349.681 159.623 352.81 C 159.97 355.94 160.318 360.113 162.752 362.025 C 165.186 363.938 167.968 363.764 166.925 360.982 C 165.882 358.2 165.013 352.462 164.839 350.028 C 164.665 347.594 152.668 311.777 151.451 302.91 C 150.234 294.042 149.19 287.261 147.8 273.873 C 146.409 260.485 143.453 252.487 144.322 242.751 C 145.191 233.014 146.061 185.895 147.278 179.984 C 148.495 174.072 150.408 158.25 148.669 155.468 C 146.93 152.686 140.497 143.819 136.498 143.471 C 132.499 143.124 119.111 143.993 117.546 147.644 C 115.981 151.295 110.418 164.162 111.113 172.507 C 111.809 180.853 124.501 236.144 123.284 241.708 C 122.067 247.271 120.85 256.834 123.458 269.179 C 126.066 281.524 135.803 312.646 135.455 318.036 Q 135.107 323.426 132.325 345.334 Z " fill="rgb(249,238,236)"/><path d=" M 106.518 60.823 Q 106.192 60.977 106.112 62.3 C 106.054 63.257 106.286 64.015 105.33 63.437 C 104.374 62.859 103.524 62.528 103.414 61.88 C 103.12 60.152 103.156 60.257 104.721 60.329 Q 106.286 60.402 106.518 60.823 Z " fill="rgb(164,136,136)"/><path d=" M 106.969 72.325 Q 108.099 71.282 107.491 70.76 C 106.882 70.239 107.056 69.369 106.1 69.891 C 105.144 70.412 103.057 69.673 103.318 70.543 C 103.579 71.412 103.666 72.325 104.535 72.064 Q 105.404 71.803 106.969 72.325 Z " fill="rgb(181,151,151)"/><path d=" M 200.667 63.645 C 199.358 63.318 200.128 62.254 197.28 62.09 C 194.432 61.926 191.97 61.926 189.43 62.09 C 186.89 62.254 186.428 62.09 186.582 62.663 C 186.736 63.236 185.504 64.546 186.505 65.937 C 187.506 67.329 190.045 70.03 191.662 69.703 C 193.278 69.375 201.59 69.621 201.975 68.147 C 202.36 66.674 201.975 63.973 200.667 63.645 Z " fill="rgb(255,255,255)"/><g><ellipse vector-effect="non-scaling-stroke" cx="214.41911565220252" cy="42.47932593090746" rx="1.6980026776969908" ry="2.3472389956399553" fill="rgb(145,182,255)"/><ellipse vector-effect="non-scaling-stroke" cx="214.5005014014602" cy="42.450347671702204" rx="1.2577797612569555" ry="1.738695552325808" fill="rgb(51,51,51)"/></g></g></g></svg>