<?xml version="1.0" encoding="UTF-8" standalone="no"?><!-- Generator: Gravit.io --><svg xmlns="http://www.w3.org/2000/svg" xmlns:xlink="http://www.w3.org/1999/xlink" style="isolation:isolate" viewBox="0 0 150 576" width="150pt" height="576pt"><defs><clipPath id="_clipPath_ZafFLomChD4OjZA8HVbGEDbT8WOl5Dr2"><rect width="150" height="576"/></clipPath></defs><g clip-path="url(#_clipPath_ZafFLomChD4OjZA8HVbGEDbT8WOl5Dr2)"><g><path d=" M 84.204 90.716 Q 85.421 85.586 86.725 82.891 C 88.029 80.196 89.507 76.024 91.333 73.242 C 93.158 70.46 94.549 68.808 96.375 69.156 C 98.2 69.504 102.547 71.677 104.199 71.068 C 105.851 70.46 108.98 68.982 108.893 67.243 C 108.806 65.505 106.807 64.114 107.589 62.549 C 108.372 60.984 107.676 60.897 107.85 58.724 C 108.024 56.55 107.329 50.378 108.72 49.682 C 110.11 48.987 115.24 48.465 114.544 46.64 C 113.849 44.814 111.154 39.337 109.154 36.034 C 107.155 32.73 106.459 33.599 105.677 29.34 C 104.894 25.08 100.287 14.648 93.506 8.128 C 86.725 1.607 76.467 -1.435 68.034 0.651 C 59.601 2.738 43.171 8.649 42.388 19.342 C 41.606 30.035 43.345 39.859 48.474 46.379 C 53.603 52.899 57.776 54.898 57.689 62.288 C 57.602 69.677 56.472 76.458 54.994 78.719 Q 53.516 80.979 84.204 90.716 Z " fill="rgb(255,242,240)"/></g></g></svg>