<?xml version="1.0" encoding="UTF-8" standalone="no"?><!-- Generator: Gravit.io --><svg xmlns="http://www.w3.org/2000/svg" xmlns:xlink="http://www.w3.org/1999/xlink" style="isolation:isolate" viewBox="0 0 150 576" width="150pt" height="576pt"><defs><clipPath id="_clipPath_7cN6i5Dn4eYzgg1BFdZXRve25WwGH6am"><rect width="150" height="576"/></clipPath></defs><g clip-path="url(#_clipPath_7cN6i5Dn4eYzgg1BFdZXRve25WwGH6am)"><g><path d=" M 45.344 307.009 L 48.343 397.378 Q 34.26 428.935 32.173 438.324 C 30.087 447.713 28.653 490.746 29.565 499.222 C 30.478 507.698 32.173 526.867 29.957 533.387 C 27.74 539.908 23.045 558.946 27.479 561.033 C 31.913 563.119 82.117 574.986 87.594 572.769 C 93.071 570.552 109.502 568.335 107.155 564.945 C 104.807 561.554 72.468 546.167 66.991 540.56 C 61.514 534.952 58.515 533.648 57.602 522.564 C 56.689 511.48 56.298 495.701 57.993 491.137 C 59.688 486.573 75.989 421.894 77.814 418.634 C 79.64 415.374 86.421 403.507 87.594 398.03 C 88.768 392.553 90.854 377.426 93.723 371.037 C 96.592 364.647 101.939 331.525 102.33 325.787 C 102.721 320.05 105.199 303.88 104.025 300.228 C 102.851 296.577 56.167 289.927 50.691 298.403 Q 45.214 306.879 45.344 307.009 Z " fill="rgb(255,242,240)"/></g></g></svg>