<?xml version="1.0" encoding="UTF-8" standalone="no"?><!-- Generator: Gravit.io --><svg xmlns="http://www.w3.org/2000/svg" xmlns:xlink="http://www.w3.org/1999/xlink" style="isolation:isolate" viewBox="0 0 150 576" width="150pt" height="576pt"><defs><clipPath id="_clipPath_C3QMPC8kWrUJjsnHu3UQ6I2S0bGnxBPV"><rect width="150" height="576"/></clipPath></defs><g clip-path="url(#_clipPath_C3QMPC8kWrUJjsnHu3UQ6I2S0bGnxBPV)"><g><path d=" M 41.012 294.013 L 44.011 384.381 Q 29.928 415.939 27.841 425.328 C 25.755 434.716 24.32 477.749 25.233 486.225 C 26.146 494.701 27.841 513.871 25.624 520.391 C 23.408 526.911 18.713 545.95 23.147 548.036 C 27.58 550.122 77.785 561.989 83.262 559.772 C 88.739 557.555 105.17 555.338 102.822 551.948 C 100.475 548.558 68.135 533.17 62.659 527.563 C 57.182 521.956 54.182 520.652 53.27 509.567 C 52.357 498.483 51.966 482.704 53.661 478.14 C 55.356 473.576 71.656 408.897 73.482 405.637 C 75.308 402.377 82.089 390.51 83.262 385.033 C 84.436 379.556 86.522 364.43 89.391 358.04 C 92.26 351.65 97.606 318.528 97.998 312.79 C 98.389 307.053 100.866 290.883 99.693 287.232 C 98.519 283.58 51.835 276.93 46.358 285.406 Q 40.881 293.882 41.012 294.013 Z " fill="rgb(249,238,236)"/></g></g></svg>