<?xml version="1.0" encoding="UTF-8" standalone="no"?><!-- Generator: Gravit.io --><svg xmlns="http://www.w3.org/2000/svg" xmlns:xlink="http://www.w3.org/1999/xlink" style="isolation:isolate" viewBox="0 0 150 576" width="150pt" height="576pt"><defs><clipPath id="_clipPath_shtp8o8oTJTwV0CmNTLb5Ro05clmNmmw"><rect width="150" height="576"/></clipPath></defs><g clip-path="url(#_clipPath_shtp8o8oTJTwV0CmNTLb5Ro05clmNmmw)"><g><path d=" M 54.009 78.516 C 47.054 88.716 38.708 100.307 38.244 110.971 C 37.781 121.635 37.317 143.427 41.954 153.627 C 46.59 163.828 49.372 168.464 54.009 179.592 C 58.645 190.72 63.745 193.501 62.354 200.92 C 60.963 208.338 55.4 219.002 47.517 228.739 C 39.635 238.476 22.944 256.095 29.899 276.959 C 36.853 297.823 43.345 293.187 44.736 300.141 C 46.126 307.096 43.345 306.633 47.517 306.633 C 51.69 306.633 103.156 314.051 104.083 306.633 C 105.01 299.214 100.895 275.974 102.286 270.931 C 103.677 265.889 107.502 252.153 110.632 243.808 C 113.762 235.462 117.065 199.949 115.631 191.473 C 114.196 182.997 109.372 168.783 110.676 164.61 C 111.98 160.437 119.543 156.264 117.717 147.788 C 115.892 139.312 111.067 131.097 108.459 127.967 C 105.851 124.837 87.073 103.191 86.29 99.018 C 85.508 94.845 84.074 90.672 84.334 89.107 C 84.595 87.542 60.963 68.315 54.009 78.516 Z " fill="rgb(255,242,240)"/></g></g></svg>