<?xml version="1.0" encoding="UTF-8" standalone="no"?><!-- Generator: Gravit.io --><svg xmlns="http://www.w3.org/2000/svg" xmlns:xlink="http://www.w3.org/1999/xlink" style="isolation:isolate" viewBox="0 0 253 645" width="253pt" height="645pt"><defs><clipPath id="_clipPath_a5sA7nFcYHT36zkjsZMVzxAG8i61Lgz5"><rect width="253" height="645"/></clipPath></defs><g clip-path="url(#_clipPath_a5sA7nFcYHT36zkjsZMVzxAG8i61Lgz5)"><g><g><path d=" M 111.88 123.756 C 104.925 133.956 96.579 145.547 96.116 156.211 C 95.652 166.875 95.188 188.667 99.825 198.867 C 104.461 209.068 107.243 213.704 111.88 224.832 C 116.516 235.96 121.617 238.741 120.226 246.16 C 118.835 253.578 113.271 264.242 105.389 273.979 C 97.507 283.716 145.371 329.786 168.503 289.048 C 172.905 281.297 174.937 245.189 173.502 236.713 C 172.068 228.237 167.243 214.023 168.547 209.85 C 169.851 205.677 177.414 201.504 175.589 193.028 C 173.763 184.552 168.938 176.337 166.33 173.207 C 163.722 170.078 144.944 148.431 144.162 144.258 C 143.379 140.085 141.945 135.912 142.206 134.347 C 142.466 132.782 118.835 113.555 111.88 123.756 Z " fill="rgb(255,242,240)"/></g></g></g></svg>