<?xml version="1.0" encoding="UTF-8" standalone="no"?><!-- Generator: Gravit.io --><svg xmlns="http://www.w3.org/2000/svg" xmlns:xlink="http://www.w3.org/1999/xlink" style="isolation:isolate" viewBox="0 0 60 40" width="60pt" height="40pt"><defs><clipPath id="_clipPath_N8TYxYhlzPsYFFCtc5fDvZdU7Tg14nTm"><rect width="60" height="40"/></clipPath></defs><g clip-path="url(#_clipPath_N8TYxYhlzPsYFFCtc5fDvZdU7Tg14nTm)"><path d=" M 28.958 28.483 Q 29.465 25.933 29.671 25.686 C 29.877 25.44 30.356 25.042 30.384 24.809 C 30.411 24.576 30.466 24.452 30.548 24.206 C 30.631 23.959 30.356 23.822 30.548 23.548 C 30.74 23.273 30.932 23.273 30.987 22.944 C 31.042 22.615 31.069 21.656 31.097 21.409 C 31.124 21.162 30.754 19.558 31.152 19.544 C 31.549 19.531 31.974 19.229 31.919 19.544 C 31.864 19.86 31.851 20.957 31.81 21.299 C 31.769 21.642 31.755 22.067 31.535 22.725 C 31.316 23.383 31.398 23.411 31.261 23.986 C 31.124 24.562 30.699 25.111 30.548 25.741 C 30.398 26.372 29.794 29.347 29.671 29.964 C 29.548 30.581 28.848 33.501 28.958 34.022 C 29.068 34.543 29.369 37.34 28.739 36.599 C 28.108 35.859 27.806 34.474 27.916 34.022 C 28.026 33.569 28.698 30.389 28.739 29.964 Q 28.78 29.539 28.958 28.483 Z " fill="rgb(142,126,136)"/><path d=" M 30.713 33.199 Q 30.64 32.907 31.097 32.761 C 31.554 32.614 33.144 31.901 33.29 31.609 C 33.437 31.316 35.173 27.697 35.539 26.29 C 35.904 24.882 37.367 19.106 37.403 18.777 C 37.44 18.448 37.586 18.192 37.403 18.119 C 37.22 18.046 36.233 17.826 36.142 17.351 C 36.05 16.876 35.703 16.473 36.142 16.199 C 36.581 15.925 38.463 16.857 38.664 16.473 C 38.866 16.09 41.534 7.791 41.187 7.59 C 40.84 7.389 38.701 6.676 38.664 5.999 C 38.628 5.323 38.5 5.323 39.213 5.561 C 39.926 5.798 41.406 6.84 42.064 6.767 C 42.722 6.694 45.081 6.402 45.135 6.877 C 45.19 7.352 45.611 8.138 44.861 7.974 C 44.112 7.809 42.558 7.462 42.393 7.974 C 42.229 8.485 41.955 11.501 41.681 11.757 C 41.406 12.013 41.406 11.904 41.406 12.361 C 41.406 12.818 40.876 14.353 40.693 14.938 C 40.511 15.523 39.414 19.581 38.993 20.093 C 38.573 20.605 37.933 22.341 37.732 22.89 C 37.531 23.438 37.403 23.548 37.403 23.986 C 37.403 24.425 37.293 24.498 37.129 25.138 C 36.964 25.778 36.983 26.07 37.019 26.454 C 37.056 26.838 37.038 27.862 36.635 28.483 C 36.233 29.105 35.118 31.901 34.661 32.267 C 34.204 32.633 31.444 34.643 31.261 35.119 C 31.078 35.594 30.219 38.372 30 35.119 Q 29.781 31.865 30.713 33.199 Z " fill="rgb(153,150,125)"/><path d=" M 27.752 31.938 Q 27.185 28.885 27.258 28.264 C 27.331 27.642 27.934 23.091 28.081 22.999 C 28.227 22.908 28.282 22.743 28.3 22.451 C 28.318 22.158 28.574 21.519 28.41 21.244 C 28.245 20.97 28.117 19.928 28.3 19.764 C 28.483 19.599 28.739 19.234 28.794 18.832 C 28.848 18.429 29.104 15.285 29.123 14.664 C 29.141 14.042 29.251 12.726 29.123 12.361 C 28.995 11.995 28.94 11.538 28.958 11.319 C 28.976 11.099 28.647 11.118 28.684 10.661 C 28.72 10.204 28.958 10.569 28.958 10.167 C 28.958 9.765 28.172 4.884 28.41 4.738 C 28.647 4.592 29.177 4.245 29.397 4.738 C 29.616 5.232 29.762 8.065 29.726 8.906 C 29.689 9.747 29.817 10.825 29.945 11.648 C 30.073 12.47 30.256 12.982 30.11 13.074 C 29.963 13.165 30.018 13.311 30.11 13.512 C 30.201 13.713 30.055 13.951 30.274 14.006 C 30.494 14.061 31.06 13.494 31.097 13.293 C 31.133 13.092 31.042 12.744 31.261 12.525 C 31.481 12.306 33.254 9.929 33.4 9.564 C 33.546 9.198 33.327 5.945 33.564 5.615 C 33.802 5.286 34.515 5.268 34.552 5.615 C 34.588 5.963 34.698 9.18 34.552 9.674 C 34.405 10.167 32.577 13.585 32.084 13.841 C 31.59 14.097 30.64 15.103 30.548 15.377 C 30.457 15.651 29.872 17.04 30.11 17.461 C 30.347 17.881 30.823 18.192 31.097 17.954 C 31.371 17.717 32.358 15.103 32.632 15.377 C 32.906 15.651 33.327 15.852 33.126 16.473 C 32.925 17.095 32.797 18.173 31.7 19.325 C 30.603 20.477 29.835 21.208 29.835 21.464 C 29.835 21.72 29.616 21.5 29.506 21.903 C 29.397 22.305 29.086 23.95 29.287 24.151 C 29.488 24.352 29.561 24.096 29.506 24.261 C 29.452 24.425 29.397 24.663 29.287 25.028 C 29.177 25.394 28.995 25.394 28.958 25.906 C 28.921 26.418 29.653 31.664 29.397 32.048 Q 29.141 32.431 27.752 31.938 Z " fill="rgb(113,111,97)"/><path d=" M 32.084 39.286 Q 32.395 38.628 32.523 37.97 C 32.65 37.312 32.852 36.764 33.126 36.435 C 33.4 36.106 33.802 36.014 33.839 35.667 C 33.875 35.32 33.711 34.917 34.003 34.186 C 34.296 33.455 35.849 31.481 36.306 30.896 C 36.763 30.311 39.231 28.081 39.652 27.715 C 40.072 27.35 41.297 26.545 41.352 26.18 C 41.406 25.814 41.096 24.937 41.516 24.754 C 41.936 24.571 42.759 24.297 43.052 24.041 C 43.344 23.785 44.002 23.255 44.422 22.561 C 44.843 21.866 44.971 21.281 45.19 21.573 C 45.41 21.866 45.903 22.232 46.122 22.012 C 46.342 21.793 46.872 21.665 46.506 21.135 C 46.141 20.605 45.94 20.824 46.122 20.586 C 46.305 20.349 46.342 20.276 46.506 20.367 C 46.671 20.458 48.59 21.793 48.864 21.244 C 49.139 20.696 49.394 20.55 48.864 20.203 C 48.334 19.855 47.384 19.873 47.493 19.599 C 47.603 19.325 49.056 17.186 49.468 17.186 C 49.879 17.186 52.168 17.502 52.155 17.022 C 52.141 16.542 52.155 16.542 51.661 16.473 C 51.168 16.405 49.906 16.652 49.742 16.254 C 49.577 15.857 49.317 15.651 48.974 15.596 C 48.631 15.541 48.234 15.541 47.932 15.98 C 47.631 16.419 46.081 19.339 45.903 18.941 C 45.725 18.544 46.04 15.692 45.081 15.815 C 44.121 15.939 44.793 18.845 44.532 18.941 C 44.272 19.037 43.655 18.749 43.545 19.215 C 43.435 19.682 41.681 22.259 41.571 21.793 C 41.461 21.327 42.023 18.886 41.955 18.667 C 41.886 18.448 41.859 18.324 41.955 18.173 C 42.051 18.023 42.133 17.982 42.174 17.735 C 42.215 17.488 42.01 17.351 42.174 17.296 C 42.339 17.241 44.491 16.803 44.422 16.583 C 44.354 16.364 43.792 16.035 43.545 15.98 C 43.298 15.925 42.106 16.789 42.064 16.583 C 42.023 16.378 41.749 15.87 41.571 15.815 C 41.393 15.761 40.159 16.144 39.926 15.98 C 39.693 15.815 37.321 15.02 37.184 15.432 C 37.047 15.843 37.993 16.336 38.226 16.473 C 38.459 16.611 40.392 16.83 40.419 17.022 C 40.447 17.214 40.515 18.571 40.419 18.941 C 40.323 19.311 40.474 19.435 40.419 19.819 C 40.364 20.203 40.159 20.148 40.2 20.367 C 40.241 20.586 40.022 20.477 40.035 20.751 C 40.049 21.025 40.296 21.19 40.2 21.464 C 40.104 21.738 39.953 21.697 40.035 22.122 Q 40.118 22.547 39.926 22.999 Q 39.377 22.711 39.268 22.286 C 39.158 21.861 39.418 22.067 39.268 21.793 C 39.117 21.519 38.815 21.382 38.719 21.135 C 38.623 20.888 38.431 20.847 38.335 20.586 C 38.239 20.326 38.089 19.86 38.006 19.709 C 37.924 19.558 37.17 18.626 37.074 18.283 C 36.978 17.94 36.361 17.104 36.087 17.186 C 35.813 17.269 35.127 14.033 35.045 13.622 C 34.963 13.211 34.922 12.21 35.1 12.141 C 35.278 12.073 36.361 11.757 36.526 11.428 C 36.69 11.099 36.334 10.236 36.087 10.332 C 35.84 10.428 34.702 11.401 34.442 11.264 C 34.181 11.127 33.551 11.14 33.4 10.88 C 33.249 10.619 31.659 9.29 31.481 9.619 C 31.302 9.948 31.014 10.003 31.316 10.551 C 31.618 11.099 33.386 12.237 33.4 12.58 C 33.414 12.923 33.66 14.801 33.29 14.993 C 32.92 15.185 33.414 16.103 33.674 16.254 C 33.935 16.405 34.154 16.282 34.003 16.473 C 33.852 16.665 33.811 17.104 34.003 17.186 C 34.195 17.269 34.579 17.186 34.661 17.406 C 34.743 17.625 34.442 17.927 34.552 18.173 C 34.661 18.42 35.059 18.256 35.155 18.557 C 35.251 18.859 35.95 18.928 35.977 19.106 C 36.005 19.284 35.744 19.572 35.813 19.819 C 35.881 20.065 36.005 20.23 36.197 20.477 C 36.389 20.723 36.279 20.669 36.526 20.751 C 36.773 20.833 37.033 20.628 37.074 20.751 C 37.115 20.874 36.786 21.08 36.855 21.244 C 36.923 21.409 36.8 22.122 37.184 22.286 C 37.568 22.451 37.732 22.012 37.732 22.286 C 37.732 22.561 37.705 22.972 37.897 23.164 C 38.089 23.356 38.431 23.315 38.5 23.602 C 38.568 23.89 38.925 23.918 39.103 24.151 C 39.281 24.384 39.323 24.411 39.103 24.59 C 38.884 24.768 36.827 27.098 36.526 27.332 C 36.224 27.565 35.168 28.702 35.045 28.483 C 34.922 28.264 34.072 26.577 33.839 26.948 C 33.606 27.318 34.072 28.62 33.839 28.702 C 33.606 28.785 33.304 28.497 33.29 28.812 C 33.277 29.127 33.044 30.896 33.126 31.17 C 33.208 31.444 33.414 31.801 33.29 32.102 C 33.167 32.404 32.714 34.077 32.084 34.461 C 31.453 34.844 30.178 38.944 30.384 39.286 C 30.589 39.629 31.563 40.068 31.81 39.89 Q 32.056 39.711 32.084 39.286 Z " fill="rgb(113,111,97)"/><path d=" M 31.097 33.748 Q 33.688 31.65 33.893 31.335 C 34.099 31.019 34.634 30.06 34.881 29.799 C 35.127 29.539 35.292 29.456 35.264 29.361 C 35.237 29.265 33.606 25.604 33.893 25.302 C 34.181 25.001 34.565 24.823 34.661 25.083 C 34.757 25.344 35.731 29.059 36.032 28.867 C 36.334 28.675 40.09 27.702 40.748 27.277 C 41.406 26.852 43.545 25.207 44.039 25.412 C 44.532 25.618 45.108 26.125 44.806 26.673 C 44.505 27.222 41.406 29.744 41.022 29.69 C 40.639 29.635 40.488 29.621 40.035 29.799 C 39.583 29.977 38.856 30.759 38.281 30.951 C 37.705 31.143 36.553 31.623 36.032 31.938 C 35.511 32.253 32.495 34.57 32.139 35.173 C 31.782 35.777 31.714 40.068 31.261 39.999 C 30.809 39.931 29.986 39.944 29.89 38.848 Q 29.794 37.751 31.097 33.748 Z " fill="rgb(153,150,125)"/><path d=" M 29.616 28.373 Q 31.398 26.715 31.645 26.399 C 31.892 26.084 32.824 24.96 32.906 24.699 C 32.989 24.439 33.948 23.767 34.003 23.328 C 34.058 22.89 34.867 20.436 34.771 19.819 C 34.675 19.202 35.168 15.075 35.429 14.719 C 35.689 14.362 36.416 14.266 36.416 14.609 C 36.416 14.952 35.689 20.326 35.593 20.861 C 35.498 21.395 35.127 23.863 34.606 24.37 C 34.085 24.877 34.387 24.37 34.113 24.973 C 33.839 25.577 33.331 25.385 33.181 25.796 C 33.03 26.207 33.181 26.577 32.906 26.838 C 32.632 27.098 30.768 28.744 30.713 29.086 C 30.658 29.429 30.658 30.402 30.439 30.677 C 30.219 30.951 30.631 31.211 30.439 31.39 C 30.247 31.568 30.219 31.677 30.219 32.048 C 30.219 32.418 30.658 32.185 30.713 32.815 C 30.768 33.446 30.877 35.091 30.713 35.777 C 30.548 36.462 31.138 40.027 30.439 39.615 C 29.739 39.204 30.041 38.025 29.835 37.257 C 29.63 36.49 29.191 35.818 29.397 35.009 C 29.602 34.2 29.918 33.652 29.835 33.199 C 29.753 32.747 29.685 32.678 29.397 31.938 C 29.109 31.198 28.794 30.622 28.958 30.128 Q 29.123 29.635 29.616 28.373 Z " fill="rgb(153,150,125)"/><path d=" M 25.229 13.293 Q 25.028 11.904 25.503 11.922 C 25.978 11.94 26.545 11.995 26.435 12.69 C 26.326 13.384 26.6 19.49 26.655 20.422 C 26.71 21.354 26.819 25.668 26.984 26.564 C 27.148 27.459 29.324 30.567 29.616 31.883 C 29.909 33.199 30.201 34.662 30.164 35.502 C 30.128 36.343 30.329 40.255 29.726 39.78 C 29.123 39.305 29.068 36.837 29.013 36.051 C 28.958 35.265 28.702 32.486 28.19 31.609 C 27.678 30.731 25.814 27.514 25.723 26.728 C 25.631 25.942 25.503 19.8 25.394 19.325 C 25.284 18.85 25.101 17.369 25.229 16.857 C 25.357 16.346 25.467 16.017 25.119 15.157 Q 24.772 14.298 25.229 13.293 Z " fill="rgb(142,126,136)"/><path d=" M 22.103 24.699 Q 20.335 25.433 21.719 26.399 C 23.104 27.366 25.524 27.551 25.887 28.044 C 26.25 28.538 28.321 31.156 28.355 31.719 C 28.389 32.281 26.908 38.868 27.423 39.286 C 27.937 39.704 29.431 39.67 29.506 39.286 C 29.582 38.902 30.466 29.772 30.713 29.361 C 30.96 28.949 32.022 27.345 32.303 27.222 C 32.584 27.098 32.872 27.256 33.016 26.673 C 33.16 26.091 32.92 25.94 33.235 25.686 C 33.551 25.433 34.812 24.432 34.881 23.986 C 34.949 23.541 35.861 21.628 35.868 20.641 C 35.875 19.654 36.21 16.693 36.197 16.199 C 36.183 15.706 36.834 14.335 36.745 13.951 C 36.656 13.567 36.149 13.361 35.868 13.732 C 35.587 14.102 35.038 15.157 34.881 16.583 C 34.723 18.009 34.421 21.82 34.058 22.67 C 33.695 23.52 30.987 27.002 30.439 27.441 Q 29.89 27.88 30 27.935 Q 30.288 26.913 30.439 26.399 C 30.589 25.885 32.077 21.717 31.919 20.861 C 31.762 20.004 31.522 20.312 31.755 20.148 C 31.988 19.983 32.66 19.517 32.632 18.886 C 32.605 18.256 32.221 16.624 31.919 17.296 C 31.618 17.968 31.35 20.49 31.042 21.573 C 30.733 22.657 30.569 24.905 30.219 25.138 C 29.87 25.371 29.856 25.378 29.616 24.973 C 29.376 24.569 28.636 23.088 28.574 23.767 C 28.512 24.446 29.534 25.261 29.506 25.686 C 29.479 26.111 29.253 28.168 29.068 28.044 Q 28.883 27.921 28.739 27.77 Q 29.027 25.83 29.068 25.302 C 29.109 24.775 29.431 22.273 29.506 21.683 C 29.582 21.094 30.267 15.891 30.439 15.541 C 30.61 15.192 34.264 10.592 34.277 10.003 C 34.291 9.413 34.709 5.472 34.387 5.396 C 34.065 5.321 33.516 5.184 33.4 5.89 C 33.283 6.596 33.181 9.728 33.016 10.003 Q 32.852 10.277 30.219 14.061 Q 30.055 11.332 29.89 10.825 C 29.726 10.318 29.781 4.937 29.342 4.738 C 28.903 4.539 28.444 4.32 28.355 4.738 C 28.266 5.156 29.232 10.167 29.068 10.386 C 28.903 10.606 28.752 10.654 28.848 10.99 C 28.944 11.326 29.191 15.089 29.068 15.541 C 28.944 15.994 27.587 26.742 27.423 26.673 C 27.258 26.605 25.695 25.357 24.461 24.973 Q 23.227 24.59 22.103 24.699 Z " fill="rgb(130,127,105)"/><path d=" M 26.872 31.016 Q 26.005 31.915 25.936 31.93 Q 25.868 31.946 25.657 31.93 L 25.915 31.823 Q 26.677 30.912 26.743 30.93 Q 26.808 30.947 26.872 31.016 Z " fill="rgb(210,205,206)"/><path d=" M 25.465 27.233 Q 24.521 28.051 24.452 28.06 Q 24.382 28.069 24.173 28.035 L 24.44 27.951 Q 25.28 27.112 25.344 27.136 Q 25.408 27.159 25.465 27.233 Z " fill="rgb(210,205,206)"/><path d=" M 16.236 22.286 Q 16.418 23.383 16.565 23.877 C 16.711 24.37 16.656 25.156 17.058 25.248 C 17.46 25.339 17.533 25.047 17.771 25.357 C 18.009 25.668 18.21 26.271 18.539 26.344 C 18.868 26.418 18.923 26.198 19.142 26.454 C 19.361 26.71 19.8 26.71 20.074 26.893 C 20.348 27.076 20.659 26.82 20.952 27.167 C 21.244 27.514 22.999 30.329 23.694 31.061 C 24.388 31.792 26.637 34.899 26.874 36.051 C 27.112 37.202 27.423 39.67 27.971 39.67 C 28.519 39.67 28.337 33.876 27.971 33.309 C 27.605 32.742 26.033 31.115 25.503 30.073 C 24.973 29.031 23.84 28.209 23.2 26.728 C 22.56 25.248 21.665 23.584 20.952 22.999 C 20.239 22.414 20.147 22.926 20.074 23.438 C 20.001 23.95 20.44 24.242 19.91 24.37 C 19.38 24.498 19.453 24.9 19.142 24.644 C 18.831 24.389 17.277 22.853 17.058 22.286 Q 16.839 21.72 16.236 22.286 Z " fill="rgb(153,150,125)"/><path d=" M 8.448 12.361 C 8.547 12.454 8.826 12.53 8.887 12.635 C 8.948 12.739 9.114 12.87 9.216 12.909 C 9.318 12.948 9.637 13.001 9.655 13.128 C 9.673 13.256 9.682 13.471 9.874 13.622 C 10.066 13.773 10.363 13.819 10.423 13.896 C 10.483 13.973 10.743 14.067 10.752 14.17 C 10.76 14.274 10.857 14.474 11.19 14.609 C 11.524 14.744 12.553 14.719 12.677 14.909 C 12.802 15.1 14.673 19.788 15.248 20.477 C 15.824 21.166 22.432 28.209 23.529 29.361 C 24.626 30.512 26.956 35.228 26.929 36.38 C 26.902 37.531 27.944 39.506 28.19 39.78 C 28.437 40.054 28.19 36.38 28.19 35.228 C 28.19 34.077 25.887 30.649 24.955 29.525 C 24.023 28.401 19.937 24.178 18.703 22.506 C 17.469 20.833 16.383 20.813 15.523 17.735 C 14.662 14.657 13.84 11.476 14.097 11.319 C 14.354 11.161 15.769 10.64 15.797 10.386 C 15.824 10.133 15.766 9.622 15.358 9.728 C 14.95 9.835 13.559 10.479 13.494 10.332 C 13.428 10.184 13.446 9.057 13.165 8.906 C 12.884 8.755 12.554 8.553 12.452 8.906 C 12.349 9.259 12.479 9.797 12.342 9.728 C 12.205 9.66 11.094 8.618 11.081 9.015 C 11.067 9.413 11.382 9.907 11.739 10.167 C 12.095 10.428 12.164 11.648 12.232 12.141 C 12.301 12.635 12.301 13.677 11.958 13.677 C 11.615 13.677 11.451 13.636 11.3 13.457 C 11.149 13.279 10.587 12.978 10.423 12.744 C 10.258 12.511 9.6 12.114 9.216 12.032 C 8.832 11.949 8.627 11.894 8.558 12.032 C 8.49 12.169 8.35 12.267 8.448 12.361 Z " fill="rgb(113,111,97)"/><path d=" M 18.21 12.361 Q 18.546 18.105 18.758 19.106 C 18.971 20.107 19.814 22.691 20.019 23.383 C 20.225 24.075 26.168 34.083 26.6 34.899 C 27.032 35.715 28.019 39.382 28.245 39.78 C 28.471 40.177 29.952 39.883 29.89 39.506 C 29.829 39.129 29.637 36.202 29.342 35.557 C 29.047 34.913 26.977 32.322 26.161 31.006 C 25.346 29.69 21.068 23.308 21.006 22.89 C 20.945 22.471 21.089 22.471 21.006 22.122 C 20.924 21.772 20.691 21.779 20.623 21.354 C 20.554 20.929 20.328 19.908 20.184 19.709 C 20.04 19.51 19.862 18.633 19.91 18.064 C 19.958 17.495 20.013 12.683 19.8 12.251 C 19.588 11.819 19.204 11.84 18.758 12.086 Q 18.313 12.333 18.21 12.361 Z " fill="rgb(164,148,158)"/><path d=" M 23.529 10.277 Q 22.535 12.875 22.542 13.622 C 22.549 14.369 22.638 14.143 22.542 14.39 C 22.446 14.636 22.288 14.938 22.542 15.157 C 22.796 15.377 22.919 15.589 22.816 15.761 C 22.713 15.932 22.72 16.22 22.706 16.528 C 22.693 16.837 22.556 17.214 22.706 17.735 C 22.857 18.256 23.022 17.844 22.981 18.338 C 22.94 18.832 22.782 18.66 22.706 18.941 C 22.631 19.222 22.912 19.812 23.09 20.093 C 23.269 20.374 22.994 20.168 23.09 20.97 C 23.186 21.772 23.193 22.293 23.365 22.506 C 23.536 22.718 23.625 22.759 23.529 23.273 C 23.433 23.788 23.769 24.507 23.858 24.754 C 23.947 25.001 23.933 25.35 24.187 25.577 C 24.441 25.803 24.818 26.386 24.845 26.619 C 24.873 26.852 25.167 27.681 25.339 27.77 C 25.51 27.859 25.496 28.284 25.668 28.648 C 25.839 29.011 26.531 30.821 26.874 31.17 C 27.217 31.52 27.82 32.815 27.971 33.309 C 28.122 33.802 28.876 38.909 29.616 39.615 C 30.356 40.321 30.706 39.67 30.713 39.286 C 30.72 38.902 29.273 33.768 28.903 32.87 C 28.533 31.972 28.334 30.786 27.971 30.402 C 27.608 30.019 27.237 29.374 27.094 28.812 C 26.95 28.25 26.826 27.517 26.6 27.112 C 26.374 26.708 26.305 26.44 26.052 25.741 C 25.798 25.042 25.825 24.658 25.503 24.48 C 25.181 24.302 24.859 24.144 24.845 23.493 C 24.831 22.842 24.516 22.465 24.571 22.067 C 24.626 21.669 24.681 21.752 24.571 21.464 C 24.461 21.176 24.475 20.888 24.571 20.641 C 24.667 20.394 24.667 19.997 24.461 19.599 C 24.256 19.202 24.016 18.749 24.187 18.338 C 24.358 17.927 24.221 17.769 24.187 17.406 C 24.153 17.042 24.489 16.062 24.187 15.761 C 23.885 15.459 23.769 15.665 23.858 15.377 C 23.947 15.089 24.201 15.02 24.187 14.664 C 24.173 14.307 23.865 13.601 23.968 13.183 C 24.071 12.765 23.885 12.511 24.461 12.361 C 25.037 12.21 25.709 12.415 26.052 11.922 C 26.394 11.428 25.771 11.524 26.052 11.374 C 26.333 11.223 26.819 11.161 26.874 10.935 C 26.929 10.709 27.34 10.565 27.258 10.277 C 27.176 9.989 26.867 10.16 27.094 9.838 C 27.32 9.516 27.717 9.769 27.971 9.509 C 28.225 9.249 28.615 8.673 28.739 8.467 C 28.862 8.261 28.718 7.281 28.903 7.041 C 29.088 6.801 28.293 6.966 27.971 7.151 C 27.649 7.336 27.094 8.652 26.6 8.961 C 26.106 9.269 24.598 11.401 24.571 11.209 C 24.544 11.017 24.331 10.338 24.571 10.112 C 24.811 9.886 26.017 7.425 26.052 7.041 C 26.086 6.657 26.36 5.568 26.49 4.848 C 26.621 4.128 27.018 2.407 26.49 2.27 C 25.962 2.133 25.702 2.017 25.503 2.599 C 25.304 3.182 25.524 3.874 25.065 3.97 C 24.605 4.066 24.139 3.155 23.529 3.806 C 22.919 4.457 24.777 5.005 24.845 5.286 C 24.914 5.568 24.687 6.678 24.461 7.151 C 24.235 7.624 24.071 8.632 23.968 9.125 Q 23.865 9.619 23.529 10.277 Z " fill="rgb(113,111,97)"/><path d=" M 29.315 5.417 Q 30.026 4.39 30.028 4.32 Q 30.03 4.25 29.973 4.046 L 29.918 4.32 Q 29.175 5.246 29.205 5.307 Q 29.235 5.368 29.315 5.417 Z " fill="rgb(210,205,206)"/><path d=" M 28.667 5.387 Q 27.446 5.123 27.397 5.073 Q 27.348 5.023 27.25 4.836 L 27.477 4.998 Q 28.653 5.167 28.672 5.232 Q 28.692 5.296 28.667 5.387 Z " fill="rgb(210,205,206)"/><path d=" M 26.197 4.397 Q 27.307 3.826 27.377 3.833 Q 27.447 3.841 27.642 3.923 L 27.363 3.942 Q 26.348 4.558 26.291 4.52 Q 26.235 4.482 26.197 4.397 Z " fill="rgb(210,205,206)"/><path d=" M 28.729 6.824 Q 27.508 6.561 27.459 6.511 Q 27.41 6.461 27.312 6.274 L 27.539 6.436 Q 28.715 6.605 28.734 6.669 Q 28.754 6.734 28.729 6.824 Z " fill="rgb(210,205,206)"/><path d=" M 25.468 3.699 Q 24.248 3.435 24.198 3.385 Q 24.149 3.335 24.051 3.148 L 24.278 3.31 Q 25.454 3.479 25.473 3.544 Q 25.493 3.609 25.468 3.699 Z " fill="rgb(210,205,206)"/><path d=" M 29.033 9.676 Q 27.812 9.413 27.763 9.363 Q 27.714 9.313 27.616 9.125 L 27.843 9.288 Q 29.019 9.456 29.038 9.521 Q 29.058 9.586 29.033 9.676 Z " fill="rgb(210,205,206)"/><path d=" M 29.572 6.382 Q 30.69 6.939 30.725 7 Q 30.76 7.061 30.809 7.267 L 30.629 7.053 Q 29.532 6.599 29.529 6.531 Q 29.526 6.463 29.572 6.382 Z " fill="rgb(210,205,206)"/><path d=" M 27.539 8.04 Q 26.594 7.224 26.575 7.156 Q 26.556 7.088 26.559 6.877 L 26.681 7.129 Q 27.632 7.84 27.618 7.907 Q 27.604 7.973 27.539 8.04 Z " fill="rgb(210,205,206)"/><path d=" M 28.626 7.854 Q 29.214 7.155 29.264 7.14 Q 29.313 7.126 29.468 7.127 L 29.285 7.218 Q 28.773 7.919 28.725 7.91 Q 28.676 7.9 28.626 7.854 Z " fill="rgb(210,205,206)"/><path d=" M 27.197 9.567 Q 27.713 9.99 27.724 10.026 Q 27.735 10.062 27.736 10.175 L 27.667 10.042 Q 27.15 9.675 27.156 9.639 Q 27.163 9.603 27.197 9.567 Z " fill="rgb(210,205,206)"/><path d=" M 24.051 4.436 Q 23.746 4.817 23.72 4.825 Q 23.694 4.834 23.611 4.836 L 23.708 4.784 Q 23.971 4.403 23.998 4.407 Q 24.024 4.411 24.051 4.436 Z " fill="rgb(210,205,206)"/><path d=" M 26.854 10.496 Q 27.567 11.521 27.569 11.591 Q 27.571 11.662 27.515 11.866 L 27.459 11.592 Q 26.715 10.667 26.744 10.606 Q 26.774 10.545 26.854 10.496 Z " fill="rgb(210,205,206)"/><path d=" M 26.309 9.401 Q 25.872 8.231 25.888 8.162 Q 25.903 8.094 26.008 7.91 L 25.994 8.189 Q 26.487 9.27 26.443 9.321 Q 26.399 9.373 26.309 9.401 Z " fill="rgb(210,205,206)"/><path d=" M 26.327 11.006 Q 26.461 12.248 26.429 12.31 Q 26.397 12.373 26.25 12.525 L 26.333 12.258 Q 26.123 11.089 26.178 11.05 Q 26.234 11.011 26.327 11.006 Z " fill="rgb(210,205,206)"/><path d=" M 24.539 7.58 Q 23.431 7.003 23.397 6.942 Q 23.363 6.88 23.318 6.673 L 23.494 6.89 Q 24.583 7.364 24.585 7.432 Q 24.586 7.5 24.539 7.58 Z " fill="rgb(210,205,206)"/><path d=" M 25.657 6.786 Q 26.751 6.184 26.821 6.19 Q 26.891 6.195 27.088 6.273 L 26.81 6.299 Q 25.812 6.942 25.755 6.906 Q 25.697 6.87 25.657 6.786 Z " fill="rgb(210,205,206)"/><path d=" M 24.938 8.66 Q 24.832 9.904 24.788 9.959 Q 24.745 10.014 24.571 10.135 L 24.704 9.889 Q 24.722 8.702 24.784 8.674 Q 24.845 8.646 24.938 8.66 Z " fill="rgb(210,205,206)"/><path d=" M 24.938 30.934 Q 23.994 31.752 23.925 31.762 Q 23.855 31.771 23.646 31.737 L 23.913 31.653 Q 24.753 30.814 24.817 30.837 Q 24.881 30.86 24.938 30.934 Z " fill="rgb(210,205,206)"/><path d=" M 22.613 27.494 Q 21.387 27.732 21.322 27.705 Q 21.257 27.678 21.093 27.544 L 21.366 27.604 Q 22.513 27.297 22.557 27.349 Q 22.6 27.401 22.613 27.494 Z " fill="rgb(210,205,206)"/><path d=" M 21 23.319 Q 21.982 22.548 22.052 22.542 Q 22.122 22.536 22.329 22.58 L 22.059 22.651 Q 21.179 23.449 21.116 23.422 Q 21.054 23.396 21 23.319 Z " fill="rgb(210,205,206)"/><path d=" M 23.323 26.973 Q 24.476 26.493 24.545 26.506 Q 24.614 26.519 24.802 26.617 L 24.522 26.613 Q 23.461 27.145 23.407 27.103 Q 23.354 27.061 23.323 26.973 Z " fill="rgb(210,205,206)"/><path d=" M 15.589 10.304 Q 16.838 10.264 16.898 10.301 Q 16.957 10.338 17.098 10.496 L 16.838 10.393 Q 15.657 10.514 15.622 10.455 Q 15.587 10.397 15.589 10.304 Z " fill="rgb(210,205,206)"/><path d=" M 14.16 10.196 Q 14.228 8.949 14.269 8.893 Q 14.311 8.836 14.481 8.71 L 14.356 8.96 Q 14.375 10.147 14.314 10.177 Q 14.253 10.207 14.16 10.196 Z " fill="rgb(210,205,206)"/><path d=" M 12.225 11.404 Q 10.988 11.23 10.935 11.184 Q 10.882 11.137 10.771 10.958 L 11.01 11.103 Q 12.194 11.186 12.218 11.249 Q 12.243 11.313 12.225 11.404 Z " fill="rgb(210,205,206)"/><path d=" M 11.579 14.663 Q 11.3 15.88 11.249 15.929 Q 11.198 15.978 11.01 16.073 L 11.175 15.848 Q 11.359 14.675 11.424 14.656 Q 11.489 14.637 11.579 14.663 Z " fill="rgb(210,205,206)"/><path d=" M 22.561 29.046 Q 22.282 30.263 22.231 30.312 Q 22.18 30.361 21.992 30.456 L 22.157 30.231 Q 22.341 29.058 22.406 29.039 Q 22.471 29.02 22.561 29.046 Z " fill="rgb(210,205,206)"/><path d=" M 17.181 25.141 Q 16.752 26.314 16.696 26.356 Q 16.639 26.398 16.44 26.469 L 16.632 26.267 Q 16.961 25.126 17.028 25.115 Q 17.095 25.104 17.181 25.141 Z " fill="rgb(210,205,206)"/><path d=" M 16.76 23.662 Q 15.524 23.482 15.472 23.435 Q 15.419 23.389 15.309 23.208 L 15.547 23.355 Q 16.731 23.443 16.755 23.507 Q 16.779 23.57 16.76 23.662 Z " fill="rgb(210,205,206)"/><path d=" M 16.432 22.497 Q 15.196 22.317 15.144 22.271 Q 15.091 22.224 14.98 22.043 L 15.218 22.19 Q 16.402 22.278 16.427 22.342 Q 16.451 22.405 16.432 22.497 Z " fill="rgb(210,205,206)"/><path d=" M 14.66 14.9 Q 15.849 15.282 15.893 15.337 Q 15.937 15.392 16.016 15.588 L 15.806 15.404 Q 14.653 15.12 14.64 15.054 Q 14.626 14.987 14.66 14.9 Z " fill="rgb(210,205,206)"/><path d=" M 17.034 20.881 Q 17.517 19.729 17.575 19.69 Q 17.634 19.651 17.836 19.589 L 17.634 19.782 Q 17.253 20.907 17.186 20.914 Q 17.118 20.922 17.034 20.881 Z " fill="rgb(210,205,206)"/><path d=" M 13.076 9.284 Q 13.559 8.132 13.617 8.093 Q 13.675 8.054 13.877 7.992 L 13.676 8.186 Q 13.295 9.31 13.227 9.318 Q 13.16 9.325 13.076 9.284 Z " fill="rgb(210,205,206)"/><path d=" M 11.23 9.237 Q 10.205 8.524 10.178 8.459 Q 10.152 8.394 10.134 8.183 L 10.281 8.42 Q 11.301 9.028 11.294 9.096 Q 11.287 9.163 11.23 9.237 Z " fill="rgb(210,205,206)"/><path d=" M 12.168 13.809 Q 11.143 13.096 11.116 13.031 Q 11.09 12.965 11.072 12.755 L 11.219 12.992 Q 12.239 13.6 12.232 13.668 Q 12.225 13.735 12.168 13.809 Z " fill="rgb(210,205,206)"/><path d=" M 8.941 12.235 Q 7.916 11.522 7.89 11.457 Q 7.864 11.392 7.845 11.181 L 7.993 11.419 Q 9.013 12.026 9.006 12.094 Q 8.999 12.161 8.941 12.235 Z " fill="rgb(210,205,206)"/><path d=" M 9.657 12.622 Q 9.725 11.375 9.69 11.314 Q 9.654 11.254 9.499 11.109 L 9.596 11.372 Q 9.449 12.55 9.507 12.586 Q 9.564 12.622 9.657 12.622 Z " fill="rgb(210,205,206)"/><path d=" M 23.196 19.027 Q 22.09 18.448 22.056 18.386 Q 22.022 18.325 21.977 18.118 L 22.153 18.335 Q 23.241 18.811 23.242 18.879 Q 23.244 18.947 23.196 19.027 Z " fill="rgb(210,205,206)"/><path d=" M 19.693 13.675 Q 20.845 13.195 20.914 13.208 Q 20.983 13.221 21.171 13.319 L 20.891 13.316 Q 19.83 13.848 19.777 13.806 Q 19.724 13.764 19.693 13.675 Z " fill="rgb(210,205,206)"/><path d=" M 19.399 11.985 Q 20.274 11.095 20.343 11.08 Q 20.412 11.065 20.623 11.082 L 20.364 11.188 Q 19.593 12.091 19.527 12.073 Q 19.462 12.054 19.399 11.985 Z " fill="rgb(210,205,206)"/><path d=" M 18.569 12.738 Q 17.326 12.615 17.271 12.571 Q 17.217 12.527 17.098 12.352 L 17.342 12.487 Q 18.529 12.521 18.556 12.583 Q 18.583 12.645 18.569 12.738 Z " fill="rgb(210,205,206)"/><path d=" M 26.686 32.057 Q 27.925 31.903 27.988 31.934 Q 28.051 31.966 28.206 32.11 L 27.938 32.032 Q 26.772 32.26 26.732 32.205 Q 26.692 32.15 26.686 32.057 Z " fill="rgb(210,205,206)"/><path d=" M 23.538 11.743 Q 22.561 10.964 22.539 10.897 Q 22.518 10.831 22.513 10.619 L 22.644 10.866 Q 23.622 11.539 23.611 11.606 Q 23.6 11.673 23.538 11.743 Z " fill="rgb(210,205,206)"/><path d=" M 23.833 14.759 Q 25.022 14.378 25.09 14.397 Q 25.158 14.416 25.336 14.529 L 25.058 14.502 Q 23.955 14.942 23.906 14.896 Q 23.856 14.849 23.833 14.759 Z " fill="rgb(210,205,206)"/><path d=" M 23.048 17.67 Q 22.705 18.871 22.652 18.917 Q 22.598 18.963 22.405 19.048 L 22.582 18.832 Q 22.827 17.67 22.893 17.655 Q 22.959 17.639 23.048 17.67 Z " fill="rgb(210,205,206)"/><path d=" M 18.679 12.724 Q 18.336 13.924 18.283 13.97 Q 18.229 14.016 18.036 14.102 L 18.213 13.886 Q 18.458 12.724 18.524 12.708 Q 18.59 12.693 18.679 12.724 Z " fill="rgb(210,205,206)"/><path d=" M 12.295 10.365 Q 11.952 11.565 11.899 11.611 Q 11.846 11.657 11.652 11.743 L 11.829 11.527 Q 12.074 10.365 12.141 10.349 Q 12.207 10.334 12.295 10.365 Z " fill="rgb(210,205,206)"/><path d=" M 12.554 14.668 Q 12.211 15.869 12.158 15.915 Q 12.104 15.961 11.911 16.047 L 12.088 15.83 Q 12.333 14.669 12.399 14.653 Q 12.465 14.638 12.554 14.668 Z " fill="rgb(210,205,206)"/><path d=" M 13.877 14.909 Q 13.535 16.11 13.481 16.156 Q 13.428 16.202 13.235 16.288 L 13.412 16.071 Q 13.657 14.909 13.723 14.894 Q 13.789 14.879 13.877 14.909 Z " fill="rgb(210,205,206)"/><path d=" M 13.877 13.982 Q 13.535 15.183 13.481 15.229 Q 13.428 15.275 13.235 15.361 L 13.412 15.144 Q 13.657 13.983 13.723 13.967 Q 13.789 13.952 13.877 13.982 Z " fill="rgb(210,205,206)"/><path d=" M 13.477 12.775 Q 13.134 13.976 13.081 14.022 Q 13.027 14.068 12.834 14.153 L 13.011 13.937 Q 13.256 12.775 13.322 12.76 Q 13.388 12.744 13.477 12.775 Z " fill="rgb(210,205,206)"/><path d=" M 13.464 12.073 Q 14.68 12.36 14.728 12.411 Q 14.776 12.462 14.871 12.651 L 14.647 12.484 Q 13.475 12.293 13.456 12.228 Q 13.438 12.163 13.464 12.073 Z " fill="rgb(210,205,206)"/><path d=" M 12.321 12.836 Q 12.551 11.609 12.6 11.558 Q 12.649 11.507 12.834 11.404 L 12.677 11.636 Q 12.541 12.816 12.476 12.837 Q 12.412 12.858 12.321 12.836 Z " fill="rgb(210,205,206)"/><path d=" M 13.136 13.943 Q 11.9 13.77 11.847 13.723 Q 11.794 13.677 11.682 13.497 L 11.921 13.643 Q 13.106 13.725 13.13 13.788 Q 13.154 13.851 13.136 13.943 Z " fill="rgb(210,205,206)"/><path d=" M 14.204 13.077 Q 14.088 14.321 14.044 14.376 Q 14 14.431 13.826 14.55 L 13.96 14.305 Q 13.988 13.118 14.05 13.091 Q 14.112 13.064 14.204 13.077 Z " fill="rgb(210,205,206)"/><path d=" M 13.577 10.8 Q 14.824 10.858 14.881 10.899 Q 14.938 10.941 15.066 11.109 L 14.815 10.987 Q 13.628 11.014 13.598 10.954 Q 13.567 10.893 13.577 10.8 Z " fill="rgb(210,205,206)"/><path d=" M 10.134 13.072 Q 10.134 11.823 10.173 11.764 Q 10.212 11.706 10.374 11.57 L 10.263 11.827 Q 10.346 13.011 10.286 13.044 Q 10.227 13.077 10.134 13.072 Z " fill="rgb(210,205,206)"/><path d=" M 13.422 16.699 Q 12.175 16.756 12.114 16.72 Q 12.054 16.685 11.911 16.528 L 12.172 16.628 Q 13.352 16.49 13.387 16.548 Q 13.423 16.606 13.422 16.699 Z " fill="rgb(210,205,206)"/><path d=" M 13.988 17.59 Q 14.103 18.834 14.07 18.896 Q 14.037 18.958 13.887 19.108 L 13.974 18.842 Q 13.783 17.67 13.839 17.632 Q 13.895 17.594 13.988 17.59 Z " fill="rgb(210,205,206)"/><path d=" M 15.248 17.737 Q 16.485 17.565 16.548 17.595 Q 16.612 17.625 16.768 17.767 L 16.499 17.693 Q 15.337 17.938 15.296 17.884 Q 15.256 17.83 15.248 17.737 Z " fill="rgb(210,205,206)"/><path d=" M 15.66 19.396 Q 16.897 19.224 16.961 19.254 Q 17.024 19.284 17.181 19.426 L 16.911 19.352 Q 15.75 19.597 15.709 19.543 Q 15.668 19.489 15.66 19.396 Z " fill="rgb(210,205,206)"/><path d=" M 16.397 20.478 Q 17.287 21.354 17.302 21.423 Q 17.316 21.491 17.299 21.702 L 17.194 21.443 Q 16.292 20.671 16.31 20.606 Q 16.328 20.54 16.397 20.478 Z " fill="rgb(210,205,206)"/><path d=" M 15.872 20.922 Q 15.718 22.161 15.672 22.215 Q 15.627 22.268 15.449 22.383 L 15.591 22.142 Q 15.654 20.956 15.717 20.931 Q 15.78 20.905 15.872 20.922 Z " fill="rgb(210,205,206)"/><path d=" M 15.243 19.849 Q 14.165 20.481 14.095 20.477 Q 14.025 20.474 13.826 20.402 L 14.104 20.368 Q 15.083 19.697 15.141 19.731 Q 15.2 19.766 15.243 19.849 Z " fill="rgb(210,205,206)"/><path d=" M 15.033 18.681 Q 13.876 18.211 13.836 18.154 Q 13.796 18.096 13.732 17.894 L 13.928 18.094 Q 15.056 18.462 15.064 18.529 Q 15.073 18.597 15.033 18.681 Z " fill="rgb(210,205,206)"/><path d=" M 18.762 16.047 Q 18.43 14.843 18.452 14.776 Q 18.473 14.709 18.594 14.535 L 18.555 14.812 Q 18.95 15.932 18.901 15.979 Q 18.853 16.027 18.762 16.047 Z " fill="rgb(210,205,206)"/><path d=" M 23.122 17.402 Q 23.875 16.406 23.941 16.382 Q 24.008 16.359 24.219 16.349 L 23.976 16.487 Q 23.327 17.481 23.26 17.472 Q 23.193 17.462 23.122 17.402 Z " fill="rgb(210,205,206)"/><path d=" M 24.187 21.889 Q 25.435 21.881 25.494 21.919 Q 25.553 21.957 25.69 22.119 L 25.433 22.009 Q 24.249 22.1 24.215 22.041 Q 24.182 21.982 24.187 21.889 Z " fill="rgb(210,205,206)"/><path d=" M 21.632 25.473 Q 22.399 26.459 22.404 26.529 Q 22.41 26.599 22.364 26.806 L 22.295 26.535 Q 21.502 25.651 21.529 25.589 Q 21.555 25.526 21.632 25.473 Z " fill="rgb(210,205,206)"/><path d=" M 18.036 25.414 Q 17.72 26.622 17.668 26.669 Q 17.616 26.716 17.424 26.806 L 17.596 26.586 Q 17.815 25.419 17.881 25.402 Q 17.947 25.385 18.036 25.414 Z " fill="rgb(210,205,206)"/><path d=" M 17.424 23.492 Q 16.273 23.977 16.204 23.964 Q 16.135 23.951 15.947 23.854 L 16.227 23.857 Q 17.286 23.32 17.339 23.362 Q 17.393 23.404 17.424 23.492 Z " fill="rgb(210,205,206)"/><path d=" M 19.76 22.003 Q 18.675 21.385 18.643 21.322 Q 18.611 21.26 18.574 21.052 L 18.742 21.275 Q 19.812 21.789 19.812 21.857 Q 19.811 21.925 19.76 22.003 Z " fill="rgb(210,205,206)"/><path d=" M 22.473 25.843 Q 22.303 24.606 22.334 24.543 Q 22.364 24.479 22.506 24.323 L 22.431 24.592 Q 22.675 25.754 22.621 25.795 Q 22.567 25.836 22.473 25.843 Z " fill="rgb(210,205,206)"/><path d=" M 20.387 21.961 Q 21.265 21.073 21.334 21.058 Q 21.402 21.043 21.613 21.062 L 21.354 21.166 Q 20.58 22.067 20.515 22.048 Q 20.45 22.03 20.387 21.961 Z " fill="rgb(210,205,206)"/><path d=" M 23.845 18.075 Q 25.084 18.231 25.137 18.277 Q 25.191 18.322 25.305 18.501 L 25.064 18.358 Q 23.878 18.293 23.853 18.23 Q 23.828 18.167 23.845 18.075 Z " fill="rgb(210,205,206)"/><path d=" M 26.492 17.579 Q 27.122 18.657 27.119 18.727 Q 27.115 18.797 27.043 18.996 L 27.009 18.719 Q 26.34 17.738 26.374 17.68 Q 26.409 17.622 26.492 17.579 Z " fill="rgb(210,205,206)"/><path d=" M 25.786 20.457 Q 25.314 21.613 25.256 21.653 Q 25.198 21.693 24.996 21.757 L 25.196 21.561 Q 25.567 20.433 25.634 20.425 Q 25.701 20.417 25.786 20.457 Z " fill="rgb(210,205,206)"/><path d=" M 23.032 14.818 Q 21.828 15.148 21.761 15.126 Q 21.694 15.104 21.52 14.983 L 21.797 15.022 Q 22.918 14.63 22.965 14.678 Q 23.013 14.727 23.032 14.818 Z " fill="rgb(210,205,206)"/><path d=" M 24.113 9.454 Q 23.119 8.699 23.095 8.633 Q 23.072 8.567 23.062 8.355 L 23.199 8.599 Q 24.193 9.249 24.183 9.316 Q 24.174 9.383 24.113 9.454 Z " fill="rgb(210,205,206)"/><path d=" M 22.562 13.269 Q 22.556 12.02 22.594 11.961 Q 22.632 11.902 22.794 11.766 L 22.685 12.023 Q 22.773 13.207 22.714 13.24 Q 22.655 13.273 22.562 13.269 Z " fill="rgb(210,205,206)"/><path d=" M 23.122 13.83 Q 24.109 13.065 24.179 13.06 Q 24.249 13.054 24.456 13.1 L 24.185 13.169 Q 23.299 13.96 23.237 13.934 Q 23.175 13.907 23.122 13.83 Z " fill="rgb(210,205,206)"/><path d=" M 23.117 15.914 Q 24.325 16.232 24.372 16.284 Q 24.419 16.337 24.508 16.528 L 24.288 16.356 Q 23.122 16.135 23.105 16.069 Q 23.088 16.003 23.117 15.914 Z " fill="rgb(210,205,206)"/><path d=" M 19.524 18.252 Q 20.007 19.404 19.994 19.473 Q 19.981 19.542 19.883 19.73 L 19.887 19.45 Q 19.352 18.39 19.394 18.337 Q 19.436 18.283 19.524 18.252 Z " fill="rgb(210,205,206)"/><path d=" M 23.467 25.225 Q 22.847 26.309 22.784 26.341 Q 22.721 26.372 22.513 26.409 L 22.737 26.242 Q 23.252 25.172 23.32 25.173 Q 23.388 25.174 23.467 25.225 Z " fill="rgb(210,205,206)"/><path d=" M 24.431 29.294 Q 23.193 29.463 23.13 29.432 Q 23.066 29.402 22.91 29.259 L 23.179 29.334 Q 24.342 29.093 24.383 29.147 Q 24.423 29.201 24.431 29.294 Z " fill="rgb(210,205,206)"/><path d=" M 26.136 33.3 Q 25.25 32.421 25.235 32.352 Q 25.221 32.283 25.239 32.072 L 25.343 32.332 Q 26.243 33.107 26.224 33.172 Q 26.206 33.238 26.136 33.3 Z " fill="rgb(210,205,206)"/><path d=" M 29.67 31.293 Q 29.828 30.055 29.874 30.001 Q 29.919 29.948 30.098 29.834 L 29.955 30.075 Q 29.888 31.26 29.825 31.285 Q 29.762 31.31 29.67 31.293 Z " fill="rgb(210,205,206)"/><path d=" M 33.412 32.875 Q 34.492 32.247 34.562 32.25 Q 34.632 32.254 34.831 32.327 L 34.553 32.36 Q 33.572 33.028 33.513 32.993 Q 33.455 32.958 33.412 32.875 Z " fill="rgb(210,205,206)"/><path d=" M 32.995 35.885 Q 34.15 36.358 34.19 36.416 Q 34.23 36.474 34.293 36.676 L 34.098 36.476 Q 32.971 36.104 32.963 36.036 Q 32.955 35.969 32.995 35.885 Z " fill="rgb(210,205,206)"/><path d=" M 32.07 33.99 Q 32.397 35.196 32.375 35.262 Q 32.353 35.329 32.232 35.502 L 32.272 35.226 Q 31.881 34.104 31.929 34.057 Q 31.978 34.01 32.07 33.99 Z " fill="rgb(210,205,206)"/><path d=" M 35.381 28.238 Q 34.624 29.231 34.558 29.254 Q 34.492 29.278 34.28 29.287 L 34.524 29.15 Q 35.176 28.158 35.243 28.167 Q 35.31 28.177 35.381 28.238 Z " fill="rgb(210,205,206)"/><path d=" M 41.961 27.364 Q 40.713 27.368 40.654 27.33 Q 40.595 27.292 40.459 27.129 L 40.716 27.24 Q 41.9 27.153 41.933 27.212 Q 41.966 27.271 41.961 27.364 Z " fill="rgb(210,205,206)"/><path d=" M 43.385 26.101 Q 42.622 25.112 42.617 25.042 Q 42.612 24.972 42.658 24.766 L 42.726 25.037 Q 43.516 25.923 43.489 25.986 Q 43.463 26.048 43.385 26.101 Z " fill="rgb(210,205,206)"/><path d=" M 44.274 26.347 Q 44.593 25.14 44.646 25.093 Q 44.698 25.046 44.89 24.957 L 44.717 25.177 Q 44.494 26.343 44.428 26.36 Q 44.362 26.376 44.274 26.347 Z " fill="rgb(210,205,206)"/><path d=" M 48.702 20.344 Q 49.855 19.863 49.924 19.876 Q 49.993 19.889 50.181 19.987 L 49.901 19.983 Q 48.84 20.516 48.787 20.474 Q 48.733 20.432 48.702 20.344 Z " fill="rgb(210,205,206)"/><path d=" M 43.399 27.525 Q 44.482 28.146 44.513 28.209 Q 44.545 28.272 44.582 28.48 L 44.414 28.256 Q 43.346 27.739 43.347 27.671 Q 43.348 27.603 43.399 27.525 Z " fill="rgb(210,205,206)"/><path d=" M 34.473 27.687 Q 34.639 28.924 34.609 28.988 Q 34.579 29.051 34.435 29.207 L 34.511 28.938 Q 34.271 27.775 34.326 27.734 Q 34.38 27.694 34.473 27.687 Z " fill="rgb(210,205,206)"/><path d=" M 28.912 20.704 Q 28.031 21.589 27.963 21.603 Q 27.894 21.618 27.683 21.599 L 27.943 21.495 Q 28.719 20.597 28.785 20.616 Q 28.85 20.634 28.912 20.704 Z " fill="rgb(210,205,206)"/><path d=" M 29.352 11.958 Q 28.114 11.798 28.06 11.752 Q 28.007 11.706 27.894 11.527 L 28.134 11.671 Q 29.319 11.74 29.344 11.803 Q 29.369 11.866 29.352 11.958 Z " fill="rgb(210,205,206)"/><path d=" M 39.013 5.919 Q 38.386 4.839 38.39 4.769 Q 38.394 4.699 38.467 4.5 L 38.5 4.778 Q 39.166 5.76 39.131 5.819 Q 39.096 5.877 39.013 5.919 Z " fill="rgb(210,205,206)"/><path d=" M 50.181 16.919 Q 50.656 15.765 50.714 15.725 Q 50.772 15.685 50.974 15.622 L 50.774 15.817 Q 50.4 16.944 50.332 16.952 Q 50.265 16.96 50.181 16.919 Z " fill="rgb(210,205,206)"/><path d=" M 41.541 28.752 Q 42.747 28.426 42.813 28.448 Q 42.88 28.47 43.053 28.592 L 42.777 28.551 Q 41.655 28.94 41.607 28.892 Q 41.56 28.843 41.541 28.752 Z " fill="rgb(210,205,206)"/><path d=" M 39.412 29.101 Q 40.404 29.859 40.427 29.926 Q 40.45 29.992 40.459 30.203 L 40.323 29.959 Q 39.331 29.306 39.341 29.239 Q 39.351 29.172 39.412 29.101 Z " fill="rgb(210,205,206)"/><path d=" M 37.387 30.086 Q 37.389 31.335 37.35 31.394 Q 37.312 31.452 37.149 31.588 L 37.26 31.331 Q 37.175 30.147 37.234 30.114 Q 37.293 30.081 37.387 30.086 Z " fill="rgb(210,205,206)"/><path d=" M 36.416 29.8 Q 35.426 30.561 35.356 30.567 Q 35.286 30.572 35.08 30.526 L 35.351 30.457 Q 36.239 29.669 36.301 29.696 Q 36.363 29.723 36.416 29.8 Z " fill="rgb(210,205,206)"/><path d=" M 38.143 27.247 Q 36.936 26.925 36.889 26.873 Q 36.842 26.82 36.753 26.628 L 36.973 26.802 Q 38.139 27.027 38.155 27.092 Q 38.172 27.158 38.143 27.247 Z " fill="rgb(210,205,206)"/><path d=" M 39.507 28.501 Q 39.028 27.348 39.041 27.279 Q 39.054 27.21 39.153 27.022 L 39.149 27.302 Q 39.68 28.364 39.638 28.417 Q 39.596 28.47 39.507 28.501 Z " fill="rgb(210,205,206)"/><path d=" M 37.387 28.78 Q 38.01 27.698 38.073 27.666 Q 38.136 27.635 38.344 27.599 L 38.12 27.766 Q 37.601 28.833 37.533 28.832 Q 37.465 28.831 37.387 28.78 Z " fill="rgb(210,205,206)"/><path d=" M 41.096 25.163 Q 42.334 24.999 42.397 25.03 Q 42.461 25.06 42.616 25.204 L 42.347 25.127 Q 41.184 25.365 41.144 25.311 Q 41.103 25.256 41.096 25.163 Z " fill="rgb(210,205,206)"/><path d=" M 39.989 26.294 Q 40.872 27.176 40.886 27.245 Q 40.901 27.314 40.882 27.525 L 40.779 27.265 Q 39.882 26.486 39.9 26.421 Q 39.919 26.356 39.989 26.294 Z " fill="rgb(210,205,206)"/><path d=" M 39.9 25.798 Q 39.738 27.036 39.692 27.09 Q 39.646 27.143 39.467 27.256 L 39.61 27.016 Q 39.682 25.831 39.745 25.806 Q 39.808 25.781 39.9 25.798 Z " fill="rgb(210,205,206)"/><path d=" M 39.581 24.7 Q 38.5 25.325 38.43 25.321 Q 38.36 25.317 38.161 25.244 L 38.439 25.212 Q 39.423 24.547 39.481 24.582 Q 39.539 24.617 39.581 24.7 Z " fill="rgb(210,205,206)"/><path d=" M 38.753 26.457 Q 37.599 25.98 37.56 25.922 Q 37.52 25.864 37.457 25.661 L 37.652 25.862 Q 38.778 26.238 38.786 26.306 Q 38.794 26.373 38.753 26.457 Z " fill="rgb(210,205,206)"/><path d=" M 36.495 28.003 Q 36.171 26.797 36.193 26.73 Q 36.215 26.664 36.337 26.491 L 36.297 26.767 Q 36.684 27.89 36.635 27.937 Q 36.586 27.984 36.495 28.003 Z " fill="rgb(210,205,206)"/><path d=" M 40.154 24.322 Q 40.914 23.332 40.98 23.309 Q 41.047 23.286 41.258 23.277 L 41.014 23.413 Q 40.359 24.403 40.292 24.393 Q 40.225 24.383 40.154 24.322 Z " fill="rgb(210,205,206)"/><path d=" M 41.866 24.132 Q 43.115 24.132 43.173 24.171 Q 43.232 24.209 43.368 24.372 L 43.111 24.261 Q 41.926 24.344 41.894 24.285 Q 41.861 24.225 41.866 24.132 Z " fill="rgb(210,205,206)"/><path d=" M 43.816 22.608 Q 44.576 23.599 44.581 23.669 Q 44.586 23.74 44.54 23.946 L 44.472 23.675 Q 43.685 22.785 43.712 22.723 Q 43.739 22.661 43.816 22.608 Z " fill="rgb(210,205,206)"/><path d=" M 45.613 20.964 Q 45.289 22.17 45.236 22.217 Q 45.184 22.264 44.992 22.352 L 45.166 22.133 Q 45.392 20.968 45.458 20.952 Q 45.524 20.935 45.613 20.964 Z " fill="rgb(210,205,206)"/><path d=" M 48.702 21.063 Q 47.548 21.54 47.479 21.527 Q 47.41 21.514 47.223 21.415 L 47.503 21.42 Q 48.565 20.89 48.618 20.932 Q 48.672 20.975 48.702 21.063 Z " fill="rgb(210,205,206)"/><path d=" M 44.094 19.791 Q 43.013 19.166 42.981 19.103 Q 42.95 19.041 42.914 18.832 L 43.081 19.057 Q 44.148 19.578 44.146 19.645 Q 44.145 19.713 44.094 19.791 Z " fill="rgb(210,205,206)"/><path d=" M 45.291 20.072 Q 45.129 18.834 45.16 18.77 Q 45.191 18.707 45.334 18.552 L 45.258 18.821 Q 45.494 19.984 45.439 20.025 Q 45.385 20.065 45.291 20.072 Z " fill="rgb(210,205,206)"/><path d=" M 43.53 21.914 Q 44.414 21.032 44.483 21.018 Q 44.552 21.004 44.763 21.023 L 44.502 21.126 Q 43.723 22.021 43.658 22.003 Q 43.592 21.984 43.53 21.914 Z " fill="rgb(210,205,206)"/><path d=" M 42.507 22.391 Q 43.745 22.555 43.798 22.601 Q 43.851 22.647 43.964 22.826 L 43.724 22.682 Q 42.539 22.609 42.514 22.546 Q 42.49 22.482 42.507 22.391 Z " fill="rgb(210,205,206)"/><path d=" M 40.643 22.116 Q 41.266 23.198 41.262 23.268 Q 41.258 23.338 41.185 23.537 L 41.153 23.259 Q 40.49 22.274 40.525 22.216 Q 40.56 22.158 40.643 22.116 Z " fill="rgb(210,205,206)"/><path d=" M 40.553 20.286 Q 40.073 21.439 40.015 21.479 Q 39.957 21.518 39.755 21.581 L 39.956 21.386 Q 40.334 20.261 40.401 20.253 Q 40.469 20.246 40.553 20.286 Z " fill="rgb(210,205,206)"/><path d=" M 41.215 19.324 Q 40.009 19.645 39.942 19.623 Q 39.875 19.601 39.702 19.478 L 39.979 19.52 Q 41.102 19.135 41.149 19.183 Q 41.196 19.232 41.215 19.324 Z " fill="rgb(210,205,206)"/><path d=" M 41.139 18.295 Q 40.15 17.533 40.127 17.467 Q 40.104 17.401 40.096 17.189 L 40.231 17.434 Q 41.22 18.09 41.21 18.157 Q 41.2 18.225 41.139 18.295 Z " fill="rgb(210,205,206)"/><path d=" M 42.671 16.745 Q 42.674 15.497 42.712 15.438 Q 42.751 15.379 42.914 15.244 L 42.802 15.501 Q 42.883 16.685 42.824 16.718 Q 42.765 16.751 42.671 16.745 Z " fill="rgb(210,205,206)"/><path d=" M 44.834 17.018 Q 45.826 16.26 45.896 16.255 Q 45.966 16.25 46.173 16.297 L 45.901 16.364 Q 45.011 17.149 44.948 17.122 Q 44.886 17.095 44.834 17.018 Z " fill="rgb(210,205,206)"/><path d=" M 46.818 19.168 Q 48.024 19.494 48.071 19.547 Q 48.117 19.599 48.206 19.791 L 47.987 19.617 Q 46.822 19.389 46.805 19.323 Q 46.789 19.257 46.818 19.168 Z " fill="rgb(210,205,206)"/><path d=" M 46.008 21.304 Q 46.484 22.458 46.47 22.527 Q 46.457 22.596 46.358 22.783 L 46.363 22.504 Q 45.835 21.44 45.878 21.387 Q 45.92 21.334 46.008 21.304 Z " fill="rgb(210,205,206)"/><path d=" M 39.041 23.261 Q 38.414 24.341 38.351 24.372 Q 38.288 24.404 38.08 24.439 L 38.305 24.273 Q 38.827 23.207 38.895 23.208 Q 38.963 23.21 39.041 23.261 Z " fill="rgb(210,205,206)"/><path d=" M 32.15 19.346 Q 30.912 19.506 30.849 19.475 Q 30.785 19.444 30.63 19.3 L 30.899 19.377 Q 32.063 19.143 32.103 19.198 Q 32.143 19.253 32.15 19.346 Z " fill="rgb(210,205,206)"/><path d=" M 31.301 13.586 Q 30.421 12.7 30.406 12.631 Q 30.392 12.562 30.412 12.352 L 30.514 12.612 Q 31.409 13.393 31.39 13.458 Q 31.371 13.523 31.301 13.586 Z " fill="rgb(210,205,206)"/><path d=" M 35.978 10.899 Q 36.145 9.662 36.191 9.609 Q 36.237 9.556 36.416 9.443 L 36.272 9.683 Q 36.196 10.868 36.133 10.892 Q 36.07 10.917 35.978 10.899 Z " fill="rgb(210,205,206)"/><path d=" M 40.956 12.975 Q 42.039 12.354 42.11 12.358 Q 42.18 12.363 42.378 12.436 L 42.1 12.468 Q 41.114 13.129 41.056 13.094 Q 40.998 13.059 40.956 12.975 Z " fill="rgb(210,205,206)"/><path d=" M 41.9 17.19 Q 43.052 17.672 43.091 17.73 Q 43.131 17.788 43.193 17.99 L 42.999 17.789 Q 41.874 17.409 41.866 17.342 Q 41.859 17.274 41.9 17.19 Z " fill="rgb(210,205,206)"/><path d=" M 38.908 19.667 Q 39.227 20.874 39.205 20.941 Q 39.182 21.007 39.06 21.18 L 39.101 20.903 Q 38.718 19.78 38.767 19.733 Q 38.816 19.686 38.908 19.667 Z " fill="rgb(210,205,206)"/><path d=" M 35.121 18.8 Q 34.358 19.788 34.291 19.811 Q 34.225 19.834 34.013 19.842 L 34.258 19.707 Q 34.917 18.719 34.984 18.729 Q 35.051 18.739 35.121 18.8 Z " fill="rgb(210,205,206)"/><path d=" M 33.504 15.269 Q 32.256 15.264 32.197 15.225 Q 32.139 15.187 32.004 15.023 L 32.26 15.135 Q 33.445 15.056 33.477 15.116 Q 33.51 15.175 33.504 15.269 Z " fill="rgb(210,205,206)"/><path d=" M 35.323 11.836 Q 34.566 10.843 34.561 10.773 Q 34.556 10.702 34.603 10.496 L 34.671 10.768 Q 35.454 11.66 35.427 11.722 Q 35.4 11.784 35.323 11.836 Z " fill="rgb(210,205,206)"/><path d=" M 43.177 6.957 Q 43.505 5.752 43.558 5.705 Q 43.611 5.659 43.803 5.571 L 43.628 5.789 Q 43.398 6.954 43.332 6.97 Q 43.266 6.987 43.177 6.957 Z " fill="rgb(210,205,206)"/><path d=" M 44.562 7.139 Q 45.718 6.666 45.787 6.679 Q 45.856 6.693 46.043 6.792 L 45.763 6.787 Q 44.698 7.312 44.645 7.27 Q 44.593 7.228 44.562 7.139 Z " fill="rgb(210,205,206)"/><path d=" M 44.593 7.51 Q 45.672 8.139 45.704 8.202 Q 45.735 8.265 45.77 8.474 L 45.604 8.248 Q 44.539 7.724 44.54 7.656 Q 44.542 7.588 44.593 7.51 Z " fill="rgb(210,205,206)"/><path d=" M 44.318 7.761 Q 44.476 9 44.445 9.063 Q 44.414 9.126 44.27 9.281 L 44.348 9.012 Q 44.116 7.848 44.17 7.808 Q 44.225 7.767 44.318 7.761 Z " fill="rgb(210,205,206)"/><path d=" M 41.694 9.326 Q 40.807 10.205 40.738 10.219 Q 40.67 10.233 40.459 10.213 L 40.719 10.111 Q 41.502 9.218 41.567 9.237 Q 41.632 9.256 41.694 9.326 Z " fill="rgb(210,205,206)"/><path d=" M 40.217 12.622 Q 38.98 12.453 38.927 12.407 Q 38.874 12.361 38.762 12.182 L 39.001 12.326 Q 40.186 12.404 40.21 12.467 Q 40.235 12.53 40.217 12.622 Z " fill="rgb(210,205,206)"/><path d=" M 36.225 14.392 Q 35.606 13.307 35.61 13.237 Q 35.615 13.167 35.689 12.969 L 35.72 13.247 Q 36.379 14.234 36.344 14.292 Q 36.309 14.35 36.225 14.392 Z " fill="rgb(210,205,206)"/><path d=" M 31.749 17.437 Q 32.232 16.286 32.291 16.246 Q 32.349 16.207 32.551 16.145 L 32.35 16.339 Q 31.968 17.463 31.9 17.471 Q 31.833 17.478 31.749 17.437 Z " fill="rgb(210,205,206)"/><path d=" M 31.795 17.844 Q 33.003 17.527 33.069 17.549 Q 33.136 17.572 33.308 17.695 L 33.032 17.652 Q 31.907 18.034 31.86 17.985 Q 31.813 17.936 31.795 17.844 Z " fill="rgb(210,205,206)"/><path d=" M 30.325 18.515 Q 31.312 19.28 31.335 19.346 Q 31.357 19.413 31.365 19.624 L 31.23 19.379 Q 30.243 18.719 30.253 18.652 Q 30.264 18.585 30.325 18.515 Z " fill="rgb(210,205,206)"/><path d=" M 33.085 15.939 Q 33.079 17.188 33.04 17.246 Q 33.001 17.305 32.837 17.439 L 32.95 17.183 Q 32.873 15.998 32.932 15.966 Q 32.992 15.933 33.085 15.939 Z " fill="rgb(210,205,206)"/><path d=" M 35.284 16.914 Q 34.29 17.669 34.219 17.674 Q 34.149 17.679 33.943 17.631 L 34.215 17.564 Q 35.108 16.782 35.17 16.809 Q 35.232 16.837 35.284 16.914 Z " fill="rgb(210,205,206)"/><path d=" M 35.819 19.217 Q 34.637 18.914 34.592 18.863 Q 34.547 18.812 34.464 18.625 L 34.676 18.793 Q 35.82 19.001 35.835 19.066 Q 35.85 19.13 35.819 19.217 Z " fill="rgb(210,205,206)"/><path d=" M 34.779 22.497 Q 34.325 21.405 34.339 21.339 Q 34.353 21.274 34.453 21.096 L 34.445 21.361 Q 34.951 22.366 34.909 22.417 Q 34.866 22.467 34.779 22.497 Z " fill="rgb(210,205,206)"/><path d=" M 33.168 24.85 Q 33.767 23.836 33.827 23.807 Q 33.887 23.778 34.087 23.745 L 33.872 23.901 Q 33.372 24.902 33.307 24.9 Q 33.242 24.899 33.168 24.85 Z " fill="rgb(210,205,206)"/><path d=" M 32.378 26.184 Q 33.533 26.026 33.591 26.054 Q 33.65 26.082 33.792 26.216 L 33.543 26.146 Q 32.456 26.373 32.42 26.322 Q 32.383 26.271 32.378 26.184 Z " fill="rgb(210,205,206)"/><path d=" M 30.076 25.779 Q 30.879 26.569 30.891 26.631 Q 30.903 26.693 30.881 26.884 L 30.791 26.65 Q 29.973 25.954 29.991 25.895 Q 30.01 25.836 30.076 25.779 Z " fill="rgb(210,205,206)"/><path d=" M 29.249 24.579 Q 29.094 25.677 29.052 25.724 Q 29.01 25.771 28.845 25.871 L 28.978 25.658 Q 29.049 24.607 29.107 24.585 Q 29.165 24.563 29.249 24.579 Z " fill="rgb(210,205,206)"/><path d=" M 31.358 22.321 Q 30.397 22.872 30.335 22.868 Q 30.273 22.864 30.098 22.799 L 30.344 22.771 Q 31.219 22.184 31.27 22.216 Q 31.322 22.247 31.358 22.321 Z " fill="rgb(210,205,206)"/><path d=" M 34.386 22.563 Q 33.385 22.161 33.351 22.111 Q 33.318 22.062 33.267 21.887 L 33.433 22.059 Q 34.412 22.373 34.418 22.431 Q 34.423 22.49 34.386 22.563 Z " fill="rgb(210,205,206)"/><path d=" M 35.971 25.034 Q 35.702 24.021 35.722 23.965 Q 35.741 23.909 35.85 23.763 L 35.811 23.996 Q 36.137 24.939 36.094 24.978 Q 36.051 25.018 35.971 25.034 Z " fill="rgb(210,205,206)"/><path d=" M 34.943 27.757 Q 35.587 26.933 35.644 26.914 Q 35.7 26.895 35.878 26.89 L 35.672 27.002 Q 35.116 27.826 35.059 27.818 Q 35.002 27.809 34.943 27.757 Z " fill="rgb(210,205,206)"/><path d=" M 30.714 28.738 Q 31.746 28.731 31.794 28.762 Q 31.841 28.794 31.951 28.928 L 31.74 28.837 Q 30.761 28.914 30.734 28.865 Q 30.708 28.816 30.714 28.738 Z " fill="rgb(210,205,206)"/><path d=" M 26.609 24.597 Q 27.22 25.384 27.223 25.44 Q 27.226 25.496 27.185 25.661 L 27.133 25.445 Q 26.497 24.74 26.521 24.69 Q 26.544 24.64 26.609 24.597 Z " fill="rgb(210,205,206)"/><path d=" M 28.837 17.606 Q 28.572 18.555 28.53 18.592 Q 28.487 18.628 28.331 18.697 L 28.473 18.525 Q 28.659 17.607 28.712 17.595 Q 28.765 17.582 28.837 17.606 Z " fill="rgb(210,205,206)"/><path d=" M 35.685 15.053 Q 34.778 15.429 34.724 15.418 Q 34.67 15.408 34.524 15.33 L 34.743 15.334 Q 35.58 14.917 35.621 14.95 Q 35.662 14.983 35.685 15.053 Z " fill="rgb(210,205,206)"/><path d=" M 41.728 18.752 Q 40.897 18.284 40.874 18.237 Q 40.85 18.189 40.826 18.03 L 40.952 18.2 Q 41.773 18.588 41.771 18.64 Q 41.769 18.692 41.728 18.752 Z " fill="rgb(210,205,206)"/><path d=" M 42.174 26.565 Q 42.058 25.643 42.082 25.596 Q 42.106 25.549 42.218 25.433 L 42.157 25.633 Q 42.331 26.5 42.289 26.53 Q 42.246 26.56 42.174 26.565 Z " fill="rgb(210,205,206)"/><path d=" M 37.618 30.137 Q 38.281 29.485 38.332 29.474 Q 38.384 29.464 38.541 29.48 L 38.346 29.555 Q 37.762 30.217 37.713 30.203 Q 37.665 30.189 37.618 30.137 Z " fill="rgb(210,205,206)"/><path d=" M 32.739 33.3 Q 33.645 33.411 33.683 33.444 Q 33.721 33.478 33.801 33.608 L 33.628 33.504 Q 32.76 33.46 32.742 33.414 Q 32.725 33.368 32.739 33.3 Z " fill="rgb(210,205,206)"/><path d=" M 27.369 31.485 Q 27.812 32.247 27.808 32.297 Q 27.805 32.347 27.748 32.488 L 27.728 32.291 Q 27.254 31.598 27.281 31.556 Q 27.307 31.515 27.369 31.485 Z " fill="rgb(210,205,206)"/><path d=" M 25.656 26.256 Q 25.312 27.062 25.27 27.089 Q 25.228 27.116 25.084 27.159 L 25.228 27.024 Q 25.499 26.237 25.547 26.232 Q 25.595 26.227 25.656 26.256 Z " fill="rgb(210,205,206)"/><path d=" M 28.794 21.753 Q 27.954 21.98 27.908 21.965 Q 27.861 21.95 27.743 21.865 L 27.934 21.893 Q 28.717 21.622 28.749 21.655 Q 28.781 21.689 28.794 21.753 Z " fill="rgb(210,205,206)"/><path d=" M 34.719 21.354 Q 34.046 20.848 34.031 20.803 Q 34.016 20.758 34.013 20.615 L 34.103 20.779 Q 34.778 21.215 34.77 21.26 Q 34.762 21.306 34.719 21.354 Z " fill="rgb(210,205,206)"/><path d=" M 29.356 15.184 Q 28.575 14.914 28.547 14.877 Q 28.519 14.839 28.47 14.705 L 28.606 14.832 Q 29.365 15.033 29.372 15.079 Q 29.379 15.124 29.356 15.184 Z " fill="rgb(210,205,206)"/><path d=" M 24.775 6.362 Q 23.974 6.351 23.936 6.324 Q 23.898 6.297 23.809 6.185 L 23.975 6.263 Q 24.734 6.217 24.756 6.258 Q 24.777 6.299 24.775 6.362 Z " fill="rgb(210,205,206)"/><path d=" M 33.743 8.53 Q 32.319 8.991 32.235 8.965 Q 32.151 8.938 31.924 8.787 L 32.266 8.83 Q 33.58 8.29 33.643 8.351 Q 33.707 8.412 33.743 8.53 Z " fill="rgb(210,205,206)"/><path d=" M 40.821 7.086 Q 39.099 8.399 38.971 8.401 Q 38.844 8.403 38.461 8.294 L 38.949 8.196 Q 40.482 6.822 40.599 6.879 Q 40.716 6.936 40.821 7.086 Z " fill="rgb(210,205,206)"/><path d=" M 34.031 7.586 Q 35.331 6.987 35.413 7.005 Q 35.494 7.023 35.72 7.154 L 35.395 7.143 Q 34.205 7.812 34.14 7.757 Q 34.074 7.701 34.031 7.586 Z " fill="rgb(210,205,206)"/><path d=" M 33.627 6.364 Q 32.707 6.558 32.658 6.534 Q 32.609 6.509 32.486 6.389 L 32.691 6.445 Q 33.552 6.188 33.585 6.235 Q 33.618 6.281 33.627 6.364 Z " fill="rgb(210,205,206)"/><path d=" M 34.392 6.303 Q 35.008 6.316 35.035 6.34 Q 35.062 6.363 35.121 6.462 L 35 6.393 Q 34.413 6.43 34.399 6.394 Q 34.386 6.358 34.392 6.303 Z " fill="rgb(210,205,206)"/><path d=" M 32.205 11.766 Q 31.043 11.457 31.002 11.398 Q 30.962 11.339 30.895 11.118 L 31.094 11.309 Q 32.227 11.507 32.236 11.583 Q 32.245 11.66 32.205 11.766 Z " fill="rgb(210,205,206)"/><path d=" M 41.405 11.413 Q 43.469 12.556 43.518 12.69 Q 43.567 12.825 43.59 13.29 L 43.303 12.822 Q 41.243 11.913 41.262 11.759 Q 41.281 11.604 41.405 11.413 Z " fill="rgb(210,205,206)"/><path d=" M 23.365 10.93 Q 21.238 8.922 21.219 8.741 Q 21.2 8.56 21.31 7.979 L 21.514 8.64 Q 23.705 10.359 23.637 10.544 Q 23.569 10.73 23.365 10.93 Z " fill="rgb(210,205,206)"/><path d=" M 42.412 7.761 Q 43.422 9.37 43.406 9.489 Q 43.39 9.608 43.233 9.964 L 43.208 9.509 Q 42.112 8.077 42.183 7.968 Q 42.254 7.859 42.412 7.761 Z " fill="rgb(210,205,206)"/><path d=" M 33.447 14.828 Q 33.067 13.644 33.095 13.57 Q 33.123 13.496 33.276 13.29 L 33.221 13.586 Q 33.681 14.67 33.62 14.73 Q 33.56 14.789 33.447 14.828 Z " fill="rgb(210,205,206)"/><path d=" M 31.415 10.135 Q 31.469 10.953 31.44 10.997 Q 31.411 11.04 31.285 11.149 L 31.364 10.967 Q 31.246 10.202 31.292 10.173 Q 31.339 10.144 31.415 10.135 Z " fill="rgb(210,205,206)"/><path d=" M 31.951 10.046 Q 32.043 9.512 32.067 9.489 Q 32.092 9.465 32.187 9.414 L 32.11 9.519 Q 32.066 10.028 32.032 10.04 Q 31.999 10.052 31.951 10.046 Z " fill="rgb(210,205,206)"/><path d=" M 23.224 20.915 Q 22.415 19.964 22.406 19.894 Q 22.398 19.825 22.434 19.616 L 22.516 19.884 Q 23.346 20.732 23.322 20.795 Q 23.299 20.859 23.224 20.915 Z " fill="rgb(210,205,206)"/><path d=" M 24.469 20.106 Q 25.71 19.961 25.772 19.992 Q 25.835 20.024 25.989 20.169 L 25.721 20.089 Q 24.554 20.31 24.515 20.255 Q 24.475 20.2 24.469 20.106 Z " fill="rgb(210,205,206)"/><path d=" M 23.675 22.048 Q 23.109 23.161 23.048 23.195 Q 22.987 23.23 22.78 23.277 L 22.996 23.099 Q 23.459 22.006 23.527 22.003 Q 23.594 22.001 23.675 22.048 Z " fill="rgb(210,205,206)"/><path d=" M 18.817 18.832 Q 18.205 17.743 18.21 17.673 Q 18.215 17.603 18.29 17.405 L 18.319 17.684 Q 18.972 18.675 18.936 18.733 Q 18.901 18.791 18.817 18.832 Z " fill="rgb(210,205,206)"/><path d=" M 19.692 16.528 Q 20.937 16.623 20.993 16.666 Q 21.048 16.709 21.171 16.881 L 20.924 16.751 Q 19.736 16.744 19.708 16.683 Q 19.679 16.621 19.692 16.528 Z " fill="rgb(210,205,206)"/><path d=" M 24.508 25.155 Q 23.739 26.139 23.672 26.162 Q 23.606 26.184 23.394 26.191 L 23.64 26.057 Q 24.304 25.073 24.371 25.083 Q 24.438 25.094 24.508 25.155 Z " fill="rgb(210,205,206)"/><path d=" M 25.453 24.778 Q 25.061 23.593 25.08 23.525 Q 25.098 23.457 25.21 23.277 L 25.185 23.556 Q 25.636 24.654 25.59 24.704 Q 25.544 24.754 25.453 24.778 Z " fill="rgb(210,205,206)"/><path d=" M 25.906 25.876 Q 27.11 26.207 27.157 26.26 Q 27.203 26.313 27.291 26.506 L 27.073 26.33 Q 25.909 26.096 25.893 26.03 Q 25.877 25.964 25.906 25.876 Z " fill="rgb(210,205,206)"/><path d=" M 27.317 29.531 Q 28.405 28.917 28.475 28.922 Q 28.545 28.927 28.743 29.002 L 28.465 29.031 Q 27.474 29.686 27.416 29.65 Q 27.359 29.615 27.317 29.531 Z " fill="rgb(210,205,206)"/><path d=" M 25.436 10.289 Q 25.614 9.053 25.66 9 Q 25.707 8.947 25.887 8.837 L 25.741 9.075 Q 25.655 10.259 25.591 10.283 Q 25.528 10.307 25.436 10.289 Z " fill="rgb(210,205,206)"/><path d=" M 24.969 12.107 Q 24.491 13.261 24.433 13.3 Q 24.375 13.34 24.173 13.403 L 24.374 13.208 Q 24.75 12.082 24.818 12.074 Q 24.885 12.066 24.969 12.107 Z " fill="rgb(210,205,206)"/><path d=" M 29.163 4.819 Q 28.889 3.931 28.848 3.898 Q 28.808 3.865 28.663 3.804 L 28.798 3.962 Q 28.999 4.822 29.048 4.832 Q 29.098 4.843 29.163 4.819 Z " fill="rgb(210,205,206)"/><path d=" M 28.743 4.633 Q 28.098 4.386 28.06 4.395 Q 28.022 4.403 27.92 4.46 L 28.074 4.454 Q 28.67 4.731 28.699 4.707 Q 28.727 4.682 28.743 4.633 Z " fill="rgb(210,205,206)"/><path d=" M 24.996 5.498 Q 24.351 5.252 24.313 5.26 Q 24.275 5.268 24.173 5.325 L 24.328 5.319 Q 24.923 5.596 24.952 5.572 Q 24.981 5.548 24.996 5.498 Z " fill="rgb(210,205,206)"/><path d=" M 24.051 3.758 Q 23.406 3.511 23.368 3.519 Q 23.33 3.528 23.228 3.585 L 23.382 3.578 Q 23.978 3.855 24.006 3.831 Q 24.035 3.807 24.051 3.758 Z " fill="rgb(210,205,206)"/><path d=" M 26.193 2.659 Q 26.702 2.192 26.711 2.155 Q 26.721 2.117 26.715 2 L 26.652 2.141 Q 26.138 2.55 26.147 2.587 Q 26.156 2.623 26.193 2.659 Z " fill="rgb(210,205,206)"/></g></svg>