<?xml version="1.0" encoding="UTF-8" standalone="no"?><!-- Generator: Gravit.io --><svg xmlns="http://www.w3.org/2000/svg" xmlns:xlink="http://www.w3.org/1999/xlink" style="isolation:isolate" viewBox="0 0 30 28" width="30pt" height="28pt"><defs><clipPath id="_clipPath_vHSW8GKeHbZxmZg7kxoQUwVfpOqH0huf"><rect width="30" height="28"/></clipPath></defs><g clip-path="url(#_clipPath_vHSW8GKeHbZxmZg7kxoQUwVfpOqH0huf)"><g><path d=" M 11.703 16.813 Q 14.75 17.188 16.813 17.047 C 18.875 16.906 19.953 17.703 20.188 16.859 C 20.422 16.016 19.578 16.016 20.469 16.016 C 21.359 16.016 22.344 16.531 22.344 15.922 C 22.344 15.313 23.563 12.078 22.953 11.609 C 22.344 11.141 21.547 10.484 20.234 10.063 C 18.922 9.641 18.734 8.047 17 7.906 C 15.266 7.766 11.422 8.938 10.813 10.484 C 10.203 12.031 8.656 11.469 8.703 12.641 C 8.75 13.813 7.906 14.797 9.219 15.594 Q 10.531 16.391 11.703 16.813 Z " fill="rgb(114,71,60)"/><path d=" M 11.938 17.094 Q 12.031 16.531 12.594 16.063 C 13.156 15.594 13.203 15.078 14.094 15.313 C 14.984 15.547 16.109 15.969 16.438 16.578 C 16.766 17.188 18.781 17.516 18.641 17 C 18.5 16.484 16.016 14.703 15.875 13.859 C 15.734 13.016 16.578 11.797 17.188 11.422 C 17.797 11.047 18.969 10.859 18.406 9.969 C 17.844 9.078 17.891 8 17.047 7.953 C 16.203 7.906 14.75 7.438 13.953 8.047 C 13.156 8.656 12.266 8.938 11.141 10.156 C 10.016 11.375 8.469 11.75 8.469 12.781 C 8.469 13.813 8.047 15.547 9.406 16.203 Q 10.766 16.859 11.938 17.094 Z " fill="rgb(125,80,69)"/><path d=" M 15.969 8.516 C 16.476 9.428 13.719 9.688 13.953 10.109 C 14.188 10.531 15.172 10.766 15.547 10.438 C 15.922 10.109 17.281 9.313 17.797 9.594 C 18.313 9.875 17.047 11.516 16.25 11.891 C 15.453 12.266 13.203 14 12.125 13.344 C 11.047 12.688 9.688 12.828 10.25 11.75 C 10.813 10.672 11.938 9.453 12.828 9.078 C 13.719 8.703 15.5 7.672 15.969 8.516 Z " fill="rgb(145,108,98)"/></g></g></svg>