<?xml version="1.0" encoding="UTF-8" standalone="no"?><!-- Generator: Gravit.io --><svg xmlns="http://www.w3.org/2000/svg" xmlns:xlink="http://www.w3.org/1999/xlink" style="isolation:isolate" viewBox="0 0 41 41" width="41pt" height="41pt"><defs><clipPath id="_clipPath_7nDJjpMgxfiwF58zy4FpfRfaZvZSkYgv"><rect width="41" height="41"/></clipPath></defs><g clip-path="url(#_clipPath_7nDJjpMgxfiwF58zy4FpfRfaZvZSkYgv)"><path d=" M 5.141 23.25 C 5.703 23.719 5.984 25.031 7.531 25.594 C 9.078 26.156 11.609 27.891 12.641 29.063 C 13.672 30.234 14.656 30.328 16.203 30.281 C 17.75 30.234 20.656 30.984 21.828 30 C 23 29.016 22.719 28.781 24.828 28.547 C 26.938 28.313 27.734 26.109 27.969 25.172 C 28.203 24.234 27.125 23.813 28.344 23.719 C 29.563 23.625 30.781 24 31.578 23.391 C 32.375 22.781 34.719 22.453 34.953 20.859 C 35.188 19.266 35.984 15 35 14.016 C 34.016 13.031 33.594 9.797 32.141 9.469 C 30.688 9.141 25.531 6.047 24.078 5.953 C 22.625 5.859 21.359 7.359 20.234 7.359 C 19.109 7.359 18.547 6.984 17.703 7.828 C 16.859 8.672 16.484 7.641 16.016 8.625 C 15.547 9.609 15.547 9.938 14.281 10.453 C 13.016 10.969 10.813 12.656 9.734 14.063 C 8.656 15.469 8.469 17.063 6.969 18.422 C 5.469 19.781 4.578 22.781 5.141 23.25 Z " fill="rgb(114,71,60)"/><path d=" M 15.313 19.875 Q 14.984 21.375 13.531 21.891 C 12.078 22.406 12.078 22.125 11.234 23.344 C 10.391 24.563 9.594 24.797 9.641 23.766 C 9.688 22.734 9.078 22.641 9.781 22.313 C 10.484 21.984 10.297 21.188 10.859 20.625 C 11.422 20.063 12.266 19.594 11.609 19.453 C 10.953 19.313 10.813 19.031 10.484 19.594 C 10.156 20.156 9.969 21.891 9.078 21.844 C 8.188 21.797 8.516 21.281 7.906 22.266 C 7.297 23.25 7.484 24.094 6.547 23.906 C 5.609 23.719 5.281 23.203 5.234 22.266 C 5.188 21.328 6.031 21.141 6.453 19.922 C 6.875 18.703 6.828 17.953 7.438 17.578 C 8.047 17.203 8.328 16.406 9.219 15.234 C 10.109 14.063 10.484 15.375 11.328 16.313 C 12.172 17.25 12.734 17.906 13.438 18.141 Q 14.141 18.375 15.313 19.875 Z " fill="rgb(145,108,98)"/><path d=" M 23.281 14.906 Q 21.078 15.094 20.563 16.078 C 20.047 17.063 18.313 20.344 17.703 20.344 C 17.094 20.344 16.25 19.266 15.734 18.422 C 15.219 17.578 13.438 17.016 12.219 16.781 C 11 16.547 9.266 15.516 9.641 14.531 Q 10.016 13.547 18.313 7.641 Q 20.703 10.594 21.125 11.578 Q 21.547 12.563 23.281 14.906 Z " fill="rgb(145,108,98)"/><path d=" M 23.469 14.953 Q 22.672 13.875 21.5 12.469 C 20.328 11.063 20.891 11.344 20.469 10.453 C 20.047 9.563 19.766 10.594 19.391 9.703 C 19.016 8.813 19.578 8.531 18.828 8.203 C 18.078 7.875 17.609 7.969 18.078 7.734 C 18.547 7.5 19.625 6.656 20.328 7.547 C 21.031 8.438 21.172 10.547 21.969 11.156 C 22.766 11.766 23.328 12.375 23.797 13.875 C 24.266 15.375 25.859 15.422 25.203 16.031 C 24.547 16.641 24.453 19.266 23.844 17.484 Q 23.234 15.703 23.469 14.953 Z " fill="rgb(125,80,69)"/></g></svg>