<?xml version="1.0" encoding="UTF-8" standalone="no"?><!-- Generator: Gravit.io --><svg xmlns="http://www.w3.org/2000/svg" xmlns:xlink="http://www.w3.org/1999/xlink" style="isolation:isolate" viewBox="0 0 84 59" width="84pt" height="59pt"><defs><clipPath id="_clipPath_sC8kfKkiwkLMrP3bR0ekTJ01hID1bZy7"><rect width="84" height="59"/></clipPath></defs><g clip-path="url(#_clipPath_sC8kfKkiwkLMrP3bR0ekTJ01hID1bZy7)"><g><path d=" M 1.163 35.634 L 4.094 37.841 L 28.163 55.967 Q 42.496 57.967 47.163 55.634 C 51.83 53.3 54.83 55.967 61.496 52.3 C 68.163 48.634 82.496 48.3 81.496 43.634 C 80.496 38.967 79.163 34.967 77.163 29.3 C 75.163 23.634 71.83 11.634 58.496 8.967 C 45.163 6.3 37.163 2.634 29.83 8.967 C 22.496 15.3 9.83 18.634 7.496 24.3 Q 5.163 29.967 1.163 35.634 Z " fill="rgb(145,101,82)"/><path d=" M 42.83 41.3 C 40.147 41.456 31.496 52.634 33.496 54.967 C 35.496 57.3 42.83 54.634 46.83 53.967 C 50.83 53.3 58.83 52.3 65.83 50.634 C 72.83 48.967 80.496 48.634 80.83 43.3 C 81.163 37.967 84.163 39.967 80.496 37.967 C 76.83 35.967 75.496 21.634 73.163 19.967 C 70.83 18.3 60.163 27.634 57.83 34.634 C 55.496 41.634 44.798 41.186 42.83 41.3 Z " fill="rgb(87,47,37)"/><path d=" M 11.83 19.3 Q 23.83 22.967 26.496 26.634 Q 29.163 30.3 49.83 23.634 Q 46.215 20.102 48.548 16.436 C 50.882 12.769 67.017 10.717 58.111 8.936 C 49.625 7.239 39.163 1.967 32.163 5.634 Q 25.163 9.3 11.83 19.3 Z " fill="rgb(128,79,67)"/><path d=" M 9.163 42.3 Q 19.83 51.967 25.163 53.634 C 30.496 55.3 32.496 56.3 34.496 52.634 C 36.496 48.967 41.236 40.707 44.236 41.373 C 47.236 42.04 57.619 43.385 64.58 35.936 C 68.59 31.644 65.611 25.529 69.83 23.654 C 77.427 20.278 70.767 16.436 67.861 13.436 C 64.639 10.11 63.83 18.967 59.496 24.3 C 55.163 29.634 47.83 36.634 37.496 37.634 C 27.163 38.634 20.83 34.967 19.163 29.3 C 17.496 23.634 18.923 28.154 12.83 29.967 C 7.678 31.499 -0.087 31.842 1.58 35.842 Q 3.246 39.842 9.163 42.3 Z " fill="rgb(114,71,60)"/></g></g></svg>