<?xml version="1.0" encoding="UTF-8" standalone="no"?><!-- Generator: Gravit.io --><svg xmlns="http://www.w3.org/2000/svg" xmlns:xlink="http://www.w3.org/1999/xlink" style="isolation:isolate" viewBox="0 0 100 100" width="100pt" height="100pt"><defs><clipPath id="_clipPath_9YkS4N5xpdtG0b0ZZDgRUYKvu2XZHLW6"><rect width="100" height="100"/></clipPath></defs><g clip-path="url(#_clipPath_9YkS4N5xpdtG0b0ZZDgRUYKvu2XZHLW6)"><g><path d=" M 7.587 68.263 Q 6.809 67.771 6.031 67.239 C 5.253 66.707 4.884 66.42 5.294 65.806 C 5.703 65.192 4.638 64.168 5.908 63.758 C 7.177 63.349 9.88 63.758 9.962 62.612 C 10.044 61.465 7.873 60.523 9.43 59.377 C 10.986 58.23 13.279 56.183 14.098 57.247 C 14.917 58.312 12.501 61.26 13.893 61.711 C 15.285 62.161 17.415 62.079 16.391 63.267 C 15.367 64.455 12.706 64.414 14.344 65.601 C 15.982 66.789 18.275 66.379 17.046 67.239 Q 15.818 68.099 14.016 69.328 L 7.587 68.263 Z " fill="rgb(34,94,46)"/><path d=" M 7.566 68.161 Q 3.267 70.495 3.082 71.477 C 2.898 72.46 2.714 74.242 3.942 74.18 C 5.171 74.119 4.864 75.593 3.942 76.33 C 3.021 77.067 5.908 77.19 5.539 78.234 C 5.171 79.278 3.389 81.183 4.741 81.551 C 6.092 81.92 7.014 80.937 6.952 81.797 C 6.891 82.657 5.478 83.455 6.399 83.885 C 7.321 84.315 4.679 85.605 5.539 86.527 C 6.399 87.448 8.181 85.851 8.918 87.448 C 9.655 89.045 11.62 89.782 13.525 91.379 C 15.429 92.976 12.235 94.328 14.139 95.74 C 16.043 97.153 16.534 98.197 18.5 98.075 C 20.466 97.952 26.854 98.259 30.355 95.925 C 33.856 93.591 36.743 93.652 38.463 95.679 C 40.183 97.706 42.21 97.46 43.439 97.153 C 44.667 96.846 43.93 99.856 46.326 98.136 C 48.721 96.416 46.51 98.259 49.765 97.215 C 53.021 96.17 52.284 93.161 53.205 95.31 C 54.127 97.46 56.092 99.795 56.277 98.382 C 56.461 96.969 57.628 95.74 58.856 96.908 C 60.085 98.075 60.023 93.713 61.375 95.249 C 62.726 96.785 64.262 91.072 65.06 92.116 C 65.859 93.161 67.702 91.4 67.62 92.219 C 67.538 93.038 68.357 94.348 67.947 95.167 C 67.538 95.986 69.585 96.887 70.978 96.723 C 72.37 96.559 73.107 94.512 74.336 95.167 C 75.564 95.822 76.629 94.676 77.612 95.413 C 78.594 96.15 80.642 91.727 81.543 93.611 C 82.444 95.495 84.245 91.973 85.064 93.611 C 85.883 95.249 86.457 90.417 88.095 92.546 C 89.733 94.676 88.668 90.499 90.142 90.499 C 91.617 90.499 89.733 85.503 92.026 86.158 C 94.319 86.813 97.923 85.012 96.858 80.916 C 95.793 76.821 94.974 80.016 96.449 79.197 C 97.923 78.378 97.841 75.757 96.367 75.347 C 94.893 74.938 94.565 73.627 94.893 72.317 C 95.22 71.007 98.25 68.959 95.793 67.649 C 93.336 66.338 95.63 65.765 92.927 66.174 C 90.224 66.584 89.651 67.976 87.849 66.093 Q 86.047 64.209 7.566 68.161 Z " fill="rgb(34,94,46)"/><path d=" M 13.566 57.165 Q 14.63 57.37 14.098 58.23 C 13.566 59.09 12.542 59.991 12.951 60.892 C 13.361 61.793 16.719 62.735 16.227 63.185 C 15.736 63.636 12.747 64.495 13.893 65.683 C 15.04 66.871 16.76 66.748 15.9 67.403 C 15.04 68.058 13.402 68.59 13.893 69.409 C 14.385 70.229 14.712 72.481 17.087 72.645 C 19.462 72.808 23.066 72.194 24.008 72.767 C 24.95 73.341 26.465 72.931 25.318 74.364 C 24.172 75.798 22.779 76.944 21.182 77.763 C 19.585 78.582 17.292 81.858 18.152 83.169 C 19.012 84.479 19.831 89.352 21.305 88.82 C 22.779 88.288 22.165 90.253 23.557 90.663 C 24.95 91.072 25.318 88.902 26.588 89.188 C 27.857 89.475 30.028 88.615 30.887 87.469 C 31.747 86.322 33.918 89.475 34.204 87.346 C 34.491 85.216 32.812 83.824 33.467 83.455 C 34.123 83.087 33.549 81.981 35.269 81.899 C 36.989 81.817 36.539 80.63 37.317 81.285 C 38.095 81.94 37.89 80.876 38.832 81.49 C 39.774 82.104 38.258 80.998 38.504 82.882 C 38.75 84.766 38.054 84.479 39.733 84.684 C 41.412 84.889 36.661 88.82 38.381 90.212 C 40.101 91.604 40.593 93.324 43.418 92.751 C 46.244 92.178 46.039 90.13 47.063 91.318 C 48.087 92.505 47.841 93.857 49.765 93.12 C 51.69 92.383 51.444 87.1 53.369 88.533 C 55.294 89.966 55.99 85.79 56.727 86.65 C 57.464 87.509 56.768 88.738 58.672 88.369 C 60.576 88.001 61.436 87.202 61.252 88.677 C 61.068 90.151 63.893 90.765 65.122 90.028 C 66.35 89.291 66.043 87.694 66.903 88.492 C 67.763 89.291 70.466 88.738 70.896 89.721 C 71.326 90.704 73.168 89.598 73.414 90.519 C 73.66 91.441 72.309 92.976 74.52 93.099 C 76.731 93.222 76.363 89.659 77.714 90.089 C 79.065 90.519 82.014 88.247 82.628 86.957 C 83.242 85.667 84.164 85.298 85.761 86.834 C 87.358 88.369 88.341 85.912 89.569 83.701 C 90.798 81.49 94.852 79.033 95.22 76.514 C 95.589 73.996 97.186 75.654 96.387 73.812 C 95.589 71.969 94.114 73.812 94.79 72.337 C 95.466 70.863 97.739 68.898 96.142 68.222 C 94.544 67.546 95.896 65.519 93.193 65.949 C 90.49 66.379 89.692 67.178 89.446 65.888 C 89.2 64.598 89.692 65.458 90.06 64.352 C 90.429 63.247 92.947 64.536 91.166 62.141 C 89.385 59.745 89.139 61.588 88.586 60.974 C 88.033 60.36 89.446 59.377 88.279 59.008 C 87.112 58.64 86.682 59.315 86.805 57.841 C 86.928 56.367 88.648 56.183 86.498 55.568 C 84.348 54.954 83.242 56.551 83.119 54.954 C 82.997 53.357 84.716 54.463 83.611 52.927 C 82.505 51.391 83.181 49.979 82.689 48.873 C 82.198 47.767 80.355 49.426 79.372 48.75 C 78.39 48.074 80.355 47.215 78.451 46.109 C 76.547 45.003 75.441 48.074 76.117 46.047 C 76.793 44.02 76.27 45.802 76.27 44.266 C 76.27 42.73 77.253 43.913 75.533 43.483 C 73.813 43.053 73.66 42.546 73.721 41.748 C 73.783 40.949 75.165 37.632 73.691 37.816 C 72.216 38.001 72.063 39.721 71.264 38.431 C 70.466 37.141 67.886 35.789 66.965 37.264 C 66.043 38.738 66.78 39.905 65.982 39.536 C 65.183 39.168 62.788 40.642 62.358 39.598 C 61.928 38.554 63.049 37.54 61.759 36.987 C 60.469 36.434 59.348 38.431 58.672 36.957 C 57.996 35.482 57.874 35.421 56.215 35.544 C 54.557 35.667 55.785 34.192 53.574 33.947 C 51.363 33.701 51.915 35.789 49.704 35.851 C 47.493 35.912 49.028 38.062 48.046 36.465 C 47.063 34.868 47.001 37.079 46.203 35.482 C 45.404 33.885 46.571 33.824 44.36 33.64 C 42.149 33.455 41.78 35.789 40.675 34.807 C 39.569 33.824 37.173 32.472 35.699 34.745 C 34.225 37.018 34.901 37.939 32.689 37.202 C 30.478 36.465 29.004 36.158 28.697 37.386 C 28.39 38.615 28.267 38.861 29.741 39.598 C 31.215 40.335 30.355 40.028 29.925 41.011 C 29.495 41.993 29.311 42.73 28.697 43.099 C 28.082 43.468 28.39 45.556 26.485 44.819 C 24.581 44.082 21.448 42.915 20.834 44.328 C 20.22 45.74 21.203 47.337 19.974 47.337 C 18.746 47.337 15.552 48.074 15.92 49.487 C 16.289 50.9 17.21 52.497 16.227 52.804 C 15.245 53.111 13.217 52.62 13.525 54.586 Q 13.832 56.551 13.566 57.165 Z " fill="rgb(95,159,64)"/><path d=" M 26.055 45.234 Q 27.391 46.892 27.299 47.952 C 27.207 49.011 25.825 50.163 25.549 50.439 Q 24.028 52.466 26.009 52.651 C 27.99 52.835 31.445 51.821 31.952 52.881 C 32.459 53.941 31.998 54.724 34.025 54.217 C 36.052 53.71 40.429 54.447 41.811 52.605 C 43.193 50.762 44.345 50.992 44.667 49.84 C 44.99 48.689 45.589 48.044 43.608 48.274 C 41.627 48.504 41.857 49.61 40.429 48.965 C 39.001 48.32 36.513 51.361 35.177 49.61 C 33.841 47.859 31.123 49.794 30.57 47.537 C 30.017 45.28 30.294 41.963 29.188 42.377 Q 28.082 42.792 26.055 45.234 Z " fill="rgb(35,121,60)"/><path d=" M 27.714 40.55 Q 30.248 41.179 32.459 40.673 C 34.67 40.166 36.237 39.751 35.407 40.581 C 34.578 41.41 32.09 42.239 34.302 42.654 C 36.513 43.068 33.15 44.681 35.453 45.141 C 37.757 45.602 39.83 47.859 41.166 45.971 C 42.502 44.082 43.239 41.226 44.253 41.686 C 45.266 42.147 44.99 47.261 46.51 46.754 C 48.03 46.247 48.859 43.022 50.472 43.898 C 52.084 44.773 51.347 46.293 53.558 46.293 C 55.77 46.293 52.867 48.689 54.987 49.564 C 57.106 50.439 56.968 52.19 61.943 50.624 C 66.918 49.057 63.832 48.366 65.122 47.583 C 66.412 46.8 67.057 44.589 67.84 46.155 C 68.623 47.721 63.371 48.551 68.439 49.426 C 73.506 50.301 73.23 50.439 73.046 47.906 C 72.861 45.372 70.558 44.957 72.677 45.74 C 74.796 46.523 73.092 50.163 75.395 46.708 C 77.699 43.253 78.021 43.805 77.56 42.331 C 77.1 40.857 74.059 43.253 74.059 41.732 C 74.059 40.212 76.455 36.112 73.875 36.204 C 71.295 36.296 72.309 39.152 71.433 37.816 C 70.558 36.48 69.222 35.559 67.932 36.895 C 66.642 38.231 66.78 41.456 65.076 39.797 C 63.371 38.139 61.252 40.719 61.39 39.106 C 61.528 37.494 61.39 36.665 59.778 36.803 C 58.165 36.941 56.783 35.513 54.019 34.5 C 51.255 33.486 51.762 34.914 49.735 35.375 C 47.708 35.836 48.03 38.231 46.74 35.697 C 45.45 33.164 44.898 32.242 43.377 33.117 C 41.857 33.993 41.673 36.066 40.521 34.776 C 39.369 33.486 37.296 32.841 35.868 34.177 C 34.44 35.513 35.039 38.277 33.795 37.033 C 32.551 35.789 28.589 35.928 28.036 37.356 Q 27.483 38.784 27.714 40.55 Z " fill="rgb(191,212,73)"/><path d=" M 22.984 60.278 Q 23.967 60.933 23.312 62.489 C 22.656 64.045 23.557 63.717 22.411 64.291 C 21.264 64.864 19.954 66.748 21.428 67.649 C 22.902 68.55 28.635 66.338 28.635 68.058 C 28.635 69.778 28.308 71.334 29.7 71.744 C 31.092 72.153 34.45 75.265 36.58 73.627 C 38.709 71.989 37.562 70.761 39.528 72.153 C 41.494 73.545 39.364 75.183 41.575 75.02 C 43.787 74.856 46.817 77.149 48.865 76.248 C 50.912 75.347 55.498 74.774 55.58 72.89 C 55.662 71.007 55.171 71.252 56.809 71.252 Q 58.447 71.252 59.184 67.894 Q 62.296 68.877 61.232 65.929 C 60.167 62.98 57.792 60.933 55.826 61.588 C 53.86 62.243 56.481 64.864 55.253 65.847 C 54.024 66.83 55.253 69.532 52.386 68.304 C 49.52 67.075 48.946 66.912 47.636 66.42 C 46.326 65.929 45.343 63.554 43.05 64.455 C 40.756 65.355 40.429 66.666 38.218 64.946 C 36.006 63.226 35.351 67.321 31.829 64.127 C 28.308 60.933 28.963 62.079 29.536 61.424 C 30.109 60.769 32.648 58.64 29.127 58.64 Q 25.605 58.64 22.984 60.278 Z " fill="rgb(25,118,58)"/><path d=" M 62.624 72.645 Q 64.753 74.692 65.736 74.283 C 66.719 73.873 65.408 76.33 66.473 76.002 C 67.538 75.675 68.193 77.477 69.176 78.623 C 70.159 79.77 71.387 78.541 72.452 77.968 C 73.517 77.395 75.728 78.541 77.12 76.084 C 78.512 73.627 80.888 77.477 81.707 76.002 C 82.526 74.528 81.297 74.283 82.935 72.972 C 84.573 71.662 82.607 68.713 85.474 69.696 C 88.341 70.679 86.457 73.3 88.341 71.088 C 90.224 68.877 89.078 69.86 90.388 68.468 C 91.698 67.075 90.224 66.011 87.849 66.338 C 85.474 66.666 84.655 64.7 81.051 67.075 C 77.448 69.45 78.349 73.3 75.564 70.761 C 72.779 68.222 73.107 71.662 69.503 68.631 C 65.9 65.601 70.159 72.972 66.637 70.679 C 63.115 68.386 65.654 68.959 63.77 70.106 Q 61.887 71.252 62.624 72.645 Z " fill="rgb(25,118,58)"/><path d=" M 45.174 55.231 Q 41.673 55.323 41.903 56.659 C 42.133 57.995 42.963 60.114 45.358 60.298 C 47.754 60.482 46.556 61.588 49.136 62.049 C 51.716 62.509 50.886 62.555 51.946 64.168 C 53.006 65.78 53.098 66.057 54.296 64.536 C 55.493 63.016 55.493 62.233 56.737 64.03 C 57.981 65.826 59.594 65.043 60.469 64.076 C 61.344 63.108 62.726 65.366 63.279 62.602 C 63.832 59.837 63.325 59.192 64.154 60.114 C 64.984 61.035 67.195 62.648 67.057 60.621 C 66.918 58.594 64.431 57.995 65.168 56.981 C 65.905 55.968 65.997 53.434 64.938 53.895 C 63.878 54.355 61.482 55.737 60.515 54.954 C 59.547 54.171 57.843 57.027 56.138 56.06 C 54.434 55.092 55.217 57.534 53.605 55.553 C 51.992 53.572 50.195 58.225 49.781 56.198 C 49.366 54.171 49.643 53.25 48.307 53.572 Q 46.971 53.895 45.174 55.231 Z " fill="rgb(191,212,73)"/></g></g></svg>