<?xml version="1.0" encoding="UTF-8" standalone="no"?><!-- Generator: Gravit.io --><svg xmlns="http://www.w3.org/2000/svg" xmlns:xlink="http://www.w3.org/1999/xlink" style="isolation:isolate" viewBox="0 0 84 92" width="84pt" height="92pt"><defs><clipPath id="_clipPath_Jk5lt6yzjZDZnvRuprz1liQximjK0DvK"><rect width="84" height="92"/></clipPath></defs><g clip-path="url(#_clipPath_Jk5lt6yzjZDZnvRuprz1liQximjK0DvK)"><path d=" M 34.219 8.188 Q 33.469 7.75 33.469 8.281 C 33.469 8.813 34.219 9.25 33.938 9.313 C 33.656 9.375 33.063 9.813 33.281 10.156 C 33.5 10.5 34.406 10.688 34.063 10.813 C 33.719 10.938 33.125 10.563 33.125 11.063 C 33.125 11.563 33.469 12.281 33.813 12.313 C 34.156 12.344 34.688 13.313 34.125 13 C 33.563 12.688 32.688 12.25 32.875 12.844 C 33.063 13.438 33.969 14.156 34.219 14.063 Q 34.469 13.969 35.156 12.406 L 34.219 8.188 Z " fill="rgb(16,53,22)"/><path d=" M 35.5 5.969 Q 36 7.031 35.688 7.313 C 35.375 7.594 35.563 7.625 35.75 7.875 C 35.938 8.125 36.031 8.563 35.656 8.813 C 35.281 9.063 36.313 8.688 36.313 9.125 C 36.313 9.563 35.125 10 35.469 10.219 C 35.813 10.438 37.063 9.688 36.813 10.219 C 36.563 10.75 35.219 11.906 35.719 11.781 C 36.219 11.656 37.438 10.844 37.406 11.469 C 37.375 12.094 35.969 13.219 35.625 13.375 Q 35.281 13.531 34.938 13.281 L 34.625 6.188 L 35.5 5.969 Z " fill="rgb(16,53,22)"/><path d=" M 34.938 14.906 Q 33.094 13.563 32.75 13.844 C 32.406 14.125 32.469 15.156 32.969 15.313 Q 33.469 15.469 35.125 16.594 L 34.938 14.906 Z " fill="rgb(16,53,22)"/><path d=" M 35.813 17.156 Q 38.156 15.688 38.156 15.188 C 38.156 14.688 38.313 13.75 37.969 14.063 C 37.625 14.375 36.188 15.156 35.75 15.469 Q 35.313 15.781 35.156 15.75 L 35.813 17.156 Z " fill="rgb(16,53,22)"/><path d=" M 34.938 18.594 Q 33.438 18.094 33.031 17.781 C 32.625 17.469 31.656 16.344 31.656 17.156 C 31.656 17.969 31.75 18.5 32.375 18.813 C 33 19.125 34.75 20.125 35.094 20.094 Q 35.438 20.063 35.5 19.469 L 35.438 18.625 L 34.938 18.594 Z " fill="rgb(16,53,22)"/><path d=" M 35.844 22.594 Q 33.406 22.5 32.781 21.875 C 32.156 21.25 30.906 20.594 31.063 19.875 C 31.219 19.156 31.5 19.344 32.375 19.75 C 33.25 20.156 34.938 20.906 35.313 20.813 Q 35.688 20.719 36 20.813 L 36.438 22.719 L 35.844 22.594 Z " fill="rgb(16,53,22)"/><path d=" M 37.344 23.875 Q 38.688 22.5 39.25 22.031 C 39.813 21.563 40.063 20.844 40.469 20.344 C 40.875 19.844 41.719 18.188 41.125 18.375 C 40.531 18.563 39.563 18.5 39.313 19 C 39.063 19.5 38.438 21.031 37.625 21.563 Q 36.813 22.094 36.188 22.031 L 36.938 24.313 L 37.344 23.875 Z " fill="rgb(16,53,22)"/><path d=" M 36.031 23.438 Q 33.094 23.188 32.313 22.719 C 31.531 22.25 31.063 21.719 30.813 22.313 C 30.563 22.906 30.563 23.531 31.563 23.844 C 32.563 24.156 35.469 25.375 36.188 25.25 Q 36.906 25.125 37.031 25.031 L 36.594 23.313 L 36.031 23.438 Z " fill="rgb(16,53,22)"/><path d=" M 37.875 27.313 Q 36.188 27.813 35.156 27.813 C 34.125 27.813 31.563 26.656 30.969 25.75 C 30.375 24.844 29.813 24 30.5 24.25 C 31.188 24.5 33.875 25.75 34.938 25.938 Q 36 26.125 36.813 25.75 Q 38.25 24.688 38.563 24.219 C 38.875 23.75 39.719 22.625 40.125 22.031 C 40.531 21.438 40.938 20.625 41.563 20.531 C 42.188 20.438 42.5 20.563 42.188 21.563 C 41.875 22.563 42.219 22.594 41.438 23.688 Q 40.656 24.781 37.875 27.313 Z " fill="rgb(16,53,22)"/><path d=" M 38.844 29.406 Q 39.906 29.313 40.656 28.688 C 41.406 28.063 43.188 27.438 43.938 26.344 C 44.688 25.25 46.844 23.5 45.781 23.5 C 44.719 23.5 41.844 25.219 41.313 25.969 C 40.781 26.719 39.313 28.031 39.063 27.563 C 38.813 27.094 38.844 26.594 38.375 27.219 Q 37.906 27.844 38.188 28.594 L 38.844 29.406 Z " fill="rgb(16,53,22)"/><path d=" M 39.5 32.25 Q 40.25 33.25 40.625 33.219 C 41 33.188 40.281 32.094 41.094 32.063 C 41.906 32.031 43.563 31.625 44.156 31.531 C 44.75 31.438 47.063 31 47.469 30.406 C 47.875 29.813 51.188 26.438 50.344 26.531 C 49.5 26.625 46.594 29.25 45.813 29.531 C 45.031 29.813 44.688 30.25 44.594 29.75 C 44.5 29.25 44.281 28.031 43.781 28.875 C 43.281 29.719 43.313 30.063 43.188 29.719 C 43.063 29.375 42.75 28.531 42.344 29.031 C 41.938 29.531 41.969 30.844 41.719 30.156 C 41.469 29.469 41.25 29.219 40.875 29.313 C 40.5 29.406 40.781 31.219 40.5 30.563 C 40.219 29.906 40.281 29.406 39.875 29.906 Q 39.469 30.406 39.063 31.063 L 39.5 32.25 Z " fill="rgb(16,53,22)"/><path d=" M 39.031 33.25 Q 37.906 34.813 37.719 34.469 C 37.531 34.125 37.813 33.031 37.313 33.281 C 36.813 33.531 36.219 34.219 36.219 33.438 C 36.219 32.656 35.906 32.594 35.125 32.156 C 34.344 31.719 30.469 30.5 29.781 30 C 29.094 29.5 28.75 29.563 29.125 29.125 C 29.5 28.688 29 28.375 29.594 28.344 C 30.188 28.313 31 29.125 31.875 29 C 32.75 28.875 37.156 28.906 37.438 28.813 C 37.719 28.719 38.125 29.438 38.219 29.875 C 38.313 30.313 38.719 30.781 37.844 30.844 C 36.969 30.906 36.656 30.406 36.688 30.75 C 36.719 31.094 36.563 31.688 37.188 31.688 C 37.813 31.688 38.375 31.875 38.719 31.813 Q 39.063 31.75 39.031 33.25 Z " fill="rgb(16,53,22)"/><path d=" M 39.875 36.813 Q 40.219 37.281 40.719 37.375 C 41.219 37.469 42.344 37.875 42.25 37.313 C 42.156 36.75 41.438 36.375 41.875 36.375 C 42.313 36.375 43.219 37.563 43.5 37.188 C 43.781 36.813 43.375 35.938 43.875 36.063 C 44.375 36.188 45.031 36.938 45.313 36.219 C 45.594 35.5 44.594 35.156 45.188 35.094 C 45.781 35.031 46.563 35.656 46.781 34.938 C 47 34.219 46.5 34.438 47.094 34.375 C 47.688 34.313 48.75 34.5 48.531 34 C 48.313 33.5 47.375 32.969 47.906 33.031 C 48.438 33.094 49.5 33.594 49.625 33.219 C 49.75 32.844 49.063 31.938 49.531 32.25 C 50 32.563 50.344 32.75 50.781 32.469 C 51.219 32.188 50 31.125 50.844 31.406 C 51.688 31.688 51.688 31.563 51.875 30.875 C 52.063 30.188 51.969 30.781 52.781 30.125 C 53.594 29.469 54.969 28.844 55.938 28.219 C 56.906 27.594 58.781 26.063 57.719 26.25 C 56.656 26.438 53.219 28 52.719 28.156 C 52.219 28.313 51.75 27.906 51.563 28.313 C 51.375 28.719 51.5 29.5 51.188 29.188 C 50.875 28.875 50.438 28.094 50.125 28.906 C 49.813 29.719 50.125 30.531 49.875 30.156 C 49.625 29.781 49.313 28.938 48.969 29.531 C 48.625 30.125 48.906 31.344 48.594 31.031 C 48.281 30.719 47.938 29.469 47.531 30.375 C 47.125 31.281 47.406 32.594 47.063 32.031 C 46.719 31.469 46.469 29.906 46.188 30.563 C 45.906 31.219 46.125 33.156 45.75 32.844 C 45.375 32.531 44.938 31 44.656 31.688 C 44.375 32.375 44.813 33.719 44.313 33.375 C 43.813 33.031 43.5 32 43.188 32.375 C 42.875 32.75 43.188 34.406 42.781 34.219 C 42.375 34.031 42.219 32.844 42 33.406 C 41.781 33.969 41.688 34.094 41.344 34.469 C 41 34.844 40.875 33.438 40.344 33.938 C 39.813 34.438 40.156 34.063 39.906 34.781 Q 39.656 35.5 39.5 35.813 L 39.875 36.813 Z " fill="rgb(16,53,22)"/><path d=" M 39.438 38.031 Q 38.594 39.375 38.188 39.5 C 37.781 39.625 37.625 38.5 37.438 38.344 C 37.25 38.188 37.563 38.125 37.031 38.563 C 36.5 39 35.625 39.656 35.531 39.094 C 35.438 38.531 35.875 37.656 35.469 38.125 C 35.063 38.594 34.625 39.625 34.344 39.094 C 34.063 38.563 34.375 37.375 33.969 37.719 C 33.563 38.063 31.781 38.813 31.813 38.25 C 31.844 37.688 32.375 37.094 31.906 37.313 C 31.438 37.531 30.219 38.313 30.125 37.813 C 30.031 37.313 30.625 36.969 30.063 37.188 C 29.5 37.406 28.844 38.094 28.656 37.531 C 28.469 36.969 29.563 36.5 28.469 36.656 C 27.375 36.813 27.531 37.406 27.25 36.813 C 26.969 36.219 27.469 36 26.969 36.188 C 26.469 36.375 25.625 36.313 25.719 35.781 C 25.813 35.25 25.5 35.656 24.875 35 C 24.25 34.344 21.219 32.188 21.063 31.625 C 20.906 31.063 21.781 31.031 22.531 31.594 C 23.281 32.156 26.625 34.188 27.063 34.094 C 27.5 34 28.188 33.906 28.344 34.406 C 28.5 34.906 29.156 35.25 29.563 34.938 C 29.969 34.625 29.906 33.469 30.469 33.938 C 31.031 34.406 31.219 35.844 31.469 35.156 C 31.719 34.469 31.969 33.375 32.375 34.031 C 32.781 34.688 32.719 35.813 33.125 35.406 C 33.531 35 33.688 33.719 34.188 34.5 C 34.688 35.281 34.063 36.375 34.656 35.781 C 35.25 35.188 35.281 34.406 35.719 34.938 C 36.156 35.469 35.438 36.781 36.094 36.25 C 36.75 35.719 36.75 34.531 37.156 35.25 C 37.563 35.969 37.406 36.438 37.75 36.5 C 38.094 36.563 38.438 34.75 38.656 35.438 C 38.875 36.125 38.656 36.844 39.094 36.969 Q 39.531 37.094 39.656 36.969 L 39.438 38.031 Z " fill="rgb(16,53,22)"/><path d=" M 40.281 42.719 Q 40.469 42.344 40.906 42.688 C 41.344 43.031 42.438 43.844 43.125 43.656 C 43.813 43.469 43.344 42.969 44.156 42.844 C 44.969 42.719 45.375 42.688 45.125 42.063 C 44.875 41.438 44.063 40.625 44.688 40.906 C 45.313 41.188 46.469 42.406 46.563 41.938 C 46.656 41.469 45.719 39.719 46.406 40.094 C 47.094 40.469 48.063 41.531 48.375 41.156 C 48.688 40.781 48.938 40.563 48.625 40.094 C 48.313 39.625 47.969 38.75 48.531 39.281 C 49.094 39.813 49.344 40.531 49.781 40.219 C 50.219 39.906 49.563 38.344 50.125 38.906 C 50.688 39.469 51.344 40.063 51.688 39.781 C 52.031 39.5 51.125 38.688 52.031 38.625 C 52.938 38.563 53.406 38.813 53.438 38.313 C 53.469 37.813 53.125 37.469 53.594 37.719 C 54.063 37.969 55.281 38.813 55.469 38.25 C 55.656 37.688 54.656 37.281 55.156 37.25 C 55.656 37.219 56.094 37.406 56.438 37.063 C 56.781 36.719 55.969 35.844 56.656 36.031 C 57.344 36.219 57.969 35.906 57.969 35.438 C 57.969 34.969 57.125 34.781 57.719 34.5 C 58.313 34.219 58.344 33.969 58.5 33.313 C 58.656 32.656 61.469 28.406 60.938 28.438 C 60.406 28.469 57.438 31.563 56.906 32.25 C 56.375 32.938 56.031 33.844 55.688 34.344 C 55.344 34.844 55.219 34.5 55.125 35.094 C 55.031 35.688 55.031 36.094 54.781 35.656 C 54.531 35.219 54.594 34.25 54.094 34.656 C 53.594 35.063 53.625 36.406 53.406 36.094 C 53.188 35.781 52.656 34.563 52.281 35.156 C 51.906 35.75 52.031 37.688 51.781 37.094 C 51.531 36.5 51.219 34.719 50.938 35.375 C 50.656 36.031 50.25 37.656 50 37.031 C 49.75 36.406 49.844 35.375 49.469 35.813 C 49.094 36.25 48.906 37.938 48.469 37.375 C 48.031 36.813 47.719 35.219 47.313 35.906 C 46.906 36.594 46.938 38.594 46.719 38.094 C 46.5 37.594 46.156 36.156 45.813 36.906 C 45.469 37.656 45.25 38.156 45.188 38.688 C 45.125 39.219 44.063 36.813 43.906 37.5 C 43.75 38.188 43.969 40.438 43.313 39.688 C 42.656 38.938 42.5 37.531 42.125 38.281 C 41.75 39.031 42.156 40.125 41.688 39.875 C 41.219 39.625 40.906 39.406 40.813 39.938 C 40.719 40.469 40.656 40.813 40.375 40.844 Q 40.094 40.875 40.063 41.406 L 40.281 42.719 Z " fill="rgb(16,53,22)"/><path d=" M 40.344 45.469 Q 40.156 45.125 39.719 45.781 C 39.281 46.438 39.219 47.531 38.406 47.563 C 37.594 47.594 37 47.188 37.375 46.531 C 37.75 45.875 38.563 45.313 38.25 45 C 37.938 44.688 36.781 46.531 36.344 46.094 C 35.906 45.656 36.188 44.469 35.875 44.719 C 35.563 44.969 34.25 46.656 33.938 46.25 C 33.625 45.844 33.25 45.375 33.625 44.938 C 34 44.5 34.469 43.781 33.938 44.063 C 33.406 44.344 32.125 46.094 31.75 45.781 C 31.375 45.469 32.406 43.875 32.063 43.781 C 31.719 43.688 31.469 44.313 30.844 44.719 C 30.219 45.125 29.719 44.938 29.75 44.281 C 29.781 43.625 30.344 42.875 29.563 43.531 C 28.781 44.188 28.125 45.25 28.031 44.656 C 27.938 44.063 28.531 43 28.094 43.156 C 27.656 43.313 25.813 44.719 25.813 44.094 C 25.813 43.469 26.813 42.563 26.25 42.656 C 25.688 42.75 24.531 43.75 24.438 43.219 C 24.344 42.688 24.656 42.375 24.281 42.531 C 23.906 42.688 23.188 43.219 22.906 42.844 C 22.625 42.469 22.875 42 22.469 42.125 C 22.063 42.25 21.469 42.375 21.094 42.031 C 20.719 41.688 20.281 42.094 20.031 41.469 C 19.781 40.844 16.625 40.406 15.844 39.625 C 15.063 38.844 13.125 37.844 14.188 38.094 C 15.25 38.344 20.406 39.813 20.594 39.563 C 20.781 39.313 20.688 38.781 21.188 39.031 C 21.688 39.281 21.656 40.156 22.063 39.719 C 22.469 39.281 22.438 38.469 22.906 39.125 C 23.375 39.781 23.344 40.094 23.563 39.688 C 23.781 39.281 24.094 38.844 24.375 39.375 C 24.656 39.906 24.844 40.938 24.969 40.406 C 25.094 39.875 25.656 38.438 25.969 39.219 C 26.281 40 26.531 41.938 26.781 41.031 C 27.031 40.125 26.875 38.906 27.469 39.781 C 28.063 40.656 28.156 41.781 28.531 41.438 C 28.906 41.094 28.25 39.781 28.906 39.75 C 29.563 39.719 30.125 40.406 30.125 40.719 C 30.125 41.031 30.5 41.906 30.625 41.438 C 30.75 40.969 30.719 39.594 31.188 40.094 C 31.656 40.594 32.25 42.719 32.438 41.844 C 32.625 40.969 32.719 40.156 33.219 40.594 C 33.719 41.031 33.938 42.75 34.344 42.688 C 34.75 42.625 35.063 42.438 35 41.844 C 34.938 41.25 35.031 40.063 35.469 40.531 C 35.906 41 36.25 41.25 36.25 41.906 C 36.25 42.563 36.281 43.313 36.563 42.875 C 36.844 42.438 37.156 41.031 37.594 41.375 C 38.031 41.719 38.063 42.281 38.125 42.813 C 38.188 43.344 38.75 42.469 39.094 42.344 C 39.438 42.219 39.656 42 39.688 42.563 C 39.719 43.125 39.438 44.281 39.875 44.438 Q 40.313 44.594 40.344 44.594 L 40.344 45.469 Z " fill="rgb(16,53,22)"/><path d=" M 40.125 51.781 Q 40.406 51.594 40.969 51.906 C 41.531 52.219 42.938 53.469 43.594 53.406 C 44.25 53.344 45.563 53.156 44.844 52.531 C 44.125 51.906 42.313 50.969 43.094 51.031 C 43.875 51.094 45.313 52.156 45.75 51.938 C 46.188 51.719 45.563 51.156 45.313 50.625 C 45.063 50.094 45.531 49.531 46.219 50.344 C 46.906 51.156 47.438 52.125 47.781 51.469 C 48.125 50.813 46.313 48.688 47.125 49.031 C 47.938 49.375 49.219 50.719 49.75 50.313 C 50.281 49.906 48.875 48.094 49.5 48.344 C 50.125 48.594 51.563 49.625 51.781 49 C 52 48.375 51 47.344 51.656 47.781 C 52.313 48.219 53.188 48.781 53.438 48.406 C 53.688 48.031 53.5 47.625 54.031 47.875 C 54.563 48.125 54.406 47.375 55.031 47.281 C 55.656 47.188 56.063 47.688 56.281 47.063 C 56.5 46.438 55.813 46.469 56.5 46.469 C 57.188 46.469 57.531 46.844 57.594 46.438 C 57.656 46.031 57.688 45.625 57.969 45.906 C 58.25 46.188 58.938 46.25 58.938 45.938 C 58.938 45.625 58.656 45.125 59.063 45.188 C 59.469 45.25 59.938 45.375 60.031 44.938 C 60.125 44.5 66.938 41.5 65.438 41.5 C 63.938 41.5 60.063 42.75 59.344 42.969 C 58.625 43.188 58.438 43.781 58.344 43.344 C 58.25 42.906 58.094 42.281 57.719 42.688 C 57.344 43.094 57.25 44 57 43.656 C 56.75 43.313 56.188 42.75 56.094 43.344 C 56 43.938 55.656 44.875 55.5 44.469 C 55.344 44.063 55.375 42.531 54.844 43.25 C 54.313 43.969 54.438 45.125 54.156 44.594 C 53.875 44.063 53.313 42.25 53.156 43.125 C 53 44 52.844 45.875 52.531 45.375 C 52.219 44.875 51.781 42.969 51.5 43.656 C 51.219 44.344 50.813 46 50.625 45.5 C 50.438 45 49.875 43.375 49.594 44.156 C 49.313 44.938 49.156 47.563 48.688 46.781 C 48.219 46 48.125 44.063 47.563 44.969 C 47 45.875 47 48.719 46.719 47.969 C 46.438 47.219 46.281 44.594 45.781 45.375 C 45.281 46.156 44.813 49.406 44.563 48.719 C 44.313 48.031 43.688 45.375 43.375 46.063 C 43.063 46.75 42.594 49.031 42.25 48.375 C 41.906 47.719 41.531 47.125 41.313 47.813 C 41.094 48.5 40.781 48.344 40.594 49.063 C 40.406 49.781 40.25 50 40.156 50.594 Q 40.063 51.188 40.125 51.781 Z " fill="rgb(16,53,22)"/><path d=" M 36.375 90.281 C 37.031 90.281 36.75 85.031 37.594 84.375 C 38.438 83.719 39.375 82.875 39.469 83.719 C 39.563 84.563 39.938 85.5 40.875 85.594 C 41.813 85.688 45.094 87.281 44.344 85.781 C 43.594 84.281 42.281 84.469 41.719 83.625 Q 40.688 82.5 41.438 82.406 C 42.188 82.313 43.313 83.719 44.625 84 C 45.938 84.281 47.344 85.406 46.594 84.188 C 45.844 82.969 43.688 82.406 44.156 81.75 C 44.625 81.094 43.875 80.531 45.188 81.188 C 46.5 81.844 47.719 83.625 48.563 83.438 C 49.406 83.25 51 85.219 50.063 83.531 C 49.125 81.844 48 81.281 47.625 80.719 C 47.25 80.156 47.063 79.031 48.281 79.781 C 49.5 80.531 50.813 82.781 51.656 82.313 C 52.5 81.844 52.406 81.469 51.656 80.625 C 50.906 79.781 49.594 78.188 50.906 79.031 C 52.219 79.875 53.156 81.563 53.906 81.469 C 54.656 81.375 55.406 81.094 54.563 80.063 Q 53.719 79.031 56.156 80.344 Q 55.688 78.094 56.531 78.844 C 57.375 79.594 58.594 81.188 58.875 79.781 C 59.156 78.375 59.438 78.563 60.375 79.406 C 61.313 80.25 59.813 78.844 60.188 78.188 C 60.563 77.531 60.844 78.094 61.688 78.656 C 62.531 79.219 61.406 77.438 62.531 77.625 C 63.656 77.813 62.719 78 63.844 77.156 C 64.969 76.313 64.313 76.688 65.719 75.563 C 67.125 74.438 71.156 70.5 70.125 70.875 C 69.094 71.25 65.813 74.438 65.156 74.063 C 64.5 73.688 64.594 72.563 64.125 73.406 L 62.813 73.781 Q 62.906 73.875 62.344 75 C 61.781 76.125 62.25 74.906 61.969 73.969 C 61.688 73.031 61.406 72.563 60.844 73.969 C 60.281 75.375 60 76.875 59.906 75.281 C 59.813 73.688 60.188 71.531 59.063 73.313 C 57.938 75.094 57.844 72.563 57.094 73.969 C 56.344 75.375 56.531 77.813 56.25 76.5 C 55.969 75.188 57.281 72.75 56.25 73.5 C 55.219 74.25 53.906 78.281 53.906 76.875 C 53.906 75.469 54.656 73.781 53.906 74.063 C 53.156 74.344 51.563 78.75 51.563 78 C 51.563 77.25 52.781 74.531 51.656 74.344 C 50.531 74.156 50.063 76.219 49.5 77.531 C 48.938 78.844 48.844 79.5 48.563 78.469 C 48.281 77.438 48.188 75 47.156 75.188 C 46.125 75.375 46.5 76.031 46.594 76.875 C 46.688 77.719 47.063 79.406 46.406 79.5 C 45.75 79.594 45.188 79.781 45.188 78.469 C 45.188 77.156 45.75 75.563 44.906 75.563 C 44.063 75.563 44.063 76.781 43.875 78.281 C 43.688 79.781 42.563 80.344 41.906 79.5 C 41.25 78.656 40.875 75.938 39.844 77.063 C 38.813 78.188 39.094 78.375 39.75 79.313 C 40.406 80.25 40.969 80.063 40.219 81.469 C 39.469 82.875 37.406 84.188 37.594 83.156 Q 37.781 82.125 39 73.688 Q 38.813 71.438 39.188 68.625 C 39.563 65.813 40.125 64.031 40.125 62.156 C 40.125 60.281 39.75 56.156 40.219 53.719 C 40.688 51.281 40.875 48 40.781 46.406 C 40.688 44.813 40.5 40.5 40.219 38.531 C 39.938 36.563 40.031 32.531 39.375 30.469 C 38.719 28.406 37.125 23.531 36.375 20.531 C 35.625 17.531 35.156 9.938 35.25 7.688 C 35.344 5.438 36 1.969 35.25 2.719 C 34.5 3.469 34.219 5.719 34.125 8.063 C 34.031 10.406 34.406 16.969 35.531 21.656 C 36.656 26.344 38.438 29.344 38.719 32.906 C 39 36.469 39.469 39.281 39.563 41.344 C 39.656 43.406 40.031 48.188 39.844 50.25 C 39.656 52.313 39.281 55.5 39 56.906 C 38.719 58.313 38.906 64.969 38.344 70.406 C 37.781 75.844 37.406 83.063 36.563 85.406 C 35.719 87.75 35.719 90.281 36.375 90.281 Z " fill="rgb(16,53,22)"/><path d=" M 37.063 83.563 C 36.805 84.078 36.125 81.813 35.625 82.313 C 35.125 82.813 34.625 82.313 34.188 83.125 C 33.75 83.938 32.688 85.75 32 85.313 C 31.313 84.875 31.125 84.5 31.5 83.875 C 31.875 83.25 34.688 81.563 34.313 80.813 C 33.938 80.063 34 78.938 33.563 79.438 C 33.125 79.938 32.375 80.375 31.5 80.375 C 30.625 80.375 29.188 81.625 28.125 81.063 C 27.063 80.5 26.688 80.75 27.5 80.188 C 28.313 79.625 32.438 78.688 32.063 78.125 C 31.688 77.563 31.813 76.25 30.688 76.688 C 29.563 77.125 27.125 79 26.438 78.875 C 25.75 78.75 24.5 78.938 25 78.125 C 25.5 77.313 28.375 76.5 28.625 75.625 C 28.875 74.75 29.75 74.5 29.188 74.188 C 28.625 73.875 26.313 75.625 25.063 75.25 C 23.813 74.875 22.438 75.5 22.75 74.5 C 23.063 73.5 27.063 73.313 26.938 72.625 C 26.813 71.938 26.313 71.563 25.563 71.938 C 24.813 72.313 21 73.813 20.938 73 C 20.875 72.188 24.25 71.375 24.313 70.813 C 24.375 70.25 25.313 69.563 23.375 70.125 C 21.438 70.688 19.875 71.063 19.563 70.125 C 19.25 69.188 22.063 69.063 22.375 68.5 C 22.688 67.938 18.563 68.938 18.125 68.25 C 17.688 67.563 17.875 66.938 19.313 66.875 C 20.75 66.813 21.375 66.125 20.625 66.063 C 19.875 66 17.063 67.125 16.625 66.563 C 16.188 66 15.688 65.5 16.5 65.375 C 17.313 65.25 19.938 65.313 19 64.75 C 18.063 64.188 15.563 65.688 15 64.875 C 14.438 64.063 15.375 63.625 16.125 63.5 C 16.875 63.375 18 62.5 17.063 62.875 C 16.125 63.25 14 63.625 13.938 63.063 C 13.875 62.5 15.5 62.375 15.5 61.875 C 15.5 61.375 13.563 62.438 13 61.813 C 12.438 61.188 11.938 61.25 12.688 60.813 C 13.438 60.375 12.25 60.5 12.063 60 C 11.875 59.5 12.688 59.313 12.063 59 C 11.438 58.688 10.938 59 11.063 58.375 C 11.188 57.75 10.625 57.438 10.75 57 C 10.875 56.563 10.813 56.25 10.563 55.75 C 10.313 55.25 7.625 51.25 8.75 52 C 9.875 52.75 11.938 55.875 12.625 56.063 C 13.313 56.25 13.688 55 13.875 55.813 C 14.063 56.625 13.688 58 14.188 57.438 C 14.688 56.875 15.563 56.563 15.5 57.75 C 15.438 58.938 14.5 59.438 15.25 58.813 C 16 58.188 16.563 57.938 16.625 58.625 C 16.688 59.313 18 58.063 17.875 59.313 C 17.75 60.563 17.5 62.063 17.813 61.563 C 18.125 61.063 18.688 58.625 19.063 59.375 C 19.438 60.125 20 61.25 19.5 62.25 C 19 63.25 18.75 63.938 19.25 63.375 C 19.75 62.813 20.125 60.688 20.625 61 C 21.125 61.313 21.188 62.188 21.063 63.438 C 20.938 64.688 20.75 65.563 21.438 64.5 C 22.125 63.438 22.75 61.438 22.875 62.313 C 23 63.188 23.313 64.5 23.063 65.188 C 22.813 65.875 22.313 67.5 22.938 66.688 C 23.563 65.875 24.125 63.188 24.563 64.125 C 25 65.063 25.375 66.313 25.063 67 C 24.75 67.688 24 69.063 24.688 68.625 C 25.375 68.188 26.125 64.813 26.75 65.063 C 27.375 65.313 27.688 64.313 27.438 65.688 C 27.188 67.063 26.875 68.25 26.625 69.125 C 26.375 70 27 71.688 27.438 70.563 C 27.875 69.438 28.313 67 28.875 66.625 C 29.438 66.25 30.188 65.188 30 66.25 C 29.813 67.313 28.688 71.313 28.75 72.125 C 28.813 72.938 29.063 73.938 29.625 73 C 30.188 72.063 31.25 69.25 32.063 69.625 C 32.875 70 33.063 70 32.625 71.125 C 32.188 72.25 30.75 73.938 31 74.875 C 31.25 75.813 32 75.938 32.375 74.938 C 32.75 73.938 34.875 70.125 35.188 71.313 C 35.5 72.5 35.063 73.375 34.25 74.813 C 33.438 76.25 32.438 76.813 33 77.625 C 33.563 78.438 32.875 79.125 33.688 78.313 C 34.5 77.5 36.25 74.188 36.813 73.438 C 37.375 72.688 38.188 73.188 37.938 74 C 37.688 74.813 37.313 77.25 36.5 78.063 C 35.688 78.875 36.188 78.75 35.875 79.375 C 35.563 80 34.938 79.75 35.313 80.5 C 35.688 81.25 37.375 82.938 37.063 83.563 Z " fill="rgb(16,53,22)"/><path d=" M 39.059 73.863 Q 39.516 73.125 39.691 73.512 C 39.867 73.898 39.621 75.094 39.973 75.059 C 40.324 75.023 40.535 74.988 41.063 75.34 C 41.59 75.691 43.313 76.605 43.77 76.535 C 44.227 76.465 44.789 76.395 44.508 75.867 C 44.227 75.34 42.152 74.109 41.977 73.688 C 41.801 73.266 41.379 72.984 41.801 73.055 C 42.223 73.125 42.996 74.18 43.453 74.039 C 43.91 73.898 44.297 72.914 44.438 72.563 C 44.578 72.211 44.895 72.176 45.422 72.035 C 45.949 71.895 46.582 72.773 47.285 73.02 C 47.988 73.266 48.762 74.672 49.078 74.285 C 49.395 73.898 48.797 72.949 48.586 72.211 C 48.375 71.473 47.918 70.629 48.691 71.438 C 49.465 72.246 51.398 74.531 52.031 74.145 C 52.664 73.758 52.383 72.879 52.207 72.211 C 52.031 71.543 51.293 70.453 51.855 70.629 C 52.418 70.805 55.441 72.281 55.688 71.719 C 55.934 71.156 53.473 70.348 53.789 69.75 C 54.105 69.152 54.176 68.836 54.738 69.293 C 55.301 69.75 56.074 70.102 56.566 69.891 C 57.059 69.68 57.129 69.258 58.184 69.434 C 59.238 69.609 59.273 69.328 59.73 68.871 C 60.188 68.414 61.031 68.73 60.68 67.922 C 60.328 67.113 59.098 66.199 59.941 66.621 C 60.785 67.043 62.543 68.449 62.754 67.641 C 62.965 66.832 61.277 65.813 62.016 65.953 C 62.754 66.094 64.688 66.762 64.617 66.059 C 64.547 65.355 63.738 65.039 64.441 65.145 C 65.145 65.25 65.672 65.074 65.742 64.617 C 65.813 64.16 66.621 64.863 66.832 64.582 C 67.043 64.301 65.777 64.195 67.605 64.266 C 69.434 64.336 67.641 63.492 68.309 63.281 C 68.977 63.07 74.461 62.332 74.039 61.945 C 73.617 61.559 70.348 61.77 69.891 61.418 C 69.434 61.066 69.75 60.574 69.152 60.855 C 68.555 61.137 68.309 61.664 67.957 61.383 C 67.605 61.102 67.324 61.945 66.973 61.77 C 66.621 61.594 66.691 60.434 66.234 60.82 C 65.777 61.207 66.129 62.262 65.566 61.91 C 65.004 61.559 64.723 60.609 64.371 61.383 C 64.02 62.156 63.879 63.281 63.668 62.824 C 63.457 62.367 63.141 61.172 62.789 61.559 C 62.438 61.945 62.438 63.387 62.016 62.895 C 61.594 62.402 61.488 61.313 61.172 61.875 C 60.855 62.438 60.293 64.09 60.223 63.492 C 60.152 62.895 59.379 62.227 59.027 63.105 C 58.676 63.984 58.5 65.637 58.289 65.004 C 58.078 64.371 58.113 62.227 57.41 62.895 C 56.707 63.563 56.883 64.723 56.566 65.391 C 56.25 66.059 56.25 66.938 56.039 66.059 C 55.828 65.18 55.758 62.824 55.09 63.633 C 54.422 64.441 54.773 67.676 54.246 67.254 C 53.719 66.832 53.754 66.797 53.121 65.848 C 52.488 64.898 51.469 63.773 51.645 65.32 C 51.82 66.867 52.77 67.43 52.277 67.535 C 51.785 67.641 51.363 68.871 51.223 67.957 C 51.082 67.043 50.941 63.949 50.344 64.16 C 49.746 64.371 49.395 65.355 49.395 66.727 C 49.395 68.098 49.711 69.891 49.219 69.469 C 48.727 69.047 48.305 68.344 48.234 67.359 C 48.164 66.375 48.094 64.934 47.602 65.496 C 47.109 66.059 46.23 66.867 46.547 67.57 C 46.863 68.273 47.215 68.801 46.828 69.328 C 46.441 69.855 46.195 70.91 45.984 69.996 C 45.773 69.082 45.492 66.727 45.07 66.762 C 44.648 66.797 44.051 67.535 44.156 68.309 C 44.262 69.082 44.367 71.297 43.91 71.156 C 43.453 71.016 43.277 70.734 43.242 69.715 C 43.207 68.695 43.629 67.008 42.75 67.465 C 41.871 67.922 41.906 70.734 41.484 70.699 C 41.063 70.664 40.641 70.805 40.957 71.438 C 41.273 72.07 41.52 72.668 40.887 72.598 C 40.254 72.527 38.848 72.563 38.637 73.055 Q 38.426 73.547 39.059 73.863 Z " fill="rgb(16,53,22)"/><path d=" M 38.531 68.801 Q 37.758 68.098 37.477 68.449 C 37.195 68.801 35.789 70.383 34.945 70.383 C 34.102 70.383 33.328 70.77 33.363 69.891 C 33.398 69.012 35.719 67.676 35.789 67.359 C 35.859 67.043 35.895 66.727 35.262 66.832 C 34.629 66.938 31.852 68.52 31.324 68.168 C 30.797 67.816 30.234 67.57 30.727 67.008 C 31.219 66.445 33.75 65.742 33.75 65.18 C 33.75 64.617 34.031 64.406 33.188 64.828 C 32.344 65.25 30.691 66.516 30.129 66.305 C 29.566 66.094 28.758 66.129 29.004 65.461 C 29.25 64.793 32.695 62.789 31.641 62.965 C 30.586 63.141 27.738 64.547 27.316 64.055 C 26.895 63.563 26.543 63.387 27.141 63 C 27.738 62.613 30.586 62.086 29.602 61.734 C 28.617 61.383 26.473 63.633 25.594 62.789 C 24.715 61.945 24.891 62.016 25.277 61.629 C 25.664 61.242 28.125 61.137 27.633 60.398 C 27.141 59.66 25.488 60.785 24.645 60.75 C 23.801 60.715 22.711 60.715 23.027 59.836 C 23.344 58.957 24.574 59.379 24.363 58.781 C 24.152 58.184 23.695 57.375 23.063 57.41 C 22.43 57.445 22.781 57.27 21.832 57.973 C 20.883 58.676 19.863 58.395 20.145 57.445 C 20.426 56.496 20.672 57.727 21.164 56.355 C 21.656 54.984 21.516 55.09 20.426 55.371 C 19.336 55.652 18.316 56.637 18.633 55.547 C 18.949 54.457 18.809 54.387 18.809 53.824 C 18.809 53.262 18.105 53.508 17.613 53.754 C 17.121 54 16.734 54.668 16.348 54.316 C 15.961 53.965 15.645 54.035 15.996 53.473 C 16.348 52.91 15.117 54 14.871 53.508 C 14.625 53.016 15.223 52.488 14.52 52.699 C 13.816 52.91 13.359 53.086 13.184 52.77 C 13.008 52.453 12.586 52.77 12.305 52.383 C 12.023 51.996 11.227 52.219 11.039 51.914 C 10.852 51.609 7.102 49.359 7.102 48.914 C 7.102 48.469 8.344 48.891 8.953 49.102 C 9.563 49.313 11.859 50.508 12 50.227 C 12.141 49.945 12.773 49.523 12.984 49.969 C 13.195 50.414 13.57 51.188 13.688 50.719 C 13.805 50.25 14.344 49.547 14.531 49.992 C 14.719 50.438 14.906 51.305 15.094 50.789 C 15.281 50.273 15.422 49.547 15.773 50.063 C 16.125 50.578 15.914 51.656 16.336 51.094 C 16.758 50.531 16.43 49.547 17.086 50.086 C 17.742 50.625 17.813 52.57 18.141 51.938 C 18.469 51.305 18.445 49.781 18.938 50.438 C 19.43 51.094 19.313 53.367 19.758 52.805 C 20.203 52.242 20.414 50.719 20.906 51.398 C 21.398 52.078 21.164 54.703 21.586 53.953 C 22.008 53.203 22.5 51.398 22.852 52.102 C 23.203 52.805 22.945 55.805 23.25 55.242 C 23.555 54.68 24.352 52.148 24.703 52.992 C 25.055 53.836 24.352 57.164 24.891 56.484 C 25.43 55.805 26.18 54.047 26.742 54.328 C 27.305 54.609 27.445 55.734 27.281 56.203 C 27.117 56.672 26.203 58.523 26.906 58.289 C 27.609 58.055 28.242 55.453 28.898 55.43 C 29.555 55.406 29.602 56.109 29.484 56.883 C 29.367 57.656 29.203 58.172 29.156 58.945 C 29.109 59.719 28.922 60.844 29.461 60.07 C 30 59.297 31.008 57.07 31.383 57 C 31.758 56.93 32.156 57.867 31.922 58.641 C 31.688 59.414 30.914 60.398 31.266 60.961 C 31.617 61.523 32.367 61.008 32.648 60.117 C 32.93 59.227 33.75 58.102 34.195 58.43 C 34.641 58.758 34.547 59.93 34.289 60.539 C 34.031 61.148 33.539 61.266 33.469 62.109 C 33.398 62.953 33.047 63.82 33.469 63.516 C 33.891 63.211 34.359 62.25 34.617 61.781 C 34.875 61.313 35.227 60.563 35.695 60.516 C 36.164 60.469 36.516 60.938 36.281 61.969 C 36.047 63 34.688 64.453 35.086 64.781 C 35.484 65.109 35.813 65.227 36.117 64.641 C 36.422 64.055 36.984 62.18 37.641 62.367 C 38.297 62.555 38.508 63.469 38.156 64.008 C 37.805 64.547 37.148 65.086 37.266 65.344 C 37.383 65.602 37.008 66.211 37.195 66.609 C 37.383 67.008 38.016 67.289 38.273 67.547 Q 38.531 67.805 39.078 67.891 L 38.531 68.801 Z " fill="rgb(16,53,22)"/><path d=" M 39.906 63.063 Q 40.094 63.063 40.75 63.125 C 41.406 63.188 41.719 63.781 42.563 64.031 C 43.406 64.281 44.688 64.594 44.438 64 C 44.188 63.406 41.75 61.563 42.344 61.5 C 42.938 61.438 45.844 63.031 46.438 62.75 C 47.031 62.469 47.563 62.094 47.031 61.719 C 46.5 61.344 43.875 60.469 44.594 60.375 C 45.313 60.281 46.25 60.813 46.719 60.938 C 47.188 61.063 47.688 62.438 48.281 62.219 C 48.875 62 48.75 60.813 47.969 59.906 C 47.188 59 46.344 59.156 47.125 59.031 C 47.906 58.906 49.094 60.188 49.625 60 C 50.156 59.813 50.625 58.938 49.969 58.375 C 49.313 57.813 48.75 57.688 49.281 57.688 C 49.813 57.688 52.219 58.969 52.5 58.625 C 52.781 58.281 53.344 57.656 52.75 57.469 C 52.156 57.281 50.375 56.625 51.188 56.313 C 52 56 53.906 57.563 54.156 56.906 C 54.406 56.25 52.531 55.219 52.938 55.094 C 53.344 54.969 55.469 56.25 55.75 55.688 C 56.031 55.125 54.344 54.219 55.156 54.188 C 55.969 54.156 57.438 54.875 57.688 54.313 C 57.938 53.75 58.156 53.375 57.531 53.125 C 56.906 52.875 58.469 53.125 58.656 52.625 C 58.844 52.125 57.656 51.844 58.563 51.781 C 59.469 51.719 60.219 51.906 60.188 51.344 C 60.156 50.781 58.688 50.531 59.531 50.531 C 60.375 50.531 61.094 50.875 61.25 50.469 C 61.406 50.063 60.781 49.594 61.281 49.594 C 61.781 49.594 62.563 50.063 62.469 49.406 C 62.375 48.75 61.625 49 62.188 48.688 C 62.75 48.375 63.906 48.188 64.344 47.688 C 64.781 47.188 67.906 44.75 67.469 44.469 C 67.031 44.188 63.969 46.375 63 46.594 C 62.031 46.813 62.063 47.438 61.844 47.031 C 61.625 46.625 61.094 46.156 60.875 46.813 C 60.656 47.469 60.594 47.75 60.469 47.406 C 60.344 47.063 59.5 46.563 59.406 47.063 C 59.313 47.563 59.25 48.469 58.969 48 C 58.688 47.531 57.938 47 57.813 47.563 C 57.688 48.125 58.156 49.906 57.75 49.406 C 57.344 48.906 56.813 47.625 56.688 48.344 C 56.563 49.063 57.031 51.25 56.656 50.75 C 56.281 50.25 55.625 48.625 55.406 49.313 C 55.188 50 55.688 52.063 55.25 51.656 C 54.813 51.25 54.719 49.406 54.156 50.281 C 53.594 51.156 54.031 53.063 53.813 52.875 C 53.594 52.688 52.688 50.656 52.375 51.188 C 52.063 51.719 52.219 54.531 52.031 53.844 C 51.844 53.156 51.125 51.75 50.813 52.375 C 50.5 53 50.906 55.719 50.594 55.438 C 50.281 55.156 50.156 52.844 49.594 52.813 C 49.031 52.781 49.031 51.906 48.875 53.719 C 48.719 55.531 48.594 57.438 48.281 56.875 C 47.969 56.313 47.594 53.5 47 53.781 C 46.406 54.063 46.188 54.313 46.188 55.031 C 46.188 55.75 46.563 58 46.156 58 C 45.75 58 45.531 56.25 45 55.594 C 44.469 54.938 43.719 55.063 43.656 56.156 C 43.594 57.25 43.844 58.063 43.531 57.688 C 43.219 57.313 43.219 56.344 42.719 56.625 C 42.219 56.906 41.688 57.563 41.75 58.219 C 41.813 58.875 42.281 60.031 41.719 59.813 C 41.156 59.594 40.781 59.281 40.688 59.906 C 40.594 60.531 40.781 61.438 40.438 61.531 Q 40.094 61.625 39.563 62 L 39.906 63.063 Z " fill="rgb(16,53,22)"/><path d=" M 39.344 56.156 Q 39.063 56 38.813 56.156 C 38.563 56.313 37.313 57.469 36.563 57.688 C 35.813 57.906 34.5 58.156 34.438 57.5 C 34.375 56.844 34.281 56.688 35 56.438 C 35.719 56.188 37.438 55.219 37.219 55 C 37 54.781 36.969 54.594 36.313 55.031 C 35.656 55.469 33.375 57.156 32.906 56.938 C 32.438 56.719 32.031 56.313 32.188 55.906 C 32.344 55.5 31.063 56.5 31.094 55.688 C 31.125 54.875 31.188 54.563 31.656 54 C 32.125 53.438 32.969 52.563 32.5 52.719 C 32.031 52.875 30.406 54.406 29.969 54.375 C 29.531 54.344 28.406 54.656 28.625 54 C 28.844 53.344 29.031 53.25 29.625 52.781 C 30.219 52.313 31.531 51.688 30.625 51.563 C 29.719 51.438 28.188 53.25 27.75 52.969 C 27.313 52.688 28.75 50.906 28.406 50.719 C 28.063 50.531 25.375 52.094 24.938 51.719 C 24.5 51.344 24.094 51.063 24.5 50.75 C 24.906 50.438 26.969 49.531 26.25 49.438 C 25.531 49.344 23.75 51 23.406 50.375 C 23.063 49.75 24.281 48.969 23.688 49.125 C 23.094 49.281 22.125 50.313 22.063 49.344 C 22 48.375 23.031 48.063 22.469 48.156 C 21.906 48.25 20.688 48.75 20.531 47.969 C 20.375 47.188 22 46.938 21.313 46.906 C 20.625 46.875 19.531 47.25 19.438 46.688 C 19.344 46.125 20.25 45.688 19.75 45.688 C 19.25 45.688 18.406 45.625 18.594 45 C 18.781 44.375 17.625 44.094 18 43.563 C 18.375 43.031 17.594 43 17.469 42.219 C 17.344 41.438 16.156 36.563 16.656 36.719 C 17.156 36.875 19.063 41.094 19.344 41.969 C 19.625 42.844 20.156 43.531 20.344 43.281 C 20.531 43.031 21.375 42.656 21.438 43.188 C 21.5 43.719 21.281 44.031 21.75 43.813 C 22.219 43.594 22.438 44.344 22.875 44.531 C 23.313 44.719 23.938 45.281 24.469 45.125 C 25 44.969 25.406 46.125 25.594 46.938 C 25.781 47.75 26.406 46.125 26.906 46.063 C 27.406 46 26.906 49.375 27.5 48.594 C 28.094 47.813 28.219 46.219 28.813 46.719 C 29.406 47.219 30.844 46.906 30.969 48 C 31.094 49.094 30.813 51.375 31.25 50.875 C 31.688 50.375 32.469 47.25 32.906 48.281 C 33.344 49.313 32.844 51.969 33.344 51.781 C 33.844 51.594 34.219 48.563 34.813 49.375 C 35.406 50.188 35.813 50.938 35.531 52.188 C 35.25 53.438 36.344 51.531 36.625 50.781 C 36.906 50.031 37.656 49.719 37.719 51.188 C 37.781 52.656 36.719 54.125 37.375 54.063 C 38.031 54 38.594 51.938 38.938 52.563 C 39.281 53.188 39.281 53.688 39.25 54.156 C 39.219 54.625 38.688 55.031 39.031 55.188 Q 39.375 55.344 39.844 55.313 L 39.344 56.156 Z " fill="rgb(16,53,22)"/><path d=" M 36.594 21.188 Q 38.094 19.875 38.469 19.188 C 38.844 18.5 40.188 17.406 39.531 16.969 C 38.875 16.531 38.469 16.688 37.781 17.344 C 37.094 18 36.969 19.25 36.563 19.438 Q 36.156 19.625 35.719 20.063 L 36.594 21.188 Z " fill="rgb(16,53,22)"/><path d=" M 34.875 16.625 Q 32.875 15.5 32.438 15.75 C 32 16 31.625 16.156 32.094 16.563 C 32.563 16.969 33.719 17.719 34.156 17.594 Q 34.594 17.469 35.313 17.5 L 34.875 16.625 Z " fill="rgb(16,53,22)"/><path d=" M 35.688 15.125 Q 38.156 13.625 37.844 13.219 C 37.531 12.813 35.75 13.719 35.25 13.969 Q 34.75 14.219 34.938 14.656 L 35.188 15.781 L 35.688 15.125 Z " fill="rgb(16,53,22)"/></g></svg>