<?xml version="1.0" encoding="UTF-8" standalone="no"?><!-- Generator: Gravit.io --><svg xmlns="http://www.w3.org/2000/svg" xmlns:xlink="http://www.w3.org/1999/xlink" style="isolation:isolate" viewBox="0 0 33 18" width="33pt" height="18pt"><defs><clipPath id="_clipPath_o1Be1KUihZCxBMMa5OYcUyyMnNtZwpki"><rect width="33" height="18"/></clipPath></defs><g clip-path="url(#_clipPath_o1Be1KUihZCxBMMa5OYcUyyMnNtZwpki)"><g><path d=" M 13.586 14.211 Q 13.984 13.965 13.305 13.965 C 12.625 13.965 12.602 14.234 12.086 13.695 C 11.57 13.156 10.164 12.148 10.047 11.422 C 9.93 10.695 9.555 9.617 10.047 10.016 C 10.539 10.414 10.539 11.656 11.219 11.914 C 11.898 12.172 12.953 13.227 13.023 12.922 C 13.094 12.617 15.344 14.539 15.016 13.672 C 14.688 12.805 12.93 11.75 12.555 11.117 C 12.18 10.484 11.711 10.625 11.781 9.758 C 11.852 8.891 11.383 7.063 12.039 7.414 C 12.695 7.766 12.367 9.594 12.859 10.133 C 13.352 10.672 14.523 11.867 15.133 12.43 C 15.742 12.992 16.047 13.555 15.672 12.055 C 15.297 10.555 15.414 10.625 15.016 9.664 C 14.617 8.703 14.383 8.094 14.805 7.836 C 15.227 7.578 15.25 6.195 15.602 6.945 C 15.953 7.695 16.023 7.18 16.141 8.563 C 16.258 9.945 16.961 12.641 17.078 13.391 C 17.195 14.141 18.297 13.461 18.836 12.406 C 19.375 11.352 19.938 10.273 20.477 9.992 C 21.016 9.711 21.578 9.594 21.32 10.414 C 21.063 11.234 20.359 13.133 19.703 13.625 C 19.047 14.117 19.68 14.586 18.859 14.656 C 18.039 14.727 14.125 14.867 14.078 14.633 Q 14.031 14.398 13.586 14.211 Z " fill="rgb(96,109,33)"/><path d=" M 14.781 14.352 Q 13.68 13.297 13.07 12.828 C 12.461 12.359 11.148 11.563 10.961 10.648 C 10.773 9.734 10.469 8.938 10.914 9.125 C 11.359 9.313 11.828 8.445 11.875 9.148 C 11.922 9.852 11.641 10.672 12.18 10.93 C 12.719 11.188 12.977 11.703 13.656 12.359 C 14.336 13.016 14.828 13.625 15.297 13.859 C 15.766 14.094 15.414 12.781 15.016 12.195 C 14.617 11.609 14.125 10.789 13.68 10.063 C 13.234 9.336 12.039 8.422 12.602 8.398 C 13.164 8.375 13.844 8.281 14.055 9.102 C 14.266 9.922 15.203 10.227 15.414 11.211 C 15.625 12.195 15.531 13.227 16.047 12.805 C 16.563 12.383 16.867 11.258 17.523 10.625 C 18.18 9.992 18.156 9.828 18.555 9.031 C 18.953 8.234 18.719 7.203 19.234 7.344 C 19.75 7.484 20.266 8.094 20.148 8.633 C 20.031 9.172 18.414 10.625 17.969 11.234 C 17.523 11.844 16.891 13.109 16.516 13.367 C 16.141 13.625 17.266 13.953 17.734 13.039 C 18.203 12.125 18.602 11.164 19.047 10.602 C 19.492 10.039 19.938 9.406 20.266 8.844 C 20.594 8.281 20.594 7.555 21.039 8.07 C 21.484 8.586 21.391 8.516 21.297 9.313 C 21.203 10.109 21.109 9.617 20.617 10.273 C 20.125 10.93 20.055 10.859 19.68 11.656 C 19.305 12.453 20.125 11.469 20.594 10.93 C 21.063 10.391 21.461 9.383 22.023 9.242 C 22.586 9.102 23.242 9.453 22.773 9.852 C 22.305 10.25 21.953 9.875 21.719 10.742 C 21.484 11.609 22.797 10.742 22.75 11.281 C 22.703 11.82 22.047 12.148 21.719 12.523 C 21.391 12.898 20.289 12.289 20.031 12.758 C 19.773 13.227 18.742 12.711 18.508 13.063 C 18.273 13.414 18.016 13.977 17.547 13.883 C 17.078 13.789 16.398 13.742 16 13.977 Q 15.602 14.211 14.781 14.352 Z " fill="rgb(177,168,57)"/></g></g></svg>