<?xml version="1.0" encoding="UTF-8" standalone="no"?><!-- Generator: Gravit.io --><svg xmlns="http://www.w3.org/2000/svg" xmlns:xlink="http://www.w3.org/1999/xlink" style="isolation:isolate" viewBox="0 0 512 1280" width="512pt" height="1280pt"><defs><clipPath id="_clipPath_hg1vjt61Nvbm85joZF14DvMYCAdJU6eI"><rect width="512" height="1280"/></clipPath></defs><g clip-path="url(#_clipPath_hg1vjt61Nvbm85joZF14DvMYCAdJU6eI)"><rect x="0" y="0" width="32" height="32" transform="matrix(1,0,0,1,0,0)" fill="rgb(215,183,145)"/><g clip-path="url(#_clipPath_LKuFF0NoBWe8Noj129ib6zc49aAJyFdH)"><text transform="matrix(1,0,0,1,627.5,647.759)" style="font-family:'Open Sans';font-weight:400;font-size:20px;font-style:normal;fill:#000000;stroke:none;">23</text></g><defs><clipPath id="_clipPath_LKuFF0NoBWe8Noj129ib6zc49aAJyFdH"><rect x="0" y="0" width="25" height="27.236" transform="matrix(1,0,0,1,627.5,626.382)"/></clipPath></defs><rect x="192" y="0.126" width="32" height="31.874" transform="matrix(1,0,0,1,0,0)" fill="rgb(215,183,145)"/><rect x="160" y="0.181" width="32" height="31.819" transform="matrix(1,0,0,1,0,0)" fill="rgb(215,183,145)"/><rect x="164.938" y="5.029" width="2.125" height="1.367" transform="matrix(1,0,0,1,0,0)" fill="rgb(174,150,121)"/><rect x="182.438" y="7.142" width="2.125" height="1.367" transform="matrix(1,0,0,1,0,0)" fill="rgb(174,150,121)"/><rect x="172.563" y="15.408" width="2.125" height="1.367" transform="matrix(1,0,0,1,0,0)" fill="rgb(174,150,121)"/><rect x="183.688" y="21.809" width="2.125" height="1.367" transform="matrix(1,0,0,1,0,0)" fill="rgb(174,150,121)"/><rect x="163.375" y="22.927" width="1.062" height="0.684" transform="matrix(1,0,0,1,0,0)" fill="rgb(174,150,121)"/><rect x="173.75" y="23.735" width="1.062" height="0.684" transform="matrix(1,0,0,1,0,0)" fill="rgb(174,150,121)"/><rect x="164.375" y="14.724" width="1.062" height="0.684" transform="matrix(1,0,0,1,0,0)" fill="rgb(174,150,121)"/><rect x="172.25" y="10.995" width="1.062" height="0.684" transform="matrix(1,0,0,1,0,0)" fill="rgb(174,150,121)"/><rect x="186.125" y="15.843" width="1.062" height="0.684" transform="matrix(1,0,0,1,0,0)" fill="rgb(174,150,121)"/><rect x="185" y="28.831" width="1.062" height="0.684" transform="matrix(1,0,0,1,0,0)" fill="rgb(174,150,121)"/><rect x="180.438" y="3.289" width="1.062" height="0.684" transform="matrix(1,0,0,1,0,0)" fill="rgb(174,150,121)"/><rect x="162.563" y="29.453" width="1.062" height="0.684" transform="matrix(1,0,0,1,0,0)" fill="rgb(189,170,147)"/><rect x="178.375" y="13.046" width="1.062" height="0.684" transform="matrix(1,0,0,1,0,0)" fill="rgb(189,170,147)"/><rect x="173.125" y="2.667" width="1.062" height="0.684" transform="matrix(1,0,0,1,0,0)" fill="rgb(189,170,147)"/><rect x="187.875" y="2.419" width="1.062" height="0.684" transform="matrix(1,0,0,1,0,0)" fill="rgb(189,170,147)"/><rect x="165.625" y="27.091" width="2.125" height="1.367" transform="matrix(1,0,0,1,0,0)" fill="rgb(174,150,121)"/><rect x="-0.25" y="33.007" width="30.993" height="30.993" transform="matrix(1,0,0,1,0,0)" fill="rgb(121,82,48)"/><rect x="33.007" y="33.007" width="30.993" height="30.993" transform="matrix(1,0,0,1,0,0)" fill="rgb(42,25,10)"/><path d=" M 32 32 L 32 0 Q 57.505 -0.021 58.667 0 Q 61.837 7.522 62.125 13.125 C 62.413 18.728 59.554 21.255 60.563 22.5 C 61.571 23.745 62.869 32.098 61 32 Q 58.625 31.875 32 32 Z " fill="rgb(215,183,145)"/><path d=" M 96.01 32.126 L 64.01 32.126 Q 63.99 6.621 64.01 5.459 Q 71.533 2.289 77.135 2.001 C 82.738 1.713 85.265 4.572 86.51 3.564 C 87.755 2.556 96.109 1.257 96.01 3.126 Q 95.885 5.501 96.01 32.126 Z " fill="rgb(215,183,145)"/><path d=" M 128 0.158 L 128 32.158 Q 102.495 32.178 101.333 32.158 Q 98.163 24.635 97.875 19.033 C 97.587 13.43 100.446 10.903 99.437 9.658 C 98.429 8.412 97.131 0.059 99 0.158 Q 101.375 0.283 128 0.158 Z " fill="rgb(215,183,145)"/><path d=" M 128.001 0.181 L 160.001 0.181 Q 160.021 25.686 160.001 26.848 Q 152.479 30.018 146.876 30.306 C 141.273 30.595 138.746 27.736 137.501 28.744 C 136.256 29.752 127.903 31.05 128.001 29.181 Q 128.126 26.806 128.001 0.181 Z " fill="rgb(215,183,145)"/><g clip-path="url(#_clipPath_55iWfOFikP2xmMZf4a1wk9RrIWxvhhfn)"><text transform="matrix(1,0,0,1,627.5,647.759)" style="font-family:'Open Sans';font-weight:400;font-size:20px;font-style:normal;fill:#000000;stroke:none;">23</text></g><defs><clipPath id="_clipPath_55iWfOFikP2xmMZf4a1wk9RrIWxvhhfn"><rect x="0" y="0" width="25" height="27.236" transform="matrix(1,0,0,1,627.5,626.382)"/></clipPath></defs><g clip-path="url(#_clipPath_LY7SLys1mvJLU57gFieSMbJC56OVDn3T)"><text transform="matrix(1,0,0,1,627.5,647.759)" style="font-family:'Open Sans';font-weight:400;font-size:20px;font-style:normal;fill:#000000;stroke:none;">23</text></g><defs><clipPath id="_clipPath_LY7SLys1mvJLU57gFieSMbJC56OVDn3T"><rect x="0" y="0" width="25" height="27.236" transform="matrix(1,0,0,1,627.5,626.382)"/></clipPath></defs><path d=" M 199.375 6.85 Q 199.75 11.581 203.875 13.697 C 208 15.814 205.125 22.413 208.375 23.035 C 211.625 23.658 216.75 26.771 218.25 25.899 Q 219.75 25.028 222.25 27.269 Q 219.625 27.393 218.25 27.642 C 216.875 27.891 209.25 27.891 208.875 26.024 C 208.5 24.156 204 23.16 202.25 20.545 C 200.5 17.931 206.375 19.425 203.5 15.441 C 200.625 11.456 194.75 10.709 195.875 7.223 Q 197 3.737 197.125 2.367 L 199.375 6.85 Z " fill="rgb(189,160,125)"/><rect x="224" y="0.184" width="32" height="31.816" transform="matrix(1,0,0,1,0,0)" fill="rgb(215,183,145)"/><path d=" M 246.5 25.532 Q 245.125 24.414 244.75 22.922 C 244.375 21.431 241.25 17.951 237.375 16.708 C 233.5 15.466 227.625 13.353 226.625 10.743 Q 225.625 8.133 225.75 6.89 Q 225 9.127 225.25 11.613 C 225.5 14.098 225.25 16.833 229.75 17.951 C 234.25 19.07 237.75 18.2 239.375 21.68 C 241 25.159 242.875 28.888 246.125 28.639 Q 249.375 28.391 253.375 27.645 Q 246.875 26.278 246.5 25.532 Z " fill="rgb(189,160,125)"/><g clip-path="url(#_clipPath_UEgqhuigrOUzT1UoEMgcBjHWW9LD1GLs)"><text transform="matrix(1,0,0,1,627.5,647.759)" style="font-family:'Open Sans';font-weight:400;font-size:20px;font-style:normal;fill:#000000;stroke:none;">23</text></g><defs><clipPath id="_clipPath_UEgqhuigrOUzT1UoEMgcBjHWW9LD1GLs"><rect x="0" y="0" width="25" height="27.236" transform="matrix(1,0,0,1,627.5,626.382)"/></clipPath></defs><g clip-path="url(#_clipPath_zzhPmfD3R2QStBLa37uwuHigMVVV9f0P)"><text transform="matrix(1,0,0,1,627.5,647.759)" style="font-family:'Open Sans';font-weight:400;font-size:20px;font-style:normal;fill:#000000;stroke:none;">23</text></g><defs><clipPath id="_clipPath_zzhPmfD3R2QStBLa37uwuHigMVVV9f0P"><rect x="0" y="0" width="25" height="27.236" transform="matrix(1,0,0,1,627.5,626.382)"/></clipPath></defs><g clip-path="url(#_clipPath_0oFPxEKqnMeFIkdvPZe35R94DzwYwt3Q)"><text transform="matrix(1,0,0,1,627.5,647.759)" style="font-family:'Open Sans';font-weight:400;font-size:20px;font-style:normal;fill:#000000;stroke:none;">23</text></g><defs><clipPath id="_clipPath_0oFPxEKqnMeFIkdvPZe35R94DzwYwt3Q"><rect x="0" y="0" width="25" height="27.236" transform="matrix(1,0,0,1,627.5,626.382)"/></clipPath></defs><g clip-path="url(#_clipPath_NOHiZXzgcSpU475SqkcXqpvj09714i4g)"><text transform="matrix(1,0,0,1,627.5,647.759)" style="font-family:'Open Sans';font-weight:400;font-size:20px;font-style:normal;fill:#000000;stroke:none;">23</text></g><defs><clipPath id="_clipPath_NOHiZXzgcSpU475SqkcXqpvj09714i4g"><rect x="0" y="0" width="25" height="27.236" transform="matrix(1,0,0,1,627.5,626.382)"/></clipPath></defs></g></svg>